ISO-10303-21;
HEADER;
FILE_DESCRIPTION (( 'STEP AP203' ),
    '1' );
FILE_NAME ('Part1.STEP',
    '2025-11-08T10:54:03',
    ( '' ),
    ( '' ),
    'SwSTEP 2.0',
    'SolidWorks 2022',
    '' );
FILE_SCHEMA (( 'CONFIG_CONTROL_DESIGN' ));
ENDSEC;

DATA;
#1 = ORIENTED_EDGE ( 'NONE', *, *, #30, .F. ) ;
#2 = COORDINATED_UNIVERSAL_TIME_OFFSET ( 3, 30, .AHEAD. ) ;
#3 = ORIENTED_EDGE ( 'NONE', *, *, #307, .F. ) ;
#4 = COORDINATED_UNIVERSAL_TIME_OFFSET ( 3, 30, .AHEAD. ) ;
#5 = ORIENTED_EDGE ( 'NONE', *, *, #171, .F. ) ;
#6 = APPROVAL_DATE_TIME ( #237, #83 ) ;
#7 = EDGE_CURVE ( 'NONE', #77, #226, #175, .T. ) ;
#8 = ORIENTED_EDGE ( 'NONE', *, *, #264, .T. ) ;
#9 = AXIS2_PLACEMENT_3D ( 'NONE', #24, #224, #143 ) ;
#10 = PERSON_AND_ORGANIZATION_ROLE ( 'design_owner' ) ;
#11 = VERTEX_POINT ( 'NONE', #207 ) ;
#12 = DIRECTION ( 'NONE',  ( 0.000000000000000000, 0.000000000000000000, -1.000000000000000000 ) ) ;
#13 = CARTESIAN_POINT ( 'NONE',  ( 0.000000000000000000, 55.00000000000000000, 0.000000000000000000 ) ) ;
#14 = PRODUCT_RELATED_PRODUCT_CATEGORY ( 'detail', '', ( #173 ) ) ;
#15 = CARTESIAN_POINT ( 'NONE',  ( 1.836970198721029589E-15, 10.00000000000000000, 15.00000000000000000 ) ) ;
#16 = PLANE ( 'NONE',  #252 ) ;
#17 = APPROVAL ( #243, 'UNSPECIFIED' ) ;
#18 = AXIS2_PLACEMENT_3D ( 'NONE', #29, #270, #35 ) ;
#19 = DIRECTION ( 'NONE',  ( -0.000000000000000000, -1.000000000000000000, -0.000000000000000000 ) ) ;
#20 = CARTESIAN_POINT ( 'NONE',  ( 0.000000000000000000, 0.000000000000000000, 0.000000000000000000 ) ) ;
#21 = ADVANCED_FACE ( 'NONE', ( #54, #154 ), #266, .T. ) ;
#22 = VECTOR ( 'NONE', #324, 1000.000000000000000 ) ;
#23 = FACE_OUTER_BOUND ( 'NONE', #290, .T. ) ;
#24 = CARTESIAN_POINT ( 'NONE',  ( 0.000000000000000000, 65.00000000000000000, 0.000000000000000000 ) ) ;
#25 = COORDINATED_UNIVERSAL_TIME_OFFSET ( 3, 30, .AHEAD. ) ;
#26 = EDGE_LOOP ( 'NONE', ( #104, #1 ) ) ;
#27 = VERTEX_POINT ( 'NONE', #126 ) ;
#28 = CALENDAR_DATE ( 2025, 8, 11 ) ;
#29 = CARTESIAN_POINT ( 'NONE',  ( 0.000000000000000000, 55.00000000000000000, 0.000000000000000000 ) ) ;
#30 = EDGE_CURVE ( 'NONE', #238, #315, #72, .T. ) ;
#31 = CALENDAR_DATE ( 2025, 8, 11 ) ;
#32 = DESIGN_CONTEXT ( 'detailed design', #176, 'design' ) ;
#33 = VERTEX_POINT ( 'NONE', #139 ) ;
#34 = DATE_TIME_ROLE ( 'classification_date' ) ;
#35 = DIRECTION ( 'NONE',  ( 0.000000000000000000, -0.000000000000000000, 1.000000000000000000 ) ) ;
#36 = AXIS2_PLACEMENT_3D ( 'NONE', #13, #61, #107 ) ;
#37 = LINE ( 'NONE', #296, #22 ) ;
#38 = DIRECTION ( 'NONE',  ( 0.000000000000000000, 1.000000000000000000, 0.000000000000000000 ) ) ;
#39 = CYLINDRICAL_SURFACE ( 'NONE', #169, 3.000000000000000444 ) ;
#40 = CC_DESIGN_APPROVAL ( #118, ( #193 ) ) ;
#41 = DIRECTION ( 'NONE',  ( 0.000000000000000000, 0.000000000000000000, -1.000000000000000000 ) ) ;
#42 = EDGE_CURVE ( 'NONE', #122, #238, #37, .T. ) ;
#43 = DIRECTION ( 'NONE',  ( 0.000000000000000000, 0.000000000000000000, 1.000000000000000000 ) ) ;
#44 = DIRECTION ( 'NONE',  ( 0.000000000000000000, 1.000000000000000000, 0.000000000000000000 ) ) ;
#45 = DIRECTION ( 'NONE',  ( 0.000000000000000000, 0.000000000000000000, -1.000000000000000000 ) ) ;
#46 = ADVANCED_FACE ( 'NONE', ( #134 ), #39, .T. ) ;
#47 = CARTESIAN_POINT ( 'NONE',  ( 0.000000000000000000, 10.00000000000000000, 0.000000000000000000 ) ) ;
#48 = LOCAL_TIME ( 14, 24, 3.000000000000000000, #2 ) ;
#49 = DATE_AND_TIME ( #31, #48 ) ;
#50 = CALENDAR_DATE ( 2025, 8, 11 ) ;
#51 = ORIENTED_EDGE ( 'NONE', *, *, #330, .F. ) ;
#52 = CIRCLE ( 'NONE', #59, 1.000000000000000000 ) ;
#53 = PERSON_AND_ORGANIZATION ( #133, #322 ) ;
#54 = FACE_BOUND ( 'NONE', #26, .T. ) ;
#55 = EDGE_CURVE ( 'NONE', #27, #234, #223, .T. ) ;
#56 = CARTESIAN_POINT ( 'NONE',  ( 0.000000000000000000, 0.000000000000000000, 0.000000000000000000 ) ) ;
#57 = VERTEX_POINT ( 'NONE', #85 ) ;
#58 = EDGE_LOOP ( 'NONE', ( #96, #293 ) ) ;
#59 = AXIS2_PLACEMENT_3D ( 'NONE', #66, #225, #113 ) ;
#60 = ADVANCED_BREP_SHAPE_REPRESENTATION ( 'Part1', ( #187, #123 ), #278 ) ;
#61 = DIRECTION ( 'NONE',  ( 0.000000000000000000, 1.000000000000000000, 0.000000000000000000 ) ) ;
#62 = CARTESIAN_POINT ( 'NONE',  ( 0.000000000000000000, 55.00000000000000000, 0.000000000000000000 ) ) ;
#63 = CARTESIAN_POINT ( 'NONE',  ( 0.000000000000000000, 65.00000000000000000, -1.000000000000000000 ) ) ;
#64 = CC_DESIGN_DATE_AND_TIME_ASSIGNMENT ( #155, #102, ( #193 ) ) ;
#65 = CARTESIAN_POINT ( 'NONE',  ( 0.000000000000000000, 65.00000000000000000, 0.000000000000000000 ) ) ;
#66 = CARTESIAN_POINT ( 'NONE',  ( 0.000000000000000000, 65.00000000000000000, 0.000000000000000000 ) ) ;
#67 = CARTESIAN_POINT ( 'NONE',  ( 0.000000000000000000, 10.00000000000000000, -3.000000000000000444 ) ) ;
#68 = CIRCLE ( 'NONE', #222, 1.000000000000000000 ) ;
#69 = DIRECTION ( 'NONE',  ( -0.000000000000000000, -1.000000000000000000, -0.000000000000000000 ) ) ;
#70 = CC_DESIGN_DATE_AND_TIME_ASSIGNMENT ( #95, #34, ( #284 ) ) ;
#71 = AXIS2_PLACEMENT_3D ( 'NONE', #294, #189, #137 ) ;
#72 = CIRCLE ( 'NONE', #90, 1.000000000000000000 ) ;
#73 = SHAPE_DEFINITION_REPRESENTATION ( #142, #60 ) ;
#74 = ORIENTED_EDGE ( 'NONE', *, *, #307, .T. ) ;
#75 = MECHANICAL_CONTEXT ( 'NONE', #216, 'mechanical' ) ;
#76 = ADVANCED_FACE ( 'NONE', ( #272 ), #16, .T. ) ;
#77 = VERTEX_POINT ( 'NONE', #15 ) ;
#78 = ORIENTED_EDGE ( 'NONE', *, *, #166, .F. ) ;
#79 = PERSON_AND_ORGANIZATION_ROLE ( 'design_supplier' ) ;
#80 = ORIENTED_EDGE ( 'NONE', *, *, #92, .T. ) ;
#81 = EDGE_LOOP ( 'NONE', ( #214, #51 ) ) ;
#82 = LOCAL_TIME ( 14, 24, 3.000000000000000000, #4 ) ;
#83 = APPROVAL ( #127, 'UNSPECIFIED' ) ;
#84 = FACE_OUTER_BOUND ( 'NONE', #240, .T. ) ;
#85 = CARTESIAN_POINT ( 'NONE',  ( 3.673940397442059868E-16, 10.00000000000000000, 3.000000000000000444 ) ) ;
#86 = CC_DESIGN_APPROVAL ( #83, ( #274 ) ) ;
#87 = DIRECTION ( 'NONE',  ( 0.000000000000000000, 1.000000000000000000, 0.000000000000000000 ) ) ;
#88 = FACE_OUTER_BOUND ( 'NONE', #115, .T. ) ;
#89 = LINE ( 'NONE', #300, #302 ) ;
#90 = AXIS2_PLACEMENT_3D ( 'NONE', #210, #132, #244 ) ;
#91 = FACE_OUTER_BOUND ( 'NONE', #318, .T. ) ;
#92 = EDGE_CURVE ( 'NONE', #124, #315, #194, .T. ) ;
#93 = CARTESIAN_POINT ( 'NONE',  ( 0.000000000000000000, 55.00000000000000000, 0.000000000000000000 ) ) ;
#94 = AXIS2_PLACEMENT_3D ( 'NONE', #282, #332, #168 ) ;
#95 = DATE_AND_TIME ( #285, #311 ) ;
#96 = ORIENTED_EDGE ( 'NONE', *, *, #108, .T. ) ;
#97 = APPROVAL_ROLE ( '' ) ;
#98 = DIRECTION ( 'NONE',  ( 0.000000000000000000, 0.000000000000000000, 1.000000000000000000 ) ) ;
#99 = APPROVAL_DATE_TIME ( #121, #17 ) ;
#100 = ORIENTED_EDGE ( 'NONE', *, *, #105, .T. ) ;
#101 = CIRCLE ( 'NONE', #221, 3.000000000000000444 ) ;
#102 = DATE_TIME_ROLE ( 'creation_date' ) ;
#103 = ORIENTED_EDGE ( 'NONE', *, *, #219, .T. ) ;
#104 = ORIENTED_EDGE ( 'NONE', *, *, #135, .F. ) ;
#105 = EDGE_CURVE ( 'NONE', #33, #27, #101, .T. ) ;
#106 = DIRECTION ( 'NONE',  ( 0.000000000000000000, 0.000000000000000000, 1.000000000000000000 ) ) ;
#107 = DIRECTION ( 'NONE',  ( 0.000000000000000000, 0.000000000000000000, 1.000000000000000000 ) ) ;
#108 = EDGE_CURVE ( 'NONE', #124, #122, #68, .T. ) ;
#109 = CARTESIAN_POINT ( 'NONE',  ( 3.673940397442059868E-16, 55.00000000000000000, 3.000000000000000444 ) ) ;
#110 = CARTESIAN_POINT ( 'NONE',  ( 0.000000000000000000, 10.00000000000000000, -15.00000000000000000 ) ) ;
#111 = DIRECTION ( 'NONE',  ( -0.000000000000000000, -1.000000000000000000, -0.000000000000000000 ) ) ;
#112 = CIRCLE ( 'NONE', #263, 15.00000000000000000 ) ;
#113 = DIRECTION ( 'NONE',  ( 0.000000000000000000, 0.000000000000000000, 1.000000000000000000 ) ) ;
#114 = DIRECTION ( 'NONE',  ( 0.000000000000000000, 1.000000000000000000, 0.000000000000000000 ) ) ;
#115 = EDGE_LOOP ( 'NONE', ( #156, #334 ) ) ;
#116 =( LENGTH_UNIT ( ) NAMED_UNIT ( * ) SI_UNIT ( .MILLI., .METRE. ) );
#117 = APPROVAL_PERSON_ORGANIZATION ( #317, #83, #97 ) ;
#118 = APPROVAL ( #267, 'UNSPECIFIED' ) ;
#119 = FACE_OUTER_BOUND ( 'NONE', #178, .T. ) ;
#120 = EDGE_LOOP ( 'NONE', ( #3, #151 ) ) ;
#121 = DATE_AND_TIME ( #50, #82 ) ;
#122 = VERTEX_POINT ( 'NONE', #326 ) ;
#123 = AXIS2_PLACEMENT_3D ( 'NONE', #56, #310, #208 ) ;
#124 = VERTEX_POINT ( 'NONE', #245 ) ;
#125 = PERSON_AND_ORGANIZATION ( #133, #322 ) ;
#126 = CARTESIAN_POINT ( 'NONE',  ( 0.000000000000000000, 55.00000000000000000, -3.000000000000000444 ) ) ;
#127 = APPROVAL_STATUS ( 'not_yet_approved' ) ;
#128 = CARTESIAN_POINT ( 'NONE',  ( 0.000000000000000000, 10.00000000000000000, 0.000000000000000000 ) ) ;
#129 = CIRCLE ( 'NONE', #141, 15.00000000000000000 ) ;
#130 = APPLICATION_PROTOCOL_DEFINITION ( 'international standard', 'config_control_design', 1994, #216 ) ;
#131 = EDGE_CURVE ( 'NONE', #226, #77, #198, .T. ) ;
#132 = DIRECTION ( 'NONE',  ( 0.000000000000000000, 1.000000000000000000, 0.000000000000000000 ) ) ;
#133 = PERSON ( 'UNSPECIFIED', 'UNSPECIFIED', 'UNSPECIFIED', ('UNSPECIFIED'), ('UNSPECIFIED'), ('UNSPECIFIED') ) ;
#134 = FACE_OUTER_BOUND ( 'NONE', #287, .T. ) ;
#135 = EDGE_CURVE ( 'NONE', #315, #238, #152, .T. ) ;
#136 = CLOSED_SHELL ( 'NONE', ( #292, #46, #257, #273, #323, #231, #236, #21, #183, #76 ) ) ;
#137 = DIRECTION ( 'NONE',  ( 0.000000000000000000, 0.000000000000000000, 1.000000000000000000 ) ) ;
#138 = DIRECTION ( 'NONE',  ( 0.000000000000000000, 0.000000000000000000, 1.000000000000000000 ) ) ;
#139 = CARTESIAN_POINT ( 'NONE',  ( 3.673940397442059868E-16, 55.00000000000000000, 3.000000000000000444 ) ) ;
#140 = DIRECTION ( 'NONE',  ( -0.000000000000000000, -1.000000000000000000, -0.000000000000000000 ) ) ;
#141 = AXIS2_PLACEMENT_3D ( 'NONE', #20, #197, #328 ) ;
#142 = PRODUCT_DEFINITION_SHAPE ( 'NONE', 'NONE',  #193 ) ;
#143 = DIRECTION ( 'NONE',  ( 0.000000000000000000, 0.000000000000000000, -1.000000000000000000 ) ) ;
#144 = ORIENTED_EDGE ( 'NONE', *, *, #108, .F. ) ;
#145 = DIRECTION ( 'NONE',  ( 0.000000000000000000, 1.000000000000000000, 0.000000000000000000 ) ) ;
#146 = CC_DESIGN_PERSON_AND_ORGANIZATION_ASSIGNMENT ( #233, #289, ( #193 ) ) ;
#147 = AXIS2_PLACEMENT_3D ( 'NONE', #93, #69, #45 ) ;
#148 = PERSON_AND_ORGANIZATION ( #133, #322 ) ;
#149 = ORIENTED_EDGE ( 'NONE', *, *, #105, .F. ) ;
#150 = APPLICATION_PROTOCOL_DEFINITION ( 'international standard', 'config_control_design', 1994, #176 ) ;
#151 = ORIENTED_EDGE ( 'NONE', *, *, #219, .F. ) ;
#152 = CIRCLE ( 'NONE', #36, 1.000000000000000000 ) ;
#153 = COORDINATED_UNIVERSAL_TIME_OFFSET ( 3, 30, .AHEAD. ) ;
#154 = FACE_OUTER_BOUND ( 'NONE', #261, .T. ) ;
#155 = DATE_AND_TIME ( #28, #211 ) ;
#156 = ORIENTED_EDGE ( 'NONE', *, *, #131, .T. ) ;
#157 = CC_DESIGN_PERSON_AND_ORGANIZATION_ASSIGNMENT ( #313, #79, ( #274 ) ) ;
#158 = ORIENTED_EDGE ( 'NONE', *, *, #135, .T. ) ;
#159 = AXIS2_PLACEMENT_3D ( 'NONE', #277, #140, #195 ) ;
#160 = DIRECTION ( 'NONE',  ( 0.000000000000000000, -0.000000000000000000, 1.000000000000000000 ) ) ;
#161 = DIRECTION ( 'NONE',  ( -0.000000000000000000, -1.000000000000000000, -0.000000000000000000 ) ) ;
#162 = CARTESIAN_POINT ( 'NONE',  ( 0.000000000000000000, 55.00000000000000000, 0.000000000000000000 ) ) ;
#163 = VECTOR ( 'NONE', #299, 1000.000000000000000 ) ;
#164 = CARTESIAN_POINT ( 'NONE',  ( 0.000000000000000000, 55.00000000000000000, -3.000000000000000444 ) ) ;
#165 = DIRECTION ( 'NONE',  ( 0.000000000000000000, 1.000000000000000000, 0.000000000000000000 ) ) ;
#166 = EDGE_CURVE ( 'NONE', #33, #57, #248, .T. ) ;
#167 = CYLINDRICAL_SURFACE ( 'NONE', #246, 15.00000000000000000 ) ;
#168 = DIRECTION ( 'NONE',  ( 0.000000000000000000, 0.000000000000000000, 1.000000000000000000 ) ) ;
#169 = AXIS2_PLACEMENT_3D ( 'NONE', #62, #111, #12 ) ;
#170 = CARTESIAN_POINT ( 'NONE',  ( 0.000000000000000000, 10.00000000000000000, 0.000000000000000000 ) ) ;
#171 = EDGE_CURVE ( 'NONE', #226, #291, #325, .T. ) ;
#172 =( NAMED_UNIT ( * ) PLANE_ANGLE_UNIT ( ) SI_UNIT ( $, .RADIAN. ) );
#173 = PRODUCT ( 'Part1', 'Part1', '', ( #75 ) ) ;
#174 = FACE_OUTER_BOUND ( 'NONE', #120, .T. ) ;
#175 = CIRCLE ( 'NONE', #316, 15.00000000000000000 ) ;
#176 = APPLICATION_CONTEXT ( 'configuration controlled 3d designs of mechanical parts and assemblies' ) ;
#177 = PERSON_AND_ORGANIZATION_ROLE ( 'classification_officer' ) ;
#178 = EDGE_LOOP ( 'NONE', ( #320, #8, #103, #5 ) ) ;
#179 = CALENDAR_DATE ( 2025, 8, 11 ) ;
#180 = ORIENTED_EDGE ( 'NONE', *, *, #166, .T. ) ;
#181 = AXIS2_PLACEMENT_3D ( 'NONE', #297, #275, #41 ) ;
#182 = ORIENTED_EDGE ( 'NONE', *, *, #249, .T. ) ;
#183 = ADVANCED_FACE ( 'NONE', ( #84 ), #190, .T. ) ;
#184 = DIRECTION ( 'NONE',  ( 0.000000000000000000, 1.000000000000000000, 0.000000000000000000 ) ) ;
#185 = ORIENTED_EDGE ( 'NONE', *, *, #30, .T. ) ;
#186 = AXIS2_PLACEMENT_3D ( 'NONE', #170, #145, #255 ) ;
#187 = MANIFOLD_SOLID_BREP ( 'Boss-Extrude3', #136 ) ;
#188 = DIRECTION ( 'NONE',  ( 0.000000000000000000, 0.000000000000000000, 1.000000000000000000 ) ) ;
#189 = DIRECTION ( 'NONE',  ( 0.000000000000000000, 1.000000000000000000, 0.000000000000000000 ) ) ;
#190 = CYLINDRICAL_SURFACE ( 'NONE', #181, 1.000000000000000000 ) ;
#191 = CIRCLE ( 'NONE', #186, 3.000000000000000444 ) ;
#192 = CARTESIAN_POINT ( 'NONE',  ( 0.000000000000000000, 55.00000000000000000, 0.000000000000000000 ) ) ;
#193 = PRODUCT_DEFINITION ( 'UNKNOWN', '', #274, #32 ) ;
#194 = LINE ( 'NONE', #63, #256 ) ;
#195 = DIRECTION ( 'NONE',  ( 0.000000000000000000, 0.000000000000000000, -1.000000000000000000 ) ) ;
#196 = EDGE_CURVE ( 'NONE', #27, #33, #288, .T. ) ;
#197 = DIRECTION ( 'NONE',  ( 0.000000000000000000, 1.000000000000000000, 0.000000000000000000 ) ) ;
#198 = CIRCLE ( 'NONE', #71, 15.00000000000000000 ) ;
#199 = ORIENTED_EDGE ( 'NONE', *, *, #330, .T. ) ;
#200 = CARTESIAN_POINT ( 'NONE',  ( 0.000000000000000000, 0.000000000000000000, -15.00000000000000000 ) ) ;
#201 =( NAMED_UNIT ( * ) SI_UNIT ( $, .STERADIAN. ) SOLID_ANGLE_UNIT ( ) );
#202 = UNCERTAINTY_MEASURE_WITH_UNIT (LENGTH_MEASURE( 1.000000000000000082E-05 ), #116, 'distance_accuracy_value', 'NONE');
#203 = APPROVAL_ROLE ( '' ) ;
#204 = PERSON_AND_ORGANIZATION ( #133, #322 ) ;
#205 = ORIENTED_EDGE ( 'NONE', *, *, #196, .F. ) ;
#206 = PERSON_AND_ORGANIZATION ( #133, #322 ) ;
#207 = CARTESIAN_POINT ( 'NONE',  ( 1.836970198721029589E-15, 0.000000000000000000, 15.00000000000000000 ) ) ;
#208 = DIRECTION ( 'NONE',  ( 1.000000000000000000, 0.000000000000000000, 0.000000000000000000 ) ) ;
#209 = CC_DESIGN_PERSON_AND_ORGANIZATION_ASSIGNMENT ( #206, #212, ( #274 ) ) ;
#210 = CARTESIAN_POINT ( 'NONE',  ( 0.000000000000000000, 55.00000000000000000, 0.000000000000000000 ) ) ;
#211 = LOCAL_TIME ( 14, 24, 3.000000000000000000, #153 ) ;
#212 = PERSON_AND_ORGANIZATION_ROLE ( 'creator' ) ;
#213 = ORIENTED_EDGE ( 'NONE', *, *, #42, .F. ) ;
#214 = ORIENTED_EDGE ( 'NONE', *, *, #249, .F. ) ;
#215 = CARTESIAN_POINT ( 'NONE',  ( 0.000000000000000000, 65.00000000000000000, 0.000000000000000000 ) ) ;
#216 = APPLICATION_CONTEXT ( 'configuration controlled 3d designs of mechanical parts and assemblies' ) ;
#217 = CIRCLE ( 'NONE', #94, 3.000000000000000444 ) ;
#218 = DIRECTION ( 'NONE',  ( -0.000000000000000000, -1.000000000000000000, -0.000000000000000000 ) ) ;
#219 = EDGE_CURVE ( 'NONE', #11, #291, #112, .T. ) ;
#220 = DIRECTION ( 'NONE',  ( -0.000000000000000000, -1.000000000000000000, -0.000000000000000000 ) ) ;
#221 = AXIS2_PLACEMENT_3D ( 'NONE', #162, #38, #106 ) ;
#222 = AXIS2_PLACEMENT_3D ( 'NONE', #215, #321, #188 ) ;
#223 = LINE ( 'NONE', #164, #298 ) ;
#224 = DIRECTION ( 'NONE',  ( -0.000000000000000000, -1.000000000000000000, -0.000000000000000000 ) ) ;
#225 = DIRECTION ( 'NONE',  ( 0.000000000000000000, 1.000000000000000000, 0.000000000000000000 ) ) ;
#226 = VERTEX_POINT ( 'NONE', #251 ) ;
#227 = CARTESIAN_POINT ( 'NONE',  ( 1.224646799147353207E-16, 55.00000000000000000, 1.000000000000000000 ) ) ;
#228 = APPROVAL_PERSON_ORGANIZATION ( #125, #118, #269 ) ;
#229 = CARTESIAN_POINT ( 'NONE',  ( 0.000000000000000000, 55.00000000000000000, -1.000000000000000000 ) ) ;
#230 = CARTESIAN_POINT ( 'NONE',  ( 0.000000000000000000, 10.00000000000000000, 0.000000000000000000 ) ) ;
#231 = ADVANCED_FACE ( 'NONE', ( #174 ), #253, .F. ) ;
#232 = ORIENTED_EDGE ( 'NONE', *, *, #283, .F. ) ;
#233 = PERSON_AND_ORGANIZATION ( #133, #322 ) ;
#234 = VERTEX_POINT ( 'NONE', #67 ) ;
#235 = ORIENTED_EDGE ( 'NONE', *, *, #92, .F. ) ;
#236 = ADVANCED_FACE ( 'NONE', ( #23 ), #333, .T. ) ;
#237 = DATE_AND_TIME ( #179, #241 ) ;
#238 = VERTEX_POINT ( 'NONE', #227 ) ;
#239 = COORDINATED_UNIVERSAL_TIME_OFFSET ( 3, 30, .AHEAD. ) ;
#240 = EDGE_LOOP ( 'NONE', ( #213, #144, #80, #158 ) ) ;
#241 = LOCAL_TIME ( 14, 24, 3.000000000000000000, #239 ) ;
#242 = CC_DESIGN_APPROVAL ( #17, ( #284 ) ) ;
#243 = APPROVAL_STATUS ( 'not_yet_approved' ) ;
#244 = DIRECTION ( 'NONE',  ( 0.000000000000000000, 0.000000000000000000, 1.000000000000000000 ) ) ;
#245 = CARTESIAN_POINT ( 'NONE',  ( 0.000000000000000000, 65.00000000000000000, -1.000000000000000000 ) ) ;
#246 = AXIS2_PLACEMENT_3D ( 'NONE', #230, #254, #281 ) ;
#247 = CC_DESIGN_SECURITY_CLASSIFICATION ( #284, ( #274 ) ) ;
#248 = LINE ( 'NONE', #109, #271 ) ;
#249 = EDGE_CURVE ( 'NONE', #234, #57, #217, .T. ) ;
#250 = CARTESIAN_POINT ( 'NONE',  ( 0.000000000000000000, 0.000000000000000000, 0.000000000000000000 ) ) ;
#251 = CARTESIAN_POINT ( 'NONE',  ( 0.000000000000000000, 10.00000000000000000, -15.00000000000000000 ) ) ;
#252 = AXIS2_PLACEMENT_3D ( 'NONE', #65, #87, #160 ) ;
#253 = PLANE ( 'NONE',  #309 ) ;
#254 = DIRECTION ( 'NONE',  ( -0.000000000000000000, -1.000000000000000000, -0.000000000000000000 ) ) ;
#255 = DIRECTION ( 'NONE',  ( 0.000000000000000000, 0.000000000000000000, 1.000000000000000000 ) ) ;
#256 = VECTOR ( 'NONE', #220, 1000.000000000000000 ) ;
#257 = ADVANCED_FACE ( 'NONE', ( #119 ), #331, .T. ) ;
#258 = FACE_BOUND ( 'NONE', #81, .T. ) ;
#259 = EDGE_LOOP ( 'NONE', ( #232, #286, #185, #235 ) ) ;
#260 = SECURITY_CLASSIFICATION_LEVEL ( 'unclassified' ) ;
#261 = EDGE_LOOP ( 'NONE', ( #312, #100 ) ) ;
#262 = ORIENTED_EDGE ( 'NONE', *, *, #131, .F. ) ;
#263 = AXIS2_PLACEMENT_3D ( 'NONE', #250, #276, #43 ) ;
#264 = EDGE_CURVE ( 'NONE', #77, #11, #89, .T. ) ;
#265 = APPROVAL_DATE_TIME ( #49, #118 ) ;
#266 = PLANE ( 'NONE',  #18 ) ;
#267 = APPROVAL_STATUS ( 'not_yet_approved' ) ;
#268 = ORIENTED_EDGE ( 'NONE', *, *, #55, .T. ) ;
#269 = APPROVAL_ROLE ( '' ) ;
#270 = DIRECTION ( 'NONE',  ( 0.000000000000000000, 1.000000000000000000, 0.000000000000000000 ) ) ;
#271 = VECTOR ( 'NONE', #218, 1000.000000000000000 ) ;
#272 = FACE_OUTER_BOUND ( 'NONE', #58, .T. ) ;
#273 = ADVANCED_FACE ( 'NONE', ( #91 ), #167, .T. ) ;
#274 = PRODUCT_DEFINITION_FORMATION_WITH_SPECIFIED_SOURCE ( 'ANY', '', #173, .NOT_KNOWN. ) ;
#275 = DIRECTION ( 'NONE',  ( -0.000000000000000000, -1.000000000000000000, -0.000000000000000000 ) ) ;
#276 = DIRECTION ( 'NONE',  ( 0.000000000000000000, 1.000000000000000000, 0.000000000000000000 ) ) ;
#277 = CARTESIAN_POINT ( 'NONE',  ( 0.000000000000000000, 10.00000000000000000, 0.000000000000000000 ) ) ;
#278 =( GEOMETRIC_REPRESENTATION_CONTEXT ( 3 ) GLOBAL_UNCERTAINTY_ASSIGNED_CONTEXT ( ( #202 ) ) GLOBAL_UNIT_ASSIGNED_CONTEXT ( ( #116, #172, #201 ) ) REPRESENTATION_CONTEXT ( 'NONE', 'WORKASPACE' ) );
#279 = DIRECTION ( 'NONE',  ( 0.000000000000000000, -0.000000000000000000, 1.000000000000000000 ) ) ;
#280 = ORIENTED_EDGE ( 'NONE', *, *, #264, .F. ) ;
#281 = DIRECTION ( 'NONE',  ( 0.000000000000000000, 0.000000000000000000, -1.000000000000000000 ) ) ;
#282 = CARTESIAN_POINT ( 'NONE',  ( 0.000000000000000000, 10.00000000000000000, 0.000000000000000000 ) ) ;
#283 = EDGE_CURVE ( 'NONE', #122, #124, #52, .T. ) ;
#284 = SECURITY_CLASSIFICATION ( '', '', #260 ) ;
#285 = CALENDAR_DATE ( 2025, 8, 11 ) ;
#286 = ORIENTED_EDGE ( 'NONE', *, *, #42, .T. ) ;
#287 = EDGE_LOOP ( 'NONE', ( #149, #180, #199, #305 ) ) ;
#288 = CIRCLE ( 'NONE', #327, 3.000000000000000444 ) ;
#289 = PERSON_AND_ORGANIZATION_ROLE ( 'creator' ) ;
#290 = EDGE_LOOP ( 'NONE', ( #78, #205, #268, #182 ) ) ;
#291 = VERTEX_POINT ( 'NONE', #200 ) ;
#292 = ADVANCED_FACE ( 'NONE', ( #308 ), #306, .T. ) ;
#293 = ORIENTED_EDGE ( 'NONE', *, *, #283, .T. ) ;
#294 = CARTESIAN_POINT ( 'NONE',  ( 0.000000000000000000, 10.00000000000000000, 0.000000000000000000 ) ) ;
#295 = CC_DESIGN_PERSON_AND_ORGANIZATION_ASSIGNMENT ( #53, #10, ( #173 ) ) ;
#296 = CARTESIAN_POINT ( 'NONE',  ( 1.224646799147353207E-16, 65.00000000000000000, 1.000000000000000000 ) ) ;
#297 = CARTESIAN_POINT ( 'NONE',  ( 0.000000000000000000, 65.00000000000000000, 0.000000000000000000 ) ) ;
#298 = VECTOR ( 'NONE', #161, 1000.000000000000000 ) ;
#299 = DIRECTION ( 'NONE',  ( -0.000000000000000000, -1.000000000000000000, -0.000000000000000000 ) ) ;
#300 = CARTESIAN_POINT ( 'NONE',  ( 1.836970198721029589E-15, 10.00000000000000000, 15.00000000000000000 ) ) ;
#301 = PLANE ( 'NONE',  #335 ) ;
#302 = VECTOR ( 'NONE', #19, 1000.000000000000000 ) ;
#303 = APPROVAL_PERSON_ORGANIZATION ( #204, #17, #203 ) ;
#304 = CARTESIAN_POINT ( 'NONE',  ( 0.000000000000000000, 0.000000000000000000, 0.000000000000000000 ) ) ;
#305 = ORIENTED_EDGE ( 'NONE', *, *, #55, .F. ) ;
#306 = CYLINDRICAL_SURFACE ( 'NONE', #9, 1.000000000000000000 ) ;
#307 = EDGE_CURVE ( 'NONE', #291, #11, #129, .T. ) ;
#308 = FACE_OUTER_BOUND ( 'NONE', #259, .T. ) ;
#309 = AXIS2_PLACEMENT_3D ( 'NONE', #304, #44, #279 ) ;
#310 = DIRECTION ( 'NONE',  ( 0.000000000000000000, 0.000000000000000000, 1.000000000000000000 ) ) ;
#311 = LOCAL_TIME ( 14, 24, 3.000000000000000000, #25 ) ;
#312 = ORIENTED_EDGE ( 'NONE', *, *, #196, .T. ) ;
#313 = PERSON_AND_ORGANIZATION ( #133, #322 ) ;
#314 = ORIENTED_EDGE ( 'NONE', *, *, #171, .T. ) ;
#315 = VERTEX_POINT ( 'NONE', #229 ) ;
#316 = AXIS2_PLACEMENT_3D ( 'NONE', #128, #184, #98 ) ;
#317 = PERSON_AND_ORGANIZATION ( #133, #322 ) ;
#318 = EDGE_LOOP ( 'NONE', ( #280, #262, #314, #74 ) ) ;
#319 = CC_DESIGN_PERSON_AND_ORGANIZATION_ASSIGNMENT ( #148, #177, ( #284 ) ) ;
#320 = ORIENTED_EDGE ( 'NONE', *, *, #7, .F. ) ;
#321 = DIRECTION ( 'NONE',  ( 0.000000000000000000, 1.000000000000000000, 0.000000000000000000 ) ) ;
#322 = ORGANIZATION ( 'UNSPECIFIED', 'UNSPECIFIED', '' ) ;
#323 = ADVANCED_FACE ( 'NONE', ( #258, #88 ), #301, .T. ) ;
#324 = DIRECTION ( 'NONE',  ( -0.000000000000000000, -1.000000000000000000, -0.000000000000000000 ) ) ;
#325 = LINE ( 'NONE', #110, #163 ) ;
#326 = CARTESIAN_POINT ( 'NONE',  ( 1.224646799147353207E-16, 65.00000000000000000, 1.000000000000000000 ) ) ;
#327 = AXIS2_PLACEMENT_3D ( 'NONE', #192, #165, #138 ) ;
#328 = DIRECTION ( 'NONE',  ( 0.000000000000000000, 0.000000000000000000, 1.000000000000000000 ) ) ;
#329 = DIRECTION ( 'NONE',  ( 0.000000000000000000, -0.000000000000000000, 1.000000000000000000 ) ) ;
#330 = EDGE_CURVE ( 'NONE', #57, #234, #191, .T. ) ;
#331 = CYLINDRICAL_SURFACE ( 'NONE', #159, 15.00000000000000000 ) ;
#332 = DIRECTION ( 'NONE',  ( 0.000000000000000000, 1.000000000000000000, 0.000000000000000000 ) ) ;
#333 = CYLINDRICAL_SURFACE ( 'NONE', #147, 3.000000000000000444 ) ;
#334 = ORIENTED_EDGE ( 'NONE', *, *, #7, .T. ) ;
#335 = AXIS2_PLACEMENT_3D ( 'NONE', #47, #114, #329 ) ;
ENDSEC;
END-ISO-10303-21;
