ISO-10303-21;
HEADER;
FILE_DESCRIPTION (( 'STEP AP203' ),
    '1' );
FILE_NAME ('Part2.STEP',
    '2025-11-08T10:55:07',
    ( '' ),
    ( '' ),
    'SwSTEP 2.0',
    'SolidWorks 2022',
    '' );
FILE_SCHEMA (( 'CONFIG_CONTROL_DESIGN' ));
ENDSEC;

DATA;
#1 = DIRECTION ( 'NONE',  ( 0.000000000000000000, 0.000000000000000000, 1.000000000000000000 ) ) ;
#2 = AXIS2_PLACEMENT_3D ( 'NONE', #55, #91, #51 ) ;
#3 = PRODUCT_DEFINITION_FORMATION_WITH_SPECIFIED_SOURCE ( 'ANY', '', #258, .NOT_KNOWN. ) ;
#4 = DIRECTION ( 'NONE',  ( 1.000000000000000000, -0.000000000000000000, 0.000000000000000000 ) ) ;
#5 = EDGE_LOOP ( 'NONE', ( #59, #33 ) ) ;
#6 = APPROVAL_STATUS ( 'not_yet_approved' ) ;
#7 = LINE ( 'NONE', #23, #324 ) ;
#8 = CIRCLE ( 'NONE', #383, 1.000000000000000000 ) ;
#9 = ORIENTED_EDGE ( 'NONE', *, *, #206, .T. ) ;
#10 = DIRECTION ( 'NONE',  ( 0.000000000000000000, 0.000000000000000000, 1.000000000000000000 ) ) ;
#11 = ORIENTED_EDGE ( 'NONE', *, *, #361, .T. ) ;
#12 = EDGE_CURVE ( 'NONE', #362, #81, #45, .T. ) ;
#13 = CALENDAR_DATE ( 2025, 8, 11 ) ;
#14 = CARTESIAN_POINT ( 'NONE',  ( 1.224646799147353207E-16, 10.00000000000000000, 1.000000000000000000 ) ) ;
#15 = VECTOR ( 'NONE', #96, 1000.000000000000000 ) ;
#16 = DIRECTION ( 'NONE',  ( 0.000000000000000000, 0.000000000000000000, 1.000000000000000000 ) ) ;
#17 = DIRECTION ( 'NONE',  ( 0.000000000000000000, 1.000000000000000000, -0.000000000000000000 ) ) ;
#18 = EDGE_CURVE ( 'NONE', #144, #362, #282, .T. ) ;
#19 = DIRECTION ( 'NONE',  ( 0.000000000000000000, 0.000000000000000000, 1.000000000000000000 ) ) ;
#20 = CC_DESIGN_PERSON_AND_ORGANIZATION_ASSIGNMENT ( #195, #346, ( #3 ) ) ;
#21 = VECTOR ( 'NONE', #261, 1000.000000000000000 ) ;
#22 = LOCAL_TIME ( 14, 25, 7.000000000000000000, #70 ) ;
#23 = CARTESIAN_POINT ( 'NONE',  ( 45.00000000000000000, 10.00000000000000000, -3.000000000000000888 ) ) ;
#24 = ORIENTED_EDGE ( 'NONE', *, *, #371, .F. ) ;
#25 = DIRECTION ( 'NONE',  ( 0.000000000000000000, 0.000000000000000000, -1.000000000000000000 ) ) ;
#26 = EDGE_LOOP ( 'NONE', ( #61, #345, #181, #129 ) ) ;
#27 = ADVANCED_FACE ( 'NONE', ( #347 ), #315, .F. ) ;
#28 = CYLINDRICAL_SURFACE ( 'NONE', #132, 3.000000000000001332 ) ;
#29 = ADVANCED_FACE ( 'NONE', ( #139 ), #253, .T. ) ;
#30 = ORIENTED_EDGE ( 'NONE', *, *, #69, .F. ) ;
#31 = AXIS2_PLACEMENT_3D ( 'NONE', #310, #380, #10 ) ;
#32 = PERSON_AND_ORGANIZATION_ROLE ( 'design_owner' ) ;
#33 = ORIENTED_EDGE ( 'NONE', *, *, #206, .F. ) ;
#34 = ORIENTED_EDGE ( 'NONE', *, *, #348, .F. ) ;
#35 = VECTOR ( 'NONE', #377, 1000.000000000000000 ) ;
#36 = DIRECTION ( 'NONE',  ( 0.000000000000000000, 0.000000000000000000, -1.000000000000000000 ) ) ;
#37 = DATE_TIME_ROLE ( 'classification_date' ) ;
#38 = CARTESIAN_POINT ( 'NONE',  ( 45.00000000000000000, 10.00000000000000000, 0.000000000000000000 ) ) ;
#39 = PERSON_AND_ORGANIZATION ( #74, #318 ) ;
#40 = DIRECTION ( 'NONE',  ( 0.000000000000000000, 0.000000000000000000, -1.000000000000000000 ) ) ;
#41 = CIRCLE ( 'NONE', #2, 3.000000000000000444 ) ;
#42 = CARTESIAN_POINT ( 'NONE',  ( 45.00000000000000000, 10.00000000000000000, 0.000000000000000000 ) ) ;
#43 = EDGE_CURVE ( 'NONE', #328, #200, #286, .T. ) ;
#44 = SHAPE_DEFINITION_REPRESENTATION ( #316, #120 ) ;
#45 = LINE ( 'NONE', #165, #367 ) ;
#46 = APPROVAL_ROLE ( '' ) ;
#47 = ORIENTED_EDGE ( 'NONE', *, *, #348, .T. ) ;
#48 = DIRECTION ( 'NONE',  ( 0.000000000000000000, 0.000000000000000000, 1.000000000000000000 ) ) ;
#49 = CARTESIAN_POINT ( 'NONE',  ( 45.00000000000000000, 10.00000000000000000, 3.000000000000000888 ) ) ;
#50 = CC_DESIGN_PERSON_AND_ORGANIZATION_ASSIGNMENT ( #60, #32, ( #258 ) ) ;
#51 = DIRECTION ( 'NONE',  ( 0.000000000000000000, 0.000000000000000000, 1.000000000000000000 ) ) ;
#52 = ORIENTED_EDGE ( 'NONE', *, *, #43, .F. ) ;
#53 = AXIS2_PLACEMENT_3D ( 'NONE', #73, #252, #254 ) ;
#54 = LOCAL_TIME ( 14, 25, 7.000000000000000000, #309 ) ;
#55 = CARTESIAN_POINT ( 'NONE',  ( 0.000000000000000000, 10.00000000000000000, 0.000000000000000000 ) ) ;
#56 = ADVANCED_FACE ( 'NONE', ( #231 ), #111, .T. ) ;
#57 = VERTEX_POINT ( 'NONE', #202 ) ;
#58 = CARTESIAN_POINT ( 'NONE',  ( 45.00000000000000000, 19.99999999999999645, 0.000000000000000000 ) ) ;
#59 = ORIENTED_EDGE ( 'NONE', *, *, #110, .F. ) ;
#60 = PERSON_AND_ORGANIZATION ( #74, #318 ) ;
#61 = ORIENTED_EDGE ( 'NONE', *, *, #64, .T. ) ;
#62 = AXIS2_PLACEMENT_3D ( 'NONE', #370, #190, #249 ) ;
#63 = LINE ( 'NONE', #248, #15 ) ;
#64 = EDGE_CURVE ( 'NONE', #240, #94, #191, .T. ) ;
#65 = CARTESIAN_POINT ( 'NONE',  ( 0.000000000000000000, 0.000000000000000000, 3.000000000000000444 ) ) ;
#66 = DIRECTION ( 'NONE',  ( 0.000000000000000000, 0.000000000000000000, 1.000000000000000000 ) ) ;
#67 = VECTOR ( 'NONE', #4, 1000.000000000000000 ) ;
#68 = EDGE_CURVE ( 'NONE', #144, #57, #381, .T. ) ;
#69 = EDGE_CURVE ( 'NONE', #57, #81, #275, .T. ) ;
#70 = COORDINATED_UNIVERSAL_TIME_OFFSET ( 3, 30, .AHEAD. ) ;
#71 = DIRECTION ( 'NONE',  ( 1.000000000000000000, -0.000000000000000000, 0.000000000000000000 ) ) ;
#72 = APPROVAL_DATE_TIME ( #274, #273 ) ;
#73 = CARTESIAN_POINT ( 'NONE',  ( 0.000000000000000000, 10.00000000000000000, 3.000000000000000444 ) ) ;
#74 = PERSON ( 'UNSPECIFIED', 'UNSPECIFIED', 'UNSPECIFIED', ('UNSPECIFIED'), ('UNSPECIFIED'), ('UNSPECIFIED') ) ;
#75 = PERSON_AND_ORGANIZATION_ROLE ( 'classification_officer' ) ;
#76 = DIRECTION ( 'NONE',  ( 0.000000000000000000, 1.000000000000000000, -0.000000000000000000 ) ) ;
#77 = VECTOR ( 'NONE', #71, 1000.000000000000000 ) ;
#78 = LOCAL_TIME ( 14, 25, 7.000000000000000000, #79 ) ;
#79 = COORDINATED_UNIVERSAL_TIME_OFFSET ( 3, 30, .AHEAD. ) ;
#80 = ORIENTED_EDGE ( 'NONE', *, *, #104, .T. ) ;
#81 = VERTEX_POINT ( 'NONE', #257 ) ;
#82 = DIRECTION ( 'NONE',  ( 1.000000000000000000, -0.000000000000000000, 0.000000000000000000 ) ) ;
#83 = EDGE_CURVE ( 'NONE', #138, #210, #197, .T. ) ;
#84 = ADVANCED_FACE ( 'NONE', ( #114 ), #317, .F. ) ;
#85 = FACE_OUTER_BOUND ( 'NONE', #386, .T. ) ;
#86 = DIRECTION ( 'NONE',  ( 0.000000000000000000, 0.000000000000000000, 1.000000000000000000 ) ) ;
#87 = DIRECTION ( 'NONE',  ( -0.000000000000000000, -1.000000000000000000, -0.000000000000000000 ) ) ;
#88 = EDGE_CURVE ( 'NONE', #323, #210, #222, .T. ) ;
#89 = EDGE_LOOP ( 'NONE', ( #97, #179, #271, #242 ) ) ;
#90 = CIRCLE ( 'NONE', #307, 3.000000000000000444 ) ;
#91 = DIRECTION ( 'NONE',  ( 0.000000000000000000, 1.000000000000000000, -0.000000000000000000 ) ) ;
#92 = EDGE_LOOP ( 'NONE', ( #311, #266 ) ) ;
#93 = CARTESIAN_POINT ( 'NONE',  ( 0.000000000000000000, 10.00000000000000000, 3.000000000000000444 ) ) ;
#94 = VERTEX_POINT ( 'NONE', #194 ) ;
#95 = EDGE_CURVE ( 'NONE', #81, #57, #115, .T. ) ;
#96 = DIRECTION ( 'NONE',  ( 1.000000000000000000, -0.000000000000000000, 0.000000000000000000 ) ) ;
#97 = ORIENTED_EDGE ( 'NONE', *, *, #363, .T. ) ;
#98 = CIRCLE ( 'NONE', #389, 1.000000000000000000 ) ;
#99 = PRODUCT_DEFINITION ( 'UNKNOWN', '', #3, #103 ) ;
#100 =( NAMED_UNIT ( * ) PLANE_ANGLE_UNIT ( ) SI_UNIT ( $, .RADIAN. ) );
#101 = APPLICATION_CONTEXT ( 'configuration controlled 3d designs of mechanical parts and assemblies' ) ;
#102 =( LENGTH_UNIT ( ) NAMED_UNIT ( * ) SI_UNIT ( .MILLI., .METRE. ) );
#103 = DESIGN_CONTEXT ( 'detailed design', #101, 'design' ) ;
#104 = EDGE_CURVE ( 'NONE', #210, #94, #7, .T. ) ;
#105 = ADVANCED_FACE ( 'NONE', ( #235, #354, #349 ), #267, .T. ) ;
#106 = VECTOR ( 'NONE', #290, 1000.000000000000000 ) ;
#107 = ORIENTED_EDGE ( 'NONE', *, *, #162, .F. ) ;
#108 = EDGE_LOOP ( 'NONE', ( #183, #30 ) ) ;
#109 = PERSON_AND_ORGANIZATION ( #74, #318 ) ;
#110 = EDGE_CURVE ( 'NONE', #155, #328, #98, .T. ) ;
#111 = PLANE ( 'NONE',  #368 ) ;
#112 = APPROVAL_DATE_TIME ( #117, #376 ) ;
#113 = ADVANCED_FACE ( 'NONE', ( #205 ), #145, .T. ) ;
#114 = FACE_OUTER_BOUND ( 'NONE', #294, .T. ) ;
#115 = CIRCLE ( 'NONE', #350, 0.9999999999999981126 ) ;
#116 = APPROVAL_PERSON_ORGANIZATION ( #109, #201, #46 ) ;
#117 = DATE_AND_TIME ( #374, #276 ) ;
#118 = DIRECTION ( 'NONE',  ( -0.000000000000000000, -1.000000000000000000, -0.000000000000000000 ) ) ;
#119 = CARTESIAN_POINT ( 'NONE',  ( 0.000000000000000000, 10.00000000000000000, 0.000000000000000000 ) ) ;
#120 = ADVANCED_BREP_SHAPE_REPRESENTATION ( 'Part2', ( #243, #335 ), #216 ) ;
#121 = CARTESIAN_POINT ( 'NONE',  ( 0.000000000000000000, 10.00000000000000000, 3.000000000000000444 ) ) ;
#122 = CARTESIAN_POINT ( 'NONE',  ( 45.00000000000000000, 10.00000000000000000, -3.000000000000000888 ) ) ;
#123 = DIRECTION ( 'NONE',  ( -0.000000000000000000, -1.000000000000000000, -0.000000000000000000 ) ) ;
#124 = ORIENTED_EDGE ( 'NONE', *, *, #312, .T. ) ;
#125 = FACE_OUTER_BOUND ( 'NONE', #92, .T. ) ;
#126 = ORIENTED_EDGE ( 'NONE', *, *, #68, .T. ) ;
#127 = ORIENTED_EDGE ( 'NONE', *, *, #18, .F. ) ;
#128 = CARTESIAN_POINT ( 'NONE',  ( 45.00000000000000000, 10.00000000000000000, 0.000000000000000000 ) ) ;
#129 = ORIENTED_EDGE ( 'NONE', *, *, #171, .T. ) ;
#130 = CC_DESIGN_DATE_AND_TIME_ASSIGNMENT ( #256, #167, ( #99 ) ) ;
#131 = DIRECTION ( 'NONE',  ( -0.000000000000000000, -1.000000000000000000, -0.000000000000000000 ) ) ;
#132 = AXIS2_PLACEMENT_3D ( 'NONE', #128, #131, #36 ) ;
#133 = CARTESIAN_POINT ( 'NONE',  ( 0.000000000000000000, 10.00000000000000000, -3.000000000000000444 ) ) ;
#134 = PLANE ( 'NONE',  #143 ) ;
#135 = EDGE_CURVE ( 'NONE', #155, #388, #150, .T. ) ;
#136 = EDGE_LOOP ( 'NONE', ( #153, #11, #330, #250 ) ) ;
#137 = AXIS2_PLACEMENT_3D ( 'NONE', #260, #148, #19 ) ;
#138 = VERTEX_POINT ( 'NONE', #49 ) ;
#139 = FACE_OUTER_BOUND ( 'NONE', #149, .T. ) ;
#140 = SECURITY_CLASSIFICATION_LEVEL ( 'unclassified' ) ;
#141 = DIRECTION ( 'NONE',  ( 0.000000000000000000, 1.000000000000000000, 0.000000000000000000 ) ) ;
#142 = DIRECTION ( 'NONE',  ( -0.000000000000000000, -1.000000000000000000, -0.000000000000000000 ) ) ;
#143 = AXIS2_PLACEMENT_3D ( 'NONE', #219, #366, #1 ) ;
#144 = VERTEX_POINT ( 'NONE', #208 ) ;
#145 = CYLINDRICAL_SURFACE ( 'NONE', #313, 3.000000000000000444 ) ;
#146 = DIRECTION ( 'NONE',  ( 0.000000000000000000, 1.000000000000000000, -0.000000000000000000 ) ) ;
#147 = VECTOR ( 'NONE', #82, 1000.000000000000000 ) ;
#148 = DIRECTION ( 'NONE',  ( 0.000000000000000000, 1.000000000000000000, 0.000000000000000000 ) ) ;
#149 = EDGE_LOOP ( 'NONE', ( #372, #392, #355, #287 ) ) ;
#150 = LINE ( 'NONE', #321, #220 ) ;
#151 = VERTEX_POINT ( 'NONE', #175 ) ;
#152 = CARTESIAN_POINT ( 'NONE',  ( 45.00000000000000000, 10.00000000000000000, 3.000000000000000888 ) ) ;
#153 = ORIENTED_EDGE ( 'NONE', *, *, #170, .T. ) ;
#154 = APPROVAL_PERSON_ORGANIZATION ( #156, #273, #272 ) ;
#155 = VERTEX_POINT ( 'NONE', #236 ) ;
#156 = PERSON_AND_ORGANIZATION ( #74, #318 ) ;
#157 = CIRCLE ( 'NONE', #137, 0.9999999999999981126 ) ;
#158 = CARTESIAN_POINT ( 'NONE',  ( 0.000000000000000000, 10.00000000000000000, 0.000000000000000000 ) ) ;
#159 = ORIENTED_EDGE ( 'NONE', *, *, #278, .T. ) ;
#160 = PERSON_AND_ORGANIZATION_ROLE ( 'creator' ) ;
#161 = DIRECTION ( 'NONE',  ( 0.000000000000000000, 1.000000000000000000, -0.000000000000000000 ) ) ;
#162 = EDGE_CURVE ( 'NONE', #394, #151, #325, .T. ) ;
#163 = CALENDAR_DATE ( 2025, 8, 11 ) ;
#164 = AXIS2_PLACEMENT_3D ( 'NONE', #341, #76, #198 ) ;
#165 = CARTESIAN_POINT ( 'NONE',  ( 45.00000000000000000, 19.99999999999999645, -0.9999999999999981126 ) ) ;
#166 = CC_DESIGN_DATE_AND_TIME_ASSIGNMENT ( #230, #37, ( #178 ) ) ;
#167 = DATE_TIME_ROLE ( 'creation_date' ) ;
#168 = ORIENTED_EDGE ( 'NONE', *, *, #64, .F. ) ;
#169 = CARTESIAN_POINT ( 'NONE',  ( 45.00000000000000000, 19.99999999999999645, 0.000000000000000000 ) ) ;
#170 = EDGE_CURVE ( 'NONE', #323, #394, #41, .T. ) ;
#171 = EDGE_CURVE ( 'NONE', #138, #240, #232, .T. ) ;
#172 = DIRECTION ( 'NONE',  ( 0.000000000000000000, 0.000000000000000000, -1.000000000000000000 ) ) ;
#173 = AXIS2_PLACEMENT_3D ( 'NONE', #158, #329, #333 ) ;
#174 = DIRECTION ( 'NONE',  ( 0.000000000000000000, 1.000000000000000000, 0.000000000000000000 ) ) ;
#175 = CARTESIAN_POINT ( 'NONE',  ( 0.000000000000000000, 0.000000000000000000, 3.000000000000000444 ) ) ;
#176 = EDGE_CURVE ( 'NONE', #362, #144, #157, .T. ) ;
#177 = CARTESIAN_POINT ( 'NONE',  ( 0.000000000000000000, 10.00000000000000000, 0.000000000000000000 ) ) ;
#178 = SECURITY_CLASSIFICATION ( '', '', #140 ) ;
#179 = ORIENTED_EDGE ( 'NONE', *, *, #171, .F. ) ;
#180 = LINE ( 'NONE', #384, #147 ) ;
#181 = ORIENTED_EDGE ( 'NONE', *, *, #83, .F. ) ;
#182 = LINE ( 'NONE', #263, #291 ) ;
#183 = ORIENTED_EDGE ( 'NONE', *, *, #95, .F. ) ;
#184 = EDGE_CURVE ( 'NONE', #212, #94, #180, .T. ) ;
#185 =( NAMED_UNIT ( * ) SI_UNIT ( $, .STERADIAN. ) SOLID_ANGLE_UNIT ( ) );
#186 = ORIENTED_EDGE ( 'NONE', *, *, #184, .T. ) ;
#187 = AXIS2_PLACEMENT_3D ( 'NONE', #177, #320, #48 ) ;
#188 = LINE ( 'NONE', #65, #67 ) ;
#189 = EDGE_LOOP ( 'NONE', ( #34, #186, #168, #213 ) ) ;
#190 = DIRECTION ( 'NONE',  ( 0.000000000000000000, 1.000000000000000000, -0.000000000000000000 ) ) ;
#191 = CIRCLE ( 'NONE', #164, 3.000000000000001332 ) ;
#192 = CARTESIAN_POINT ( 'NONE',  ( 0.000000000000000000, 0.000000000000000000, -1.000000000000000000 ) ) ;
#193 = PERSON_AND_ORGANIZATION_ROLE ( 'design_supplier' ) ;
#194 = CARTESIAN_POINT ( 'NONE',  ( 45.00000000000000000, 0.000000000000000000, -3.000000000000000888 ) ) ;
#195 = PERSON_AND_ORGANIZATION ( #74, #318 ) ;
#196 = CARTESIAN_POINT ( 'NONE',  ( 0.000000000000000000, 10.00000000000000000, -3.000000000000000000 ) ) ;
#197 = CIRCLE ( 'NONE', #31, 3.000000000000001332 ) ;
#198 = DIRECTION ( 'NONE',  ( 0.000000000000000000, 0.000000000000000000, 1.000000000000000000 ) ) ;
#199 = APPROVAL_STATUS ( 'not_yet_approved' ) ;
#200 = VERTEX_POINT ( 'NONE', #387 ) ;
#201 = APPROVAL ( #6, 'UNSPECIFIED' ) ;
#202 = CARTESIAN_POINT ( 'NONE',  ( 45.00000000000000000, 10.00000000000000000, 0.9999999999999981126 ) ) ;
#203 = DIRECTION ( 'NONE',  ( -0.000000000000000000, -1.000000000000000000, -0.000000000000000000 ) ) ;
#204 = AXIS2_PLACEMENT_3D ( 'NONE', #42, #378, #284 ) ;
#205 = FACE_OUTER_BOUND ( 'NONE', #279, .T. ) ;
#206 = EDGE_CURVE ( 'NONE', #328, #155, #379, .T. ) ;
#207 = DIRECTION ( 'NONE',  ( 0.000000000000000000, -0.000000000000000000, 1.000000000000000000 ) ) ;
#208 = CARTESIAN_POINT ( 'NONE',  ( 45.00000000000000000, 19.99999999999999645, 0.9999999999999981126 ) ) ;
#209 = CLOSED_SHELL ( 'NONE', ( #289, #84, #113, #27, #319, #56, #391, #105, #353, #29, #308 ) ) ;
#210 = VERTEX_POINT ( 'NONE', #122 ) ;
#211 = CYLINDRICAL_SURFACE ( 'NONE', #246, 0.9999999999999981126 ) ;
#212 = VERTEX_POINT ( 'NONE', #352 ) ;
#213 = ORIENTED_EDGE ( 'NONE', *, *, #363, .F. ) ;
#214 = DIRECTION ( 'NONE',  ( 0.000000000000000000, 1.000000000000000000, -0.000000000000000000 ) ) ;
#215 = ORIENTED_EDGE ( 'NONE', *, *, #170, .F. ) ;
#216 =( GEOMETRIC_REPRESENTATION_CONTEXT ( 3 ) GLOBAL_UNCERTAINTY_ASSIGNED_CONTEXT ( ( #217 ) ) GLOBAL_UNIT_ASSIGNED_CONTEXT ( ( #102, #100, #185 ) ) REPRESENTATION_CONTEXT ( 'NONE', 'WORKASPACE' ) );
#217 = UNCERTAINTY_MEASURE_WITH_UNIT (LENGTH_MEASURE( 1.000000000000000082E-05 ), #102, 'distance_accuracy_value', 'NONE');
#218 = CARTESIAN_POINT ( 'NONE',  ( 45.00000000000000000, 19.99999999999999645, -0.9999999999999981126 ) ) ;
#219 = CARTESIAN_POINT ( 'NONE',  ( 0.000000000000000000, 0.000000000000000000, 0.000000000000000000 ) ) ;
#220 = VECTOR ( 'NONE', #87, 1000.000000000000000 ) ;
#221 = PERSON_AND_ORGANIZATION ( #74, #318 ) ;
#222 = LINE ( 'NONE', #337, #77 ) ;
#223 = DATE_AND_TIME ( #227, #22 ) ;
#224 = CARTESIAN_POINT ( 'NONE',  ( 45.00000000000000000, 19.99999999999999645, 0.000000000000000000 ) ) ;
#225 = PERSON_AND_ORGANIZATION ( #74, #318 ) ;
#226 = DIRECTION ( 'NONE',  ( -1.000000000000000000, 0.000000000000000000, -0.000000000000000000 ) ) ;
#227 = CALENDAR_DATE ( 2025, 8, 11 ) ;
#228 = APPROVAL_PERSON_ORGANIZATION ( #221, #376, #280 ) ;
#229 = CARTESIAN_POINT ( 'NONE',  ( 0.000000000000000000, 10.00000000000000000, 0.000000000000000000 ) ) ;
#230 = DATE_AND_TIME ( #13, #54 ) ;
#231 = FACE_OUTER_BOUND ( 'NONE', #296, .T. ) ;
#232 = LINE ( 'NONE', #152, #21 ) ;
#233 = CARTESIAN_POINT ( 'NONE',  ( 0.000000000000000000, 0.000000000000000000, 0.000000000000000000 ) ) ;
#234 = CC_DESIGN_PERSON_AND_ORGANIZATION_ASSIGNMENT ( #225, #75, ( #178 ) ) ;
#235 = FACE_BOUND ( 'NONE', #5, .T. ) ;
#236 = CARTESIAN_POINT ( 'NONE',  ( 0.000000000000000000, 10.00000000000000000, -1.000000000000000000 ) ) ;
#237 = ORIENTED_EDGE ( 'NONE', *, *, #278, .F. ) ;
#238 = DIRECTION ( 'NONE',  ( 0.000000000000000000, 0.000000000000000000, 1.000000000000000000 ) ) ;
#239 = AXIS2_PLACEMENT_3D ( 'NONE', #229, #118, #172 ) ;
#240 = VERTEX_POINT ( 'NONE', #295 ) ;
#241 = APPLICATION_PROTOCOL_DEFINITION ( 'international standard', 'config_control_design', 1994, #369 ) ;
#242 = ORIENTED_EDGE ( 'NONE', *, *, #162, .T. ) ;
#243 = MANIFOLD_SOLID_BREP ( 'Boss-Extrude2', #209 ) ;
#244 = ORIENTED_EDGE ( 'NONE', *, *, #88, .T. ) ;
#245 = FACE_BOUND ( 'NONE', #285, .T. ) ;
#246 = AXIS2_PLACEMENT_3D ( 'NONE', #292, #123, #25 ) ;
#247 = CC_DESIGN_APPROVAL ( #201, ( #178 ) ) ;
#248 = CARTESIAN_POINT ( 'NONE',  ( 0.000000000000000000, 10.00000000000000000, 3.000000000000000444 ) ) ;
#249 = DIRECTION ( 'NONE',  ( 0.000000000000000000, 0.000000000000000000, 1.000000000000000000 ) ) ;
#250 = ORIENTED_EDGE ( 'NONE', *, *, #88, .F. ) ;
#251 = AXIS2_PLACEMENT_3D ( 'NONE', #224, #141, #16 ) ;
#252 = DIRECTION ( 'NONE',  ( 0.000000000000000000, 0.000000000000000000, -1.000000000000000000 ) ) ;
#253 = CYLINDRICAL_SURFACE ( 'NONE', #300, 0.9999999999999981126 ) ;
#254 = DIRECTION ( 'NONE',  ( -1.000000000000000000, 0.000000000000000000, -0.000000000000000000 ) ) ;
#255 = AXIS2_PLACEMENT_3D ( 'NONE', #58, #174, #207 ) ;
#256 = DATE_AND_TIME ( #163, #78 ) ;
#257 = CARTESIAN_POINT ( 'NONE',  ( 45.00000000000000000, 10.00000000000000000, -0.9999999999999981126 ) ) ;
#258 = PRODUCT ( 'Part2', 'Part2', '', ( #299 ) ) ;
#259 = DIRECTION ( 'NONE',  ( 0.000000000000000000, 0.000000000000000000, -1.000000000000000000 ) ) ;
#260 = CARTESIAN_POINT ( 'NONE',  ( 45.00000000000000000, 19.99999999999999645, 0.000000000000000000 ) ) ;
#261 = DIRECTION ( 'NONE',  ( -0.000000000000000000, -1.000000000000000000, -0.000000000000000000 ) ) ;
#262 = CC_DESIGN_APPROVAL ( #273, ( #99 ) ) ;
#263 = CARTESIAN_POINT ( 'NONE',  ( 0.000000000000000000, 10.00000000000000000, -3.000000000000000444 ) ) ;
#264 = ORIENTED_EDGE ( 'NONE', *, *, #43, .T. ) ;
#265 = DIRECTION ( 'NONE',  ( 0.000000000000000000, 0.000000000000000000, -1.000000000000000000 ) ) ;
#266 = ORIENTED_EDGE ( 'NONE', *, *, #18, .T. ) ;
#267 = PLANE ( 'NONE',  #356 ) ;
#268 = VECTOR ( 'NONE', #142, 1000.000000000000000 ) ;
#269 = ORIENTED_EDGE ( 'NONE', *, *, #135, .F. ) ;
#270 = APPLICATION_PROTOCOL_DEFINITION ( 'international standard', 'config_control_design', 1994, #101 ) ;
#271 = ORIENTED_EDGE ( 'NONE', *, *, #361, .F. ) ;
#272 = APPROVAL_ROLE ( '' ) ;
#273 = APPROVAL ( #393, 'UNSPECIFIED' ) ;
#274 = DATE_AND_TIME ( #395, #373 ) ;
#275 = CIRCLE ( 'NONE', #204, 0.9999999999999981126 ) ;
#276 = LOCAL_TIME ( 14, 25, 7.000000000000000000, #336 ) ;
#277 = CARTESIAN_POINT ( 'NONE',  ( 0.000000000000000000, 0.000000000000000000, 0.000000000000000000 ) ) ;
#278 = EDGE_CURVE ( 'NONE', #200, #388, #8, .T. ) ;
#279 = EDGE_LOOP ( 'NONE', ( #47, #107, #215, #124 ) ) ;
#280 = APPROVAL_ROLE ( '' ) ;
#281 = DIRECTION ( 'NONE',  ( 0.000000000000000000, 0.000000000000000000, 1.000000000000000000 ) ) ;
#282 = CIRCLE ( 'NONE', #251, 0.9999999999999981126 ) ;
#283 = ORIENTED_EDGE ( 'NONE', *, *, #312, .F. ) ;
#284 = DIRECTION ( 'NONE',  ( 0.000000000000000000, 0.000000000000000000, 1.000000000000000000 ) ) ;
#285 = EDGE_LOOP ( 'NONE', ( #298, #159 ) ) ;
#286 = LINE ( 'NONE', #14, #35 ) ;
#287 = ORIENTED_EDGE ( 'NONE', *, *, #95, .T. ) ;
#288 = CARTESIAN_POINT ( 'NONE',  ( 0.000000000000000000, 10.00000000000000000, 0.000000000000000000 ) ) ;
#289 = ADVANCED_FACE ( 'NONE', ( #85 ), #211, .T. ) ;
#290 = DIRECTION ( 'NONE',  ( -0.000000000000000000, -1.000000000000000000, -0.000000000000000000 ) ) ;
#291 = VECTOR ( 'NONE', #385, 1000.000000000000000 ) ;
#292 = CARTESIAN_POINT ( 'NONE',  ( 45.00000000000000000, 19.99999999999999645, 0.000000000000000000 ) ) ;
#293 = CC_DESIGN_SECURITY_CLASSIFICATION ( #178, ( #3 ) ) ;
#294 = EDGE_LOOP ( 'NONE', ( #304, #264, #24, #269 ) ) ;
#295 = CARTESIAN_POINT ( 'NONE',  ( 45.00000000000000000, 0.000000000000000000, 3.000000000000000888 ) ) ;
#296 = EDGE_LOOP ( 'NONE', ( #332, #283, #244, #80 ) ) ;
#297 = FACE_OUTER_BOUND ( 'NONE', #26, .T. ) ;
#298 = ORIENTED_EDGE ( 'NONE', *, *, #371, .T. ) ;
#299 = MECHANICAL_CONTEXT ( 'NONE', #369, 'mechanical' ) ;
#300 = AXIS2_PLACEMENT_3D ( 'NONE', #169, #375, #259 ) ;
#301 = ORIENTED_EDGE ( 'NONE', *, *, #135, .T. ) ;
#302 = FACE_OUTER_BOUND ( 'NONE', #326, .T. ) ;
#303 = CC_DESIGN_PERSON_AND_ORGANIZATION_ASSIGNMENT ( #339, #193, ( #3 ) ) ;
#304 = ORIENTED_EDGE ( 'NONE', *, *, #110, .T. ) ;
#305 = FACE_OUTER_BOUND ( 'NONE', #189, .T. ) ;
#306 = CYLINDRICAL_SURFACE ( 'NONE', #173, 1.000000000000000000 ) ;
#307 = AXIS2_PLACEMENT_3D ( 'NONE', #277, #214, #331 ) ;
#308 = ADVANCED_FACE ( 'NONE', ( #125 ), #357, .T. ) ;
#309 = COORDINATED_UNIVERSAL_TIME_OFFSET ( 3, 30, .AHEAD. ) ;
#310 = CARTESIAN_POINT ( 'NONE',  ( 45.00000000000000000, 10.00000000000000000, 0.000000000000000000 ) ) ;
#311 = ORIENTED_EDGE ( 'NONE', *, *, #176, .T. ) ;
#312 = EDGE_CURVE ( 'NONE', #323, #212, #182, .T. ) ;
#313 = AXIS2_PLACEMENT_3D ( 'NONE', #288, #203, #265 ) ;
#314 = CARTESIAN_POINT ( 'NONE',  ( 45.00000000000000000, 19.99999999999999645, 0.9999999999999981126 ) ) ;
#315 = PLANE ( 'NONE',  #53 ) ;
#316 = PRODUCT_DEFINITION_SHAPE ( 'NONE', 'NONE',  #99 ) ;
#317 = CYLINDRICAL_SURFACE ( 'NONE', #239, 1.000000000000000000 ) ;
#318 = ORGANIZATION ( 'UNSPECIFIED', 'UNSPECIFIED', '' ) ;
#319 = ADVANCED_FACE ( 'NONE', ( #297 ), #28, .T. ) ;
#320 = DIRECTION ( 'NONE',  ( 0.000000000000000000, 1.000000000000000000, -0.000000000000000000 ) ) ;
#321 = CARTESIAN_POINT ( 'NONE',  ( 0.000000000000000000, 10.00000000000000000, -1.000000000000000000 ) ) ;
#322 = DIRECTION ( 'NONE',  ( 0.000000000000000000, 0.000000000000000000, 1.000000000000000000 ) ) ;
#323 = VERTEX_POINT ( 'NONE', #133 ) ;
#324 = VECTOR ( 'NONE', #382, 1000.000000000000000 ) ;
#325 = LINE ( 'NONE', #121, #106 ) ;
#326 = EDGE_LOOP ( 'NONE', ( #52, #9, #301, #237 ) ) ;
#327 = CARTESIAN_POINT ( 'NONE',  ( 0.000000000000000000, 10.00000000000000000, 0.000000000000000000 ) ) ;
#328 = VERTEX_POINT ( 'NONE', #390 ) ;
#329 = DIRECTION ( 'NONE',  ( -0.000000000000000000, -1.000000000000000000, -0.000000000000000000 ) ) ;
#330 = ORIENTED_EDGE ( 'NONE', *, *, #83, .T. ) ;
#331 = DIRECTION ( 'NONE',  ( 0.000000000000000000, 0.000000000000000000, 1.000000000000000000 ) ) ;
#332 = ORIENTED_EDGE ( 'NONE', *, *, #184, .F. ) ;
#333 = DIRECTION ( 'NONE',  ( 0.000000000000000000, 0.000000000000000000, -1.000000000000000000 ) ) ;
#334 = CARTESIAN_POINT ( 'NONE',  ( 0.000000000000000000, 0.000000000000000000, 0.000000000000000000 ) ) ;
#335 = AXIS2_PLACEMENT_3D ( 'NONE', #334, #66, #359 ) ;
#336 = COORDINATED_UNIVERSAL_TIME_OFFSET ( 3, 30, .AHEAD. ) ;
#337 = CARTESIAN_POINT ( 'NONE',  ( 0.000000000000000000, 10.00000000000000000, -3.000000000000000000 ) ) ;
#338 = DIRECTION ( 'NONE',  ( -0.000000000000000000, -1.000000000000000000, -0.000000000000000000 ) ) ;
#339 = PERSON_AND_ORGANIZATION ( #74, #318 ) ;
#340 = CC_DESIGN_PERSON_AND_ORGANIZATION_ASSIGNMENT ( #39, #160, ( #99 ) ) ;
#341 = CARTESIAN_POINT ( 'NONE',  ( 45.00000000000000000, 0.000000000000000000, 0.000000000000000000 ) ) ;
#342 = CIRCLE ( 'NONE', #62, 1.000000000000000000 ) ;
#343 = CC_DESIGN_APPROVAL ( #376, ( #3 ) ) ;
#344 = APPROVAL_DATE_TIME ( #223, #201 ) ;
#345 = ORIENTED_EDGE ( 'NONE', *, *, #104, .F. ) ;
#346 = PERSON_AND_ORGANIZATION_ROLE ( 'creator' ) ;
#347 = FACE_OUTER_BOUND ( 'NONE', #89, .T. ) ;
#348 = EDGE_CURVE ( 'NONE', #212, #151, #90, .T. ) ;
#349 = FACE_BOUND ( 'NONE', #108, .T. ) ;
#350 = AXIS2_PLACEMENT_3D ( 'NONE', #38, #161, #281 ) ;
#351 = DIRECTION ( 'NONE',  ( 0.000000000000000000, 1.000000000000000000, -0.000000000000000000 ) ) ;
#352 = CARTESIAN_POINT ( 'NONE',  ( 0.000000000000000000, 0.000000000000000000, -3.000000000000000444 ) ) ;
#353 = ADVANCED_FACE ( 'NONE', ( #245, #305 ), #134, .F. ) ;
#354 = FACE_OUTER_BOUND ( 'NONE', #136, .T. ) ;
#355 = ORIENTED_EDGE ( 'NONE', *, *, #12, .T. ) ;
#356 = AXIS2_PLACEMENT_3D ( 'NONE', #119, #146, #322 ) ;
#357 = PLANE ( 'NONE',  #255 ) ;
#358 = ORIENTED_EDGE ( 'NONE', *, *, #12, .F. ) ;
#359 = DIRECTION ( 'NONE',  ( 1.000000000000000000, 0.000000000000000000, 0.000000000000000000 ) ) ;
#360 = PRODUCT_RELATED_PRODUCT_CATEGORY ( 'detail', '', ( #258 ) ) ;
#361 = EDGE_CURVE ( 'NONE', #394, #138, #63, .T. ) ;
#362 = VERTEX_POINT ( 'NONE', #218 ) ;
#363 = EDGE_CURVE ( 'NONE', #151, #240, #188, .T. ) ;
#364 = COORDINATED_UNIVERSAL_TIME_OFFSET ( 3, 30, .AHEAD. ) ;
#365 = ORIENTED_EDGE ( 'NONE', *, *, #69, .T. ) ;
#366 = DIRECTION ( 'NONE',  ( 0.000000000000000000, 1.000000000000000000, -0.000000000000000000 ) ) ;
#367 = VECTOR ( 'NONE', #338, 1000.000000000000000 ) ;
#368 = AXIS2_PLACEMENT_3D ( 'NONE', #196, #40, #226 ) ;
#369 = APPLICATION_CONTEXT ( 'configuration controlled 3d designs of mechanical parts and assemblies' ) ;
#370 = CARTESIAN_POINT ( 'NONE',  ( 0.000000000000000000, 0.000000000000000000, 0.000000000000000000 ) ) ;
#371 = EDGE_CURVE ( 'NONE', #388, #200, #342, .T. ) ;
#372 = ORIENTED_EDGE ( 'NONE', *, *, #68, .F. ) ;
#373 = LOCAL_TIME ( 14, 25, 7.000000000000000000, #364 ) ;
#374 = CALENDAR_DATE ( 2025, 8, 11 ) ;
#375 = DIRECTION ( 'NONE',  ( -0.000000000000000000, -1.000000000000000000, -0.000000000000000000 ) ) ;
#376 = APPROVAL ( #199, 'UNSPECIFIED' ) ;
#377 = DIRECTION ( 'NONE',  ( -0.000000000000000000, -1.000000000000000000, -0.000000000000000000 ) ) ;
#378 = DIRECTION ( 'NONE',  ( 0.000000000000000000, 1.000000000000000000, -0.000000000000000000 ) ) ;
#379 = CIRCLE ( 'NONE', #187, 1.000000000000000000 ) ;
#380 = DIRECTION ( 'NONE',  ( 0.000000000000000000, 1.000000000000000000, -0.000000000000000000 ) ) ;
#381 = LINE ( 'NONE', #314, #268 ) ;
#382 = DIRECTION ( 'NONE',  ( -0.000000000000000000, -1.000000000000000000, -0.000000000000000000 ) ) ;
#383 = AXIS2_PLACEMENT_3D ( 'NONE', #233, #351, #86 ) ;
#384 = CARTESIAN_POINT ( 'NONE',  ( 0.000000000000000000, 0.000000000000000000, -3.000000000000000000 ) ) ;
#385 = DIRECTION ( 'NONE',  ( -0.000000000000000000, -1.000000000000000000, -0.000000000000000000 ) ) ;
#386 = EDGE_LOOP ( 'NONE', ( #127, #126, #365, #358 ) ) ;
#387 = CARTESIAN_POINT ( 'NONE',  ( 1.224646799147353207E-16, 0.000000000000000000, 1.000000000000000000 ) ) ;
#388 = VERTEX_POINT ( 'NONE', #192 ) ;
#389 = AXIS2_PLACEMENT_3D ( 'NONE', #327, #17, #238 ) ;
#390 = CARTESIAN_POINT ( 'NONE',  ( 1.224646799147353207E-16, 10.00000000000000000, 1.000000000000000000 ) ) ;
#391 = ADVANCED_FACE ( 'NONE', ( #302 ), #306, .F. ) ;
#392 = ORIENTED_EDGE ( 'NONE', *, *, #176, .F. ) ;
#393 = APPROVAL_STATUS ( 'not_yet_approved' ) ;
#394 = VERTEX_POINT ( 'NONE', #93 ) ;
#395 = CALENDAR_DATE ( 2025, 8, 11 ) ;
ENDSEC;
END-ISO-10303-21;
