ISO-10303-21;
HEADER;
FILE_DESCRIPTION (( 'STEP AP203' ),
    '1' );
FILE_NAME ('Part4.STEP',
    '2025-11-11T16:56:49',
    ( '' ),
    ( '' ),
    'SwSTEP 2.0',
    'SolidWorks 2024',
    '' );
FILE_SCHEMA (( 'CONFIG_CONTROL_DESIGN' ));
ENDSEC;

DATA;
#1 = CARTESIAN_POINT ( 'NONE',  ( 550.0000000000000000, 0.000000000000000000, 50.00000000000000000 ) ) ;
#2 = EDGE_CURVE ( 'NONE', #145, #33, #237, .T. ) ;
#3 = VECTOR ( 'NONE', #244, 1000.000000000000000 ) ;
#4 = MECHANICAL_CONTEXT ( 'NONE', #57, 'mechanical' ) ;
#5 = FACE_BOUND ( 'NONE', #260, .T. ) ;
#6 = DIRECTION ( 'NONE',  ( 1.000000000000000000, 0.000000000000000000, 0.000000000000000000 ) ) ;
#7 = CARTESIAN_POINT ( 'NONE',  ( 15.00000000000000000, 1.836970198721029589E-15, 100.0000000000000000 ) ) ;
#8 = CC_DESIGN_DATE_AND_TIME_ASSIGNMENT ( #464, #437, ( #23 ) ) ;
#9 = CARTESIAN_POINT ( 'NONE',  ( 15.00000000000000000, 1.836970198721029589E-15, 100.0000000000000000 ) ) ;
#10 = DIRECTION ( 'NONE',  ( 0.000000000000000000, 0.000000000000000000, 1.000000000000000000 ) ) ;
#11 = DIRECTION ( 'NONE',  ( 5.046468293750711996E-17, 1.000000000000000000, -0.000000000000000000 ) ) ;
#12 = DIRECTION ( 'NONE',  ( -0.000000000000000000, 0.000000000000000000, 1.000000000000000000 ) ) ;
#13 = ADVANCED_FACE ( 'NONE', ( #203 ), #169, .T. ) ;
#14 = ORIENTED_EDGE ( 'NONE', *, *, #164, .F. ) ;
#15 = LINE ( 'NONE', #183, #276 ) ;
#16 = VECTOR ( 'NONE', #259, 1000.000000000000000 ) ;
#17 = CC_DESIGN_SECURITY_CLASSIFICATION ( #65, ( #424 ) ) ;
#18 = SHAPE_DEFINITION_REPRESENTATION ( #450, #114 ) ;
#19 = CARTESIAN_POINT ( 'NONE',  ( 0.000000000000000000, 0.000000000000000000, 50.00000000000000000 ) ) ;
#20 = APPROVAL_STATUS ( 'not_yet_approved' ) ;
#21 = DIRECTION ( 'NONE',  ( 1.000000000000000000, 0.000000000000000000, 0.000000000000000000 ) ) ;
#22 = ORIENTED_EDGE ( 'NONE', *, *, #2, .T. ) ;
#23 = PRODUCT_DEFINITION ( 'UNKNOWN', '', #424, #172 ) ;
#24 = APPROVAL_DATE_TIME ( #363, #54 ) ;
#25 = CYLINDRICAL_SURFACE ( 'NONE', #402, 15.00000000000000000 ) ;
#26 = EDGE_LOOP ( 'NONE', ( #485, #413, #193, #85 ) ) ;
#27 = AXIS2_PLACEMENT_3D ( 'NONE', #431, #12, #223 ) ;
#28 = AXIS2_PLACEMENT_3D ( 'NONE', #269, #162, #301 ) ;
#29 = ORIENTED_EDGE ( 'NONE', *, *, #341, .T. ) ;
#30 = CARTESIAN_POINT ( 'NONE',  ( 590.0000000000001137, 0.000000000000000000, 0.000000000000000000 ) ) ;
#31 = VERTEX_POINT ( 'NONE', #463 ) ;
#32 = EDGE_CURVE ( 'NONE', #101, #411, #455, .T. ) ;
#33 = VERTEX_POINT ( 'NONE', #131 ) ;
#34 = AXIS2_PLACEMENT_3D ( 'NONE', #404, #476, #471 ) ;
#35 = CC_DESIGN_DATE_AND_TIME_ASSIGNMENT ( #466, #71, ( #65 ) ) ;
#36 = VECTOR ( 'NONE', #399, 1000.000000000000000 ) ;
#37 = PRODUCT ( 'Part4', 'Part4', '', ( #4 ) ) ;
#38 = DIRECTION ( 'NONE',  ( 0.000000000000000000, -1.000000000000000000, 0.000000000000000000 ) ) ;
#39 = ORIENTED_EDGE ( 'NONE', *, *, #216, .T. ) ;
#40 = DIRECTION ( 'NONE',  ( -0.000000000000000000, 0.000000000000000000, 1.000000000000000000 ) ) ;
#41 = EDGE_LOOP ( 'NONE', ( #425, #122, #192, #268 ) ) ;
#42 = LINE ( 'NONE', #452, #279 ) ;
#43 = ADVANCED_FACE ( 'NONE', ( #5, #173 ), #394, .T. ) ;
#44 = VERTEX_POINT ( 'NONE', #178 ) ;
#45 = DIRECTION ( 'NONE',  ( 0.000000000000000000, -1.000000000000000000, 0.000000000000000000 ) ) ;
#46 = LINE ( 'NONE', #239, #3 ) ;
#47 = CARTESIAN_POINT ( 'NONE',  ( 590.0000000000001137, 0.000000000000000000, 50.00000000000000000 ) ) ;
#48 = CARTESIAN_POINT ( 'NONE',  ( 550.0000000000000000, -24.99999999999992895, 0.000000000000000000 ) ) ;
#49 = CALENDAR_DATE ( 2025, 11, 11 ) ;
#50 = DIRECTION ( 'NONE',  ( -1.000000000000000000, 0.000000000000000000, 0.000000000000000000 ) ) ;
#51 = EDGE_CURVE ( 'NONE', #377, #302, #208, .T. ) ;
#52 = CARTESIAN_POINT ( 'NONE',  ( 0.000000000000000000, 0.000000000000000000, 0.000000000000000000 ) ) ;
#53 = PLANE ( 'NONE',  #174 ) ;
#54 = APPROVAL ( #147, 'UNSPECIFIED' ) ;
#55 = CARTESIAN_POINT ( 'NONE',  ( 0.000000000000000000, 0.000000000000000000, 50.00000000000000000 ) ) ;
#56 = ADVANCED_FACE ( 'NONE', ( #138 ), #142, .T. ) ;
#57 = APPLICATION_CONTEXT ( 'configuration controlled 3d designs of mechanical parts and assemblies' ) ;
#58 = APPROVAL_ROLE ( '' ) ;
#59 = DIRECTION ( 'NONE',  ( 5.046468293750711996E-17, -1.000000000000000000, 0.000000000000000000 ) ) ;
#60 = PLANE ( 'NONE',  #90 ) ;
#61 = VERTEX_POINT ( 'NONE', #348 ) ;
#62 = CALENDAR_DATE ( 2025, 11, 11 ) ;
#63 = FACE_OUTER_BOUND ( 'NONE', #486, .T. ) ;
#64 = AXIS2_PLACEMENT_3D ( 'NONE', #55, #274, #88 ) ;
#65 = SECURITY_CLASSIFICATION ( '', '', #359 ) ;
#66 = PERSON_AND_ORGANIZATION ( #217, #440 ) ;
#67 = CARTESIAN_POINT ( 'NONE',  ( -2.168404344970996246E-15, 24.99999999999987566, 0.000000000000000000 ) ) ;
#68 = ORIENTED_EDGE ( 'NONE', *, *, #75, .T. ) ;
#69 = EDGE_CURVE ( 'NONE', #108, #449, #135, .T. ) ;
#70 = CARTESIAN_POINT ( 'NONE',  ( 1.443806160019021889E-21, -30.00000000000000000, 0.000000000000000000 ) ) ;
#71 = DATE_TIME_ROLE ( 'classification_date' ) ;
#72 = PLANE ( 'NONE',  #136 ) ;
#73 = ORIENTED_EDGE ( 'NONE', *, *, #462, .T. ) ;
#74 = CC_DESIGN_APPROVAL ( #286, ( #23 ) ) ;
#75 = EDGE_CURVE ( 'NONE', #337, #198, #319, .T. ) ;
#76 = ORIENTED_EDGE ( 'NONE', *, *, #143, .T. ) ;
#77 = DIRECTION ( 'NONE',  ( -1.000000000000000000, -5.046468293750711379E-17, 0.000000000000000000 ) ) ;
#78 = EDGE_LOOP ( 'NONE', ( #483, #325, #39, #76 ) ) ;
#79 = EDGE_LOOP ( 'NONE', ( #256, #14, #468, #303 ) ) ;
#80 = CARTESIAN_POINT ( 'NONE',  ( -30.00000000000000000, 0.000000000000000000, 50.00000000000000000 ) ) ;
#81 = FACE_OUTER_BOUND ( 'NONE', #195, .T. ) ;
#82 = ORIENTED_EDGE ( 'NONE', *, *, #372, .F. ) ;
#83 = CC_DESIGN_PERSON_AND_ORGANIZATION_ASSIGNMENT ( #287, #102, ( #65 ) ) ;
#84 = LINE ( 'NONE', #318, #470 ) ;
#85 = ORIENTED_EDGE ( 'NONE', *, *, #164, .T. ) ;
#86 = APPLICATION_CONTEXT ( 'configuration controlled 3d designs of mechanical parts and assemblies' ) ;
#87 = CARTESIAN_POINT ( 'NONE',  ( -30.00000000000000000, 0.000000000000000000, 0.000000000000000000 ) ) ;
#88 = DIRECTION ( 'NONE',  ( 1.000000000000000000, 0.000000000000000000, 0.000000000000000000 ) ) ;
#89 = CIRCLE ( 'NONE', #194, 15.00000000000000000 ) ;
#90 = AXIS2_PLACEMENT_3D ( 'NONE', #360, #288, #435 ) ;
#91 = PERSON_AND_ORGANIZATION ( #217, #440 ) ;
#92 = CARTESIAN_POINT ( 'NONE',  ( 0.000000000000000000, 0.000000000000000000, 50.00000000000000000 ) ) ;
#93 = LOCAL_TIME ( 20, 26, 49.00000000000000000, #439 ) ;
#94 = CARTESIAN_POINT ( 'NONE',  ( 0.000000000000000000, 0.000000000000000000, 100.0000000000000000 ) ) ;
#95 = APPROVAL_ROLE ( '' ) ;
#96 = CARTESIAN_POINT ( 'NONE',  ( 0.000000000000000000, -24.99999999999992895, 50.00000000000000000 ) ) ;
#97 = CARTESIAN_POINT ( 'NONE',  ( -15.00000000000000000, 0.000000000000000000, 100.0000000000000000 ) ) ;
#98 = VECTOR ( 'NONE', #313, 1000.000000000000000 ) ;
#99 = EDGE_CURVE ( 'NONE', #112, #411, #312, .T. ) ;
#100 = LINE ( 'NONE', #467, #304 ) ;
#101 = VERTEX_POINT ( 'NONE', #210 ) ;
#102 = PERSON_AND_ORGANIZATION_ROLE ( 'classification_officer' ) ;
#103 = DIRECTION ( 'NONE',  ( 1.000000000000000000, 0.000000000000000000, 0.000000000000000000 ) ) ;
#104 = MANIFOLD_SOLID_BREP ( 'Boss-Extrude2', #409 ) ;
#105 = ORIENTED_EDGE ( 'NONE', *, *, #396, .F. ) ;
#106 = CARTESIAN_POINT ( 'NONE',  ( 0.000000000000000000, 0.000000000000000000, 100.0000000000000000 ) ) ;
#107 = ADVANCED_FACE ( 'NONE', ( #456 ), #423, .T. ) ;
#108 = VERTEX_POINT ( 'NONE', #7 ) ;
#109 = CC_DESIGN_APPROVAL ( #414, ( #424 ) ) ;
#110 = DATE_AND_TIME ( #406, #146 ) ;
#111 = LINE ( 'NONE', #67, #36 ) ;
#112 = VERTEX_POINT ( 'NONE', #285 ) ;
#113 = DIRECTION ( 'NONE',  ( 1.000000000000000000, -5.046468293750711379E-17, 0.000000000000000000 ) ) ;
#114 = ADVANCED_BREP_SHAPE_REPRESENTATION ( 'Part4', ( #104, #168 ), #460 ) ;
#115 = ORIENTED_EDGE ( 'NONE', *, *, #298, .F. ) ;
#116 = EDGE_CURVE ( 'NONE', #33, #31, #316, .T. ) ;
#117 = CARTESIAN_POINT ( 'NONE',  ( 1.513940488125213303E-15, -30.00000000000000000, 50.00000000000000000 ) ) ;
#118 = ORIENTED_EDGE ( 'NONE', *, *, #184, .T. ) ;
#119 = VECTOR ( 'NONE', #421, 1000.000000000000000 ) ;
#120 = ORIENTED_EDGE ( 'NONE', *, *, #191, .F. ) ;
#121 = ORIENTED_EDGE ( 'NONE', *, *, #2, .F. ) ;
#122 = ORIENTED_EDGE ( 'NONE', *, *, #420, .F. ) ;
#123 = ADVANCED_FACE ( 'NONE', ( #282 ), #321, .T. ) ;
#124 = CIRCLE ( 'NONE', #27, 30.00000000000000000 ) ;
#125 = AXIS2_PLACEMENT_3D ( 'NONE', #52, #353, #126 ) ;
#126 = DIRECTION ( 'NONE',  ( 1.000000000000000000, 0.000000000000000000, 0.000000000000000000 ) ) ;
#127 = ORIENTED_EDGE ( 'NONE', *, *, #420, .T. ) ;
#128 = VECTOR ( 'NONE', #38, 1000.000000000000000 ) ;
#129 = CARTESIAN_POINT ( 'NONE',  ( 1.513940488125213303E-15, 30.00000000000000000, 0.000000000000000000 ) ) ;
#130 = DIRECTION ( 'NONE',  ( -1.000000000000000000, -5.046468293750711379E-17, 0.000000000000000000 ) ) ;
#131 = CARTESIAN_POINT ( 'NONE',  ( 590.0000000000001137, -29.99999999999992895, 50.00000000000000000 ) ) ;
#132 = DIRECTION ( 'NONE',  ( 0.000000000000000000, -1.000000000000000000, 0.000000000000000000 ) ) ;
#133 = ADVANCED_FACE ( 'NONE', ( #355 ), #53, .T. ) ;
#134 = PERSON_AND_ORGANIZATION_ROLE ( 'design_owner' ) ;
#135 = LINE ( 'NONE', #9, #181 ) ;
#136 = AXIS2_PLACEMENT_3D ( 'NONE', #400, #59, #328 ) ;
#137 = APPLICATION_PROTOCOL_DEFINITION ( 'international standard', 'config_control_design', 1994, #57 ) ;
#138 = FACE_OUTER_BOUND ( 'NONE', #258, .T. ) ;
#139 = UNCERTAINTY_MEASURE_WITH_UNIT (LENGTH_MEASURE( 1.000000000000000082E-05 ), #207, 'distance_accuracy_value', 'NONE');
#140 = DIRECTION ( 'NONE',  ( -1.000000000000000000, -8.673617379884028076E-17, 0.000000000000000000 ) ) ;
#141 = COORDINATED_UNIVERSAL_TIME_OFFSET ( 3, 30, .AHEAD. ) ;
#142 = PLANE ( 'NONE',  #458 ) ;
#143 = EDGE_CURVE ( 'NONE', #145, #305, #354, .T. ) ;
#144 = FACE_OUTER_BOUND ( 'NONE', #26, .T. ) ;
#145 = VERTEX_POINT ( 'NONE', #323 ) ;
#146 = LOCAL_TIME ( 20, 26, 49.00000000000000000, #141 ) ;
#147 = APPROVAL_STATUS ( 'not_yet_approved' ) ;
#148 = CARTESIAN_POINT ( 'NONE',  ( 0.000000000000000000, 0.000000000000000000, 50.00000000000000000 ) ) ;
#149 = EDGE_CURVE ( 'NONE', #155, #101, #111, .T. ) ;
#150 = DIRECTION ( 'NONE',  ( 1.000000000000000000, 0.000000000000000000, 0.000000000000000000 ) ) ;
#151 = PERSON_AND_ORGANIZATION_ROLE ( 'creator' ) ;
#152 = DIRECTION ( 'NONE',  ( -0.000000000000000000, -0.000000000000000000, -1.000000000000000000 ) ) ;
#153 = ORIENTED_EDGE ( 'NONE', *, *, #448, .T. ) ;
#154 = PLANE ( 'NONE',  #158 ) ;
#155 = VERTEX_POINT ( 'NONE', #290 ) ;
#156 = EDGE_CURVE ( 'NONE', #447, #376, #124, .T. ) ;
#157 = ORIENTED_EDGE ( 'NONE', *, *, #380, .F. ) ;
#158 = AXIS2_PLACEMENT_3D ( 'NONE', #474, #295, #265 ) ;
#159 = LINE ( 'NONE', #30, #128 ) ;
#160 = ORIENTED_EDGE ( 'NONE', *, *, #293, .T. ) ;
#161 = APPROVAL_PERSON_ORGANIZATION ( #91, #286, #95 ) ;
#162 = DIRECTION ( 'NONE',  ( -0.000000000000000000, -0.000000000000000000, -1.000000000000000000 ) ) ;
#163 = ORIENTED_EDGE ( 'NONE', *, *, #380, .T. ) ;
#164 = EDGE_CURVE ( 'NONE', #302, #101, #100, .T. ) ;
#165 = ORIENTED_EDGE ( 'NONE', *, *, #356, .F. ) ;
#166 = ORIENTED_EDGE ( 'NONE', *, *, #51, .F. ) ;
#167 = DIRECTION ( 'NONE',  ( 1.000000000000000000, 0.000000000000000000, 0.000000000000000000 ) ) ;
#168 = AXIS2_PLACEMENT_3D ( 'NONE', #309, #422, #6 ) ;
#169 = PLANE ( 'NONE',  #429 ) ;
#170 = ADVANCED_FACE ( 'NONE', ( #144 ), #60, .T. ) ;
#171 = DIRECTION ( 'NONE',  ( -0.000000000000000000, -0.000000000000000000, -1.000000000000000000 ) ) ;
#172 = DESIGN_CONTEXT ( 'detailed design', #86, 'design' ) ;
#173 = FACE_OUTER_BOUND ( 'NONE', #479, .T. ) ;
#174 = AXIS2_PLACEMENT_3D ( 'NONE', #96, #175, #211 ) ;
#175 = DIRECTION ( 'NONE',  ( 0.000000000000000000, 1.000000000000000000, 0.000000000000000000 ) ) ;
#176 = AXIS2_PLACEMENT_3D ( 'NONE', #381, #40, #199 ) ;
#177 = CC_DESIGN_PERSON_AND_ORGANIZATION_ASSIGNMENT ( #66, #182, ( #424 ) ) ;
#178 = CARTESIAN_POINT ( 'NONE',  ( 1.443806160019021889E-21, 30.00000000000000000, 0.000000000000000000 ) ) ;
#179 = DIRECTION ( 'NONE',  ( -0.000000000000000000, -0.000000000000000000, -1.000000000000000000 ) ) ;
#180 = EDGE_LOOP ( 'NONE', ( #415, #366, #163, #299 ) ) ;
#181 = VECTOR ( 'NONE', #388, 1000.000000000000000 ) ;
#182 = PERSON_AND_ORGANIZATION_ROLE ( 'design_supplier' ) ;
#183 = CARTESIAN_POINT ( 'NONE',  ( 0.000000000000000000, -24.99999999999992895, 50.00000000000000000 ) ) ;
#184 = EDGE_CURVE ( 'NONE', #378, #447, #369, .T. ) ;
#185 = CALENDAR_DATE ( 2025, 11, 11 ) ;
#186 = CARTESIAN_POINT ( 'NONE',  ( 0.000000000000000000, 0.000000000000000000, 100.0000000000000000 ) ) ;
#187 = APPROVAL_DATE_TIME ( #110, #414 ) ;
#188 = DIRECTION ( 'NONE',  ( 1.000000000000000000, 0.000000000000000000, 0.000000000000000000 ) ) ;
#189 = ORIENTED_EDGE ( 'NONE', *, *, #434, .F. ) ;
#190 = DIRECTION ( 'NONE',  ( 0.000000000000000000, 0.000000000000000000, 1.000000000000000000 ) ) ;
#191 = EDGE_CURVE ( 'NONE', #44, #447, #480, .T. ) ;
#192 = ORIENTED_EDGE ( 'NONE', *, *, #442, .T. ) ;
#193 = ORIENTED_EDGE ( 'NONE', *, *, #51, .T. ) ;
#194 = AXIS2_PLACEMENT_3D ( 'NONE', #186, #472, #150 ) ;
#195 = EDGE_LOOP ( 'NONE', ( #115, #477, #296, #262 ) ) ;
#196 = EDGE_CURVE ( 'NONE', #453, #376, #330, .T. ) ;
#197 = LINE ( 'NONE', #334, #308 ) ;
#198 = VERTEX_POINT ( 'NONE', #358 ) ;
#199 = DIRECTION ( 'NONE',  ( 1.000000000000000000, 0.000000000000000000, 0.000000000000000000 ) ) ;
#200 = ORIENTED_EDGE ( 'NONE', *, *, #143, .F. ) ;
#201 = ADVANCED_FACE ( 'NONE', ( #292 ), #72, .T. ) ;
#202 = CARTESIAN_POINT ( 'NONE',  ( 1.443806160019021889E-21, -30.00000000000000000, 50.00000000000000000 ) ) ;
#203 = FACE_OUTER_BOUND ( 'NONE', #79, .T. ) ;
#204 = VECTOR ( 'NONE', #171, 1000.000000000000000 ) ;
#205 = CARTESIAN_POINT ( 'NONE',  ( 15.00000000000000000, 1.836970198721029589E-15, 50.00000000000000000 ) ) ;
#206 = APPROVAL_PERSON_ORGANIZATION ( #368, #54, #58 ) ;
#207 =( LENGTH_UNIT ( ) NAMED_UNIT ( * ) SI_UNIT ( .MILLI., .METRE. ) );
#208 = LINE ( 'NONE', #384, #387 ) ;
#209 = CARTESIAN_POINT ( 'NONE',  ( 0.000000000000000000, 0.000000000000000000, 50.00000000000000000 ) ) ;
#210 = CARTESIAN_POINT ( 'NONE',  ( 550.0000000000000000, 24.99999999999992539, 0.000000000000000000 ) ) ;
#211 = DIRECTION ( 'NONE',  ( 0.000000000000000000, -0.000000000000000000, 1.000000000000000000 ) ) ;
#212 = VECTOR ( 'NONE', #373, 1000.000000000000000 ) ;
#213 = CARTESIAN_POINT ( 'NONE',  ( 550.0000000000000000, 0.000000000000000000, 0.000000000000000000 ) ) ;
#214 = DIRECTION ( 'NONE',  ( -0.000000000000000000, -0.000000000000000000, -1.000000000000000000 ) ) ;
#215 = DIRECTION ( 'NONE',  ( -1.000000000000000000, 0.000000000000000000, 0.000000000000000000 ) ) ;
#216 = EDGE_CURVE ( 'NONE', #112, #145, #15, .T. ) ;
#217 = PERSON ( 'UNSPECIFIED', 'UNSPECIFIED', 'UNSPECIFIED', ('UNSPECIFIED'), ('UNSPECIFIED'), ('UNSPECIFIED') ) ;
#218 = CARTESIAN_POINT ( 'NONE',  ( 0.000000000000000000, 0.000000000000000000, 100.0000000000000000 ) ) ;
#219 = VERTEX_POINT ( 'NONE', #97 ) ;
#220 = PRODUCT_RELATED_PRODUCT_CATEGORY ( 'detail', '', ( #37 ) ) ;
#221 = CC_DESIGN_APPROVAL ( #54, ( #65 ) ) ;
#222 = COORDINATED_UNIVERSAL_TIME_OFFSET ( 3, 30, .AHEAD. ) ;
#223 = DIRECTION ( 'NONE',  ( 1.000000000000000000, 0.000000000000000000, 0.000000000000000000 ) ) ;
#224 = COORDINATED_UNIVERSAL_TIME_OFFSET ( 3, 30, .AHEAD. ) ;
#225 = FACE_OUTER_BOUND ( 'NONE', #408, .T. ) ;
#226 = ORIENTED_EDGE ( 'NONE', *, *, #149, .T. ) ;
#227 = CARTESIAN_POINT ( 'NONE',  ( 590.0000000000001137, 29.99999999999992895, 50.00000000000000000 ) ) ;
#228 = VECTOR ( 'NONE', #284, 1000.000000000000000 ) ;
#229 = ORIENTED_EDGE ( 'NONE', *, *, #156, .T. ) ;
#230 = ORIENTED_EDGE ( 'NONE', *, *, #32, .T. ) ;
#231 = CYLINDRICAL_SURFACE ( 'NONE', #28, 15.00000000000000000 ) ;
#232 = ORIENTED_EDGE ( 'NONE', *, *, #372, .T. ) ;
#233 = PLANE ( 'NONE',  #432 ) ;
#234 = ORIENTED_EDGE ( 'NONE', *, *, #116, .F. ) ;
#235 = DIRECTION ( 'NONE',  ( -0.000000000000000000, 0.000000000000000000, -1.000000000000000000 ) ) ;
#236 = ORIENTED_EDGE ( 'NONE', *, *, #196, .F. ) ;
#237 = LINE ( 'NONE', #47, #482 ) ;
#238 = LINE ( 'NONE', #385, #430 ) ;
#239 = CARTESIAN_POINT ( 'NONE',  ( 0.000000000000000000, -24.99999999999992895, 0.000000000000000000 ) ) ;
#240 = DIRECTION ( 'NONE',  ( -1.000000000000000000, 5.046468293750711996E-17, 0.000000000000000000 ) ) ;
#241 = CIRCLE ( 'NONE', #176, 30.00000000000000000 ) ;
#242 = APPROVAL_STATUS ( 'not_yet_approved' ) ;
#243 = DIRECTION ( 'NONE',  ( -0.000000000000000000, 0.000000000000000000, -1.000000000000000000 ) ) ;
#244 = DIRECTION ( 'NONE',  ( 1.000000000000000000, 0.000000000000000000, 0.000000000000000000 ) ) ;
#245 = DIRECTION ( 'NONE',  ( 0.000000000000000000, 0.000000000000000000, 1.000000000000000000 ) ) ;
#246 = ADVANCED_FACE ( 'NONE', ( #225 ), #250, .T. ) ;
#247 = DIRECTION ( 'NONE',  ( 0.000000000000000000, -1.000000000000000000, 0.000000000000000000 ) ) ;
#248 = VECTOR ( 'NONE', #428, 1000.000000000000000 ) ;
#249 = VECTOR ( 'NONE', #340, 1000.000000000000000 ) ;
#250 = CYLINDRICAL_SURFACE ( 'NONE', #336, 30.00000000000000000 ) ;
#251 = EDGE_CURVE ( 'NONE', #377, #155, #255, .T. ) ;
#252 = CARTESIAN_POINT ( 'NONE',  ( 1.443806160019021889E-21, -30.00000000000000000, 50.00000000000000000 ) ) ;
#253 = ORIENTED_EDGE ( 'NONE', *, *, #356, .T. ) ;
#254 = PERSON_AND_ORGANIZATION ( #217, #440 ) ;
#255 = LINE ( 'NONE', #401, #315 ) ;
#256 = ORIENTED_EDGE ( 'NONE', *, *, #32, .F. ) ;
#257 = CARTESIAN_POINT ( 'NONE',  ( 590.0000000000001137, -24.99999999999992895, 0.000000000000000000 ) ) ;
#258 = EDGE_LOOP ( 'NONE', ( #189, #270, #29, #68 ) ) ;
#259 = DIRECTION ( 'NONE',  ( -0.000000000000000000, -0.000000000000000000, -1.000000000000000000 ) ) ;
#260 = EDGE_LOOP ( 'NONE', ( #443, #346 ) ) ;
#261 = CC_DESIGN_PERSON_AND_ORGANIZATION_ASSIGNMENT ( #473, #151, ( #424 ) ) ;
#262 = ORIENTED_EDGE ( 'NONE', *, *, #349, .F. ) ;
#263 = ORIENTED_EDGE ( 'NONE', *, *, #454, .F. ) ;
#264 = ADVANCED_FACE ( 'NONE', ( #63 ), #25, .T. ) ;
#265 = DIRECTION ( 'NONE',  ( -0.000000000000000000, 0.000000000000000000, -1.000000000000000000 ) ) ;
#266 = ORIENTED_EDGE ( 'NONE', *, *, #349, .T. ) ;
#267 = DIRECTION ( 'NONE',  ( 1.000000000000000000, 0.000000000000000000, -0.000000000000000000 ) ) ;
#268 = ORIENTED_EDGE ( 'NONE', *, *, #191, .T. ) ;
#269 = CARTESIAN_POINT ( 'NONE',  ( 0.000000000000000000, 0.000000000000000000, 100.0000000000000000 ) ) ;
#270 = ORIENTED_EDGE ( 'NONE', *, *, #442, .F. ) ;
#271 = EDGE_LOOP ( 'NONE', ( #263, #234, #253, #475 ) ) ;
#272 = EDGE_CURVE ( 'NONE', #449, #382, #361, .T. ) ;
#273 = DIRECTION ( 'NONE',  ( 1.000000000000000000, -5.046468293750711379E-17, 0.000000000000000000 ) ) ;
#274 = DIRECTION ( 'NONE',  ( -0.000000000000000000, 0.000000000000000000, 1.000000000000000000 ) ) ;
#275 = CARTESIAN_POINT ( 'NONE',  ( -15.00000000000000000, 0.000000000000000000, 50.00000000000000000 ) ) ;
#276 = VECTOR ( 'NONE', #103, 1000.000000000000000 ) ;
#277 = CARTESIAN_POINT ( 'NONE',  ( 590.0000000000001137, 29.99999999999992895, 50.00000000000000000 ) ) ;
#278 = VECTOR ( 'NONE', #329, 1000.000000000000000 ) ;
#279 = VECTOR ( 'NONE', #132, 1000.000000000000000 ) ;
#280 = CC_DESIGN_PERSON_AND_ORGANIZATION_ASSIGNMENT ( #254, #398, ( #23 ) ) ;
#281 = FACE_OUTER_BOUND ( 'NONE', #405, .T. ) ;
#282 = FACE_OUTER_BOUND ( 'NONE', #343, .T. ) ;
#283 = APPLICATION_PROTOCOL_DEFINITION ( 'international standard', 'config_control_design', 1994, #86 ) ;
#284 = DIRECTION ( 'NONE',  ( -0.000000000000000000, -0.000000000000000000, -1.000000000000000000 ) ) ;
#285 = CARTESIAN_POINT ( 'NONE',  ( 550.0000000000000000, -24.99999999999992895, 50.00000000000000000 ) ) ;
#286 = APPROVAL ( #242, 'UNSPECIFIED' ) ;
#287 = PERSON_AND_ORGANIZATION ( #217, #440 ) ;
#288 = DIRECTION ( 'NONE',  ( 8.673617379884029309E-17, -1.000000000000000000, 0.000000000000000000 ) ) ;
#289 = ORIENTED_EDGE ( 'NONE', *, *, #333, .T. ) ;
#290 = CARTESIAN_POINT ( 'NONE',  ( 590.0000000000001137, 24.99999999999992895, 0.000000000000000000 ) ) ;
#291 = DIRECTION ( 'NONE',  ( 0.000000000000000000, 0.000000000000000000, 1.000000000000000000 ) ) ;
#292 = FACE_OUTER_BOUND ( 'NONE', #271, .T. ) ;
#293 = EDGE_CURVE ( 'NONE', #219, #108, #324, .T. ) ;
#294 = CARTESIAN_POINT ( 'NONE',  ( 590.0000000000001137, 24.99999999999992895, 50.00000000000000000 ) ) ;
#295 = DIRECTION ( 'NONE',  ( 1.000000000000000000, 0.000000000000000000, -0.000000000000000000 ) ) ;
#296 = ORIENTED_EDGE ( 'NONE', *, *, #272, .T. ) ;
#297 = AXIS2_PLACEMENT_3D ( 'NONE', #19, #190, #21 ) ;
#298 = EDGE_CURVE ( 'NONE', #108, #219, #89, .T. ) ;
#299 = ORIENTED_EDGE ( 'NONE', *, *, #251, .T. ) ;
#300 = CIRCLE ( 'NONE', #379, 30.00000000000000000 ) ;
#301 = DIRECTION ( 'NONE',  ( -1.000000000000000000, 0.000000000000000000, 0.000000000000000000 ) ) ;
#302 = VERTEX_POINT ( 'NONE', #438 ) ;
#303 = ORIENTED_EDGE ( 'NONE', *, *, #99, .T. ) ;
#304 = VECTOR ( 'NONE', #152, 1000.000000000000000 ) ;
#305 = VERTEX_POINT ( 'NONE', #257 ) ;
#306 = ADVANCED_FACE ( 'NONE', ( #441 ), #154, .T. ) ;
#307 = CIRCLE ( 'NONE', #374, 15.00000000000000000 ) ;
#308 = VECTOR ( 'NONE', #113, 1000.000000000000000 ) ;
#309 = CARTESIAN_POINT ( 'NONE',  ( 0.000000000000000000, 0.000000000000000000, 0.000000000000000000 ) ) ;
#310 = DIRECTION ( 'NONE',  ( 1.000000000000000000, 0.000000000000000000, -0.000000000000000000 ) ) ;
#311 = PERSON_AND_ORGANIZATION ( #217, #440 ) ;
#312 = LINE ( 'NONE', #352, #228 ) ;
#313 = DIRECTION ( 'NONE',  ( -0.000000000000000000, -0.000000000000000000, -1.000000000000000000 ) ) ;
#314 = ADVANCED_FACE ( 'NONE', ( #446 ), #233, .T. ) ;
#315 = VECTOR ( 'NONE', #370, 1000.000000000000000 ) ;
#316 = LINE ( 'NONE', #459, #248 ) ;
#317 = LINE ( 'NONE', #416, #249 ) ;
#318 = CARTESIAN_POINT ( 'NONE',  ( 1.513940488125213303E-15, -30.00000000000000000, 0.000000000000000000 ) ) ;
#319 = LINE ( 'NONE', #277, #204 ) ;
#320 =( NAMED_UNIT ( * ) PLANE_ANGLE_UNIT ( ) SI_UNIT ( $, .RADIAN. ) );
#321 = PLANE ( 'NONE',  #445 ) ;
#322 = APPROVAL_ROLE ( '' ) ;
#323 = CARTESIAN_POINT ( 'NONE',  ( 590.0000000000001137, -24.99999999999992895, 50.00000000000000000 ) ) ;
#324 = CIRCLE ( 'NONE', #444, 15.00000000000000000 ) ;
#325 = ORIENTED_EDGE ( 'NONE', *, *, #99, .F. ) ;
#326 = DIRECTION ( 'NONE',  ( -0.000000000000000000, -0.000000000000000000, -1.000000000000000000 ) ) ;
#327 = PERSON_AND_ORGANIZATION ( #217, #440 ) ;
#328 = DIRECTION ( 'NONE',  ( 1.000000000000000000, 5.046468293750711996E-17, 0.000000000000000000 ) ) ;
#329 = DIRECTION ( 'NONE',  ( -0.000000000000000000, -0.000000000000000000, -1.000000000000000000 ) ) ;
#330 = LINE ( 'NONE', #252, #386 ) ;
#331 = CARTESIAN_POINT ( 'NONE',  ( -15.00000000000000000, 0.000000000000000000, 100.0000000000000000 ) ) ;
#332 = ORIENTED_EDGE ( 'NONE', *, *, #116, .T. ) ;
#333 = EDGE_CURVE ( 'NONE', #305, #31, #159, .T. ) ;
#334 = CARTESIAN_POINT ( 'NONE',  ( 1.513940488125213303E-15, 30.00000000000000000, 50.00000000000000000 ) ) ;
#335 = ORIENTED_EDGE ( 'NONE', *, *, #298, .T. ) ;
#336 = AXIS2_PLACEMENT_3D ( 'NONE', #148, #326, #215 ) ;
#337 = VERTEX_POINT ( 'NONE', #227 ) ;
#338 = LINE ( 'NONE', #331, #212 ) ;
#339 = ORIENTED_EDGE ( 'NONE', *, *, #469, .T. ) ;
#340 = DIRECTION ( 'NONE',  ( 0.000000000000000000, -1.000000000000000000, 0.000000000000000000 ) ) ;
#341 = EDGE_CURVE ( 'NONE', #61, #337, #197, .T. ) ;
#342 = CARTESIAN_POINT ( 'NONE',  ( 590.0000000000001137, 0.000000000000000000, 50.00000000000000000 ) ) ;
#343 = EDGE_LOOP ( 'NONE', ( #160, #335 ) ) ;
#344 = LINE ( 'NONE', #129, #364 ) ;
#345 = PLANE ( 'NONE',  #125 ) ;
#346 = ORIENTED_EDGE ( 'NONE', *, *, #272, .F. ) ;
#347 = APPROVAL_PERSON_ORGANIZATION ( #327, #414, #322 ) ;
#348 = CARTESIAN_POINT ( 'NONE',  ( 1.443806160019021889E-21, 30.00000000000000000, 50.00000000000000000 ) ) ;
#349 = EDGE_CURVE ( 'NONE', #219, #382, #338, .T. ) ;
#350 = CARTESIAN_POINT ( 'NONE',  ( 1.443806160019021889E-21, 30.00000000000000000, 50.00000000000000000 ) ) ;
#351 = DATE_AND_TIME ( #49, #397 ) ;
#352 = CARTESIAN_POINT ( 'NONE',  ( 550.0000000000000000, -24.99999999999992895, 50.00000000000000000 ) ) ;
#353 = DIRECTION ( 'NONE',  ( -0.000000000000000000, 0.000000000000000000, 1.000000000000000000 ) ) ;
#354 = LINE ( 'NONE', #465, #16 ) ;
#355 = FACE_OUTER_BOUND ( 'NONE', #78, .T. ) ;
#356 = EDGE_CURVE ( 'NONE', #33, #453, #484, .T. ) ;
#357 = CALENDAR_DATE ( 2025, 11, 11 ) ;
#358 = CARTESIAN_POINT ( 'NONE',  ( 590.0000000000001137, 29.99999999999992895, 0.000000000000000000 ) ) ;
#359 = SECURITY_CLASSIFICATION_LEVEL ( 'unclassified' ) ;
#360 = CARTESIAN_POINT ( 'NONE',  ( -2.168404344970996246E-15, 24.99999999999987566, 50.00000000000000000 ) ) ;
#361 = CIRCLE ( 'NONE', #297, 15.00000000000000000 ) ;
#362 = AXIS2_PLACEMENT_3D ( 'NONE', #92, #391, #50 ) ;
#363 = DATE_AND_TIME ( #185, #389 ) ;
#364 = VECTOR ( 'NONE', #273, 1000.000000000000000 ) ;
#365 = DIRECTION ( 'NONE',  ( -1.000000000000000000, 0.000000000000000000, 0.000000000000000000 ) ) ;
#366 = ORIENTED_EDGE ( 'NONE', *, *, #75, .F. ) ;
#367 = ADVANCED_FACE ( 'NONE', ( #81 ), #231, .T. ) ;
#368 = PERSON_AND_ORGANIZATION ( #217, #440 ) ;
#369 = LINE ( 'NONE', #407, #278 ) ;
#370 = DIRECTION ( 'NONE',  ( -0.000000000000000000, -0.000000000000000000, -1.000000000000000000 ) ) ;
#371 = ORIENTED_EDGE ( 'NONE', *, *, #156, .F. ) ;
#372 = EDGE_CURVE ( 'NONE', #378, #453, #241, .T. ) ;
#373 = DIRECTION ( 'NONE',  ( -0.000000000000000000, -0.000000000000000000, -1.000000000000000000 ) ) ;
#374 = AXIS2_PLACEMENT_3D ( 'NONE', #392, #10, #417 ) ;
#375 = ORIENTED_EDGE ( 'NONE', *, *, #69, .F. ) ;
#376 = VERTEX_POINT ( 'NONE', #70 ) ;
#377 = VERTEX_POINT ( 'NONE', #294 ) ;
#378 = VERTEX_POINT ( 'NONE', #80 ) ;
#379 = AXIS2_PLACEMENT_3D ( 'NONE', #209, #461, #167 ) ;
#380 = EDGE_CURVE ( 'NONE', #337, #377, #317, .T. ) ;
#381 = CARTESIAN_POINT ( 'NONE',  ( 0.000000000000000000, 0.000000000000000000, 50.00000000000000000 ) ) ;
#382 = VERTEX_POINT ( 'NONE', #275 ) ;
#383 =( NAMED_UNIT ( * ) SI_UNIT ( $, .STERADIAN. ) SOLID_ANGLE_UNIT ( ) );
#384 = CARTESIAN_POINT ( 'NONE',  ( -2.168404344970996246E-15, 24.99999999999987566, 50.00000000000000000 ) ) ;
#385 = CARTESIAN_POINT ( 'NONE',  ( 590.0000000000001137, 0.000000000000000000, 0.000000000000000000 ) ) ;
#386 = VECTOR ( 'NONE', #179, 1000.000000000000000 ) ;
#387 = VECTOR ( 'NONE', #140, 1000.000000000000000 ) ;
#388 = DIRECTION ( 'NONE',  ( -0.000000000000000000, -0.000000000000000000, -1.000000000000000000 ) ) ;
#389 = LOCAL_TIME ( 20, 26, 49.00000000000000000, #224 ) ;
#390 = COORDINATED_UNIVERSAL_TIME_OFFSET ( 3, 30, .AHEAD. ) ;
#391 = DIRECTION ( 'NONE',  ( -0.000000000000000000, -0.000000000000000000, -1.000000000000000000 ) ) ;
#392 = CARTESIAN_POINT ( 'NONE',  ( 0.000000000000000000, 0.000000000000000000, 50.00000000000000000 ) ) ;
#393 = CARTESIAN_POINT ( 'NONE',  ( 1.513940488125213303E-15, 30.00000000000000000, 50.00000000000000000 ) ) ;
#394 = PLANE ( 'NONE',  #64 ) ;
#395 = VECTOR ( 'NONE', #77, 1000.000000000000000 ) ;
#396 = EDGE_CURVE ( 'NONE', #302, #112, #42, .T. ) ;
#397 = LOCAL_TIME ( 20, 26, 49.00000000000000000, #390 ) ;
#398 = PERSON_AND_ORGANIZATION_ROLE ( 'creator' ) ;
#399 = DIRECTION ( 'NONE',  ( -1.000000000000000000, -8.673617379884028076E-17, 0.000000000000000000 ) ) ;
#400 = CARTESIAN_POINT ( 'NONE',  ( 1.513940488125213303E-15, -30.00000000000000000, 50.00000000000000000 ) ) ;
#401 = CARTESIAN_POINT ( 'NONE',  ( 590.0000000000001137, 24.99999999999992895, 50.00000000000000000 ) ) ;
#402 = AXIS2_PLACEMENT_3D ( 'NONE', #218, #214, #365 ) ;
#403 = ORIENTED_EDGE ( 'NONE', *, *, #333, .F. ) ;
#404 = CARTESIAN_POINT ( 'NONE',  ( 0.000000000000000000, 0.000000000000000000, 0.000000000000000000 ) ) ;
#405 = EDGE_LOOP ( 'NONE', ( #436, #153, #226, #230, #73, #289, #451, #371, #120 ) ) ;
#406 = CALENDAR_DATE ( 2025, 11, 11 ) ;
#407 = CARTESIAN_POINT ( 'NONE',  ( -30.00000000000000000, 0.000000000000000000, 50.00000000000000000 ) ) ;
#408 = EDGE_LOOP ( 'NONE', ( #82, #118, #229, #236 ) ) ;
#409 = CLOSED_SHELL ( 'NONE', ( #367, #246, #56, #107, #201, #306, #133, #13, #170, #314, #43, #481, #264, #123 ) ) ;
#410 = LOCAL_TIME ( 20, 26, 49.00000000000000000, #222 ) ;
#411 = VERTEX_POINT ( 'NONE', #48 ) ;
#412 = EDGE_LOOP ( 'NONE', ( #403, #200, #22, #332 ) ) ;
#413 = ORIENTED_EDGE ( 'NONE', *, *, #251, .F. ) ;
#414 = APPROVAL ( #20, 'UNSPECIFIED' ) ;
#415 = ORIENTED_EDGE ( 'NONE', *, *, #448, .F. ) ;
#416 = CARTESIAN_POINT ( 'NONE',  ( 590.0000000000001137, 0.000000000000000000, 50.00000000000000000 ) ) ;
#417 = DIRECTION ( 'NONE',  ( 1.000000000000000000, 0.000000000000000000, 0.000000000000000000 ) ) ;
#418 = ORIENTED_EDGE ( 'NONE', *, *, #216, .F. ) ;
#419 = LINE ( 'NONE', #350, #98 ) ;
#420 = EDGE_CURVE ( 'NONE', #61, #378, #300, .T. ) ;
#421 = DIRECTION ( 'NONE',  ( 0.000000000000000000, -1.000000000000000000, 0.000000000000000000 ) ) ;
#422 = DIRECTION ( 'NONE',  ( 0.000000000000000000, 0.000000000000000000, 1.000000000000000000 ) ) ;
#423 = CYLINDRICAL_SURFACE ( 'NONE', #362, 30.00000000000000000 ) ;
#424 = PRODUCT_DEFINITION_FORMATION_WITH_SPECIFIED_SOURCE ( 'ANY', '', #37, .NOT_KNOWN. ) ;
#425 = ORIENTED_EDGE ( 'NONE', *, *, #184, .F. ) ;
#426 = DIRECTION ( 'NONE',  ( 1.000000000000000000, 0.000000000000000000, -0.000000000000000000 ) ) ;
#427 = CC_DESIGN_PERSON_AND_ORGANIZATION_ASSIGNMENT ( #311, #134, ( #37 ) ) ;
#428 = DIRECTION ( 'NONE',  ( -0.000000000000000000, -0.000000000000000000, -1.000000000000000000 ) ) ;
#429 = AXIS2_PLACEMENT_3D ( 'NONE', #1, #310, #243 ) ;
#430 = VECTOR ( 'NONE', #45, 1000.000000000000000 ) ;
#431 = CARTESIAN_POINT ( 'NONE',  ( 0.000000000000000000, 0.000000000000000000, 0.000000000000000000 ) ) ;
#432 = AXIS2_PLACEMENT_3D ( 'NONE', #342, #267, #235 ) ;
#433 = ORIENTED_EDGE ( 'NONE', *, *, #341, .F. ) ;
#434 = EDGE_CURVE ( 'NONE', #44, #198, #344, .T. ) ;
#435 = DIRECTION ( 'NONE',  ( 1.000000000000000000, 8.673617379884029309E-17, 0.000000000000000000 ) ) ;
#436 = ORIENTED_EDGE ( 'NONE', *, *, #434, .T. ) ;
#437 = DATE_TIME_ROLE ( 'creation_date' ) ;
#438 = CARTESIAN_POINT ( 'NONE',  ( 550.0000000000000000, 24.99999999999992539, 50.00000000000000000 ) ) ;
#439 = COORDINATED_UNIVERSAL_TIME_OFFSET ( 3, 30, .AHEAD. ) ;
#440 = ORGANIZATION ( 'UNSPECIFIED', 'UNSPECIFIED', '' ) ;
#441 = FACE_OUTER_BOUND ( 'NONE', #412, .T. ) ;
#442 = EDGE_CURVE ( 'NONE', #61, #44, #419, .T. ) ;
#443 = ORIENTED_EDGE ( 'NONE', *, *, #469, .F. ) ;
#444 = AXIS2_PLACEMENT_3D ( 'NONE', #106, #291, #188 ) ;
#445 = AXIS2_PLACEMENT_3D ( 'NONE', #94, #245, #426 ) ;
#446 = FACE_OUTER_BOUND ( 'NONE', #180, .T. ) ;
#447 = VERTEX_POINT ( 'NONE', #87 ) ;
#448 = EDGE_CURVE ( 'NONE', #198, #155, #238, .T. ) ;
#449 = VERTEX_POINT ( 'NONE', #205 ) ;
#450 = PRODUCT_DEFINITION_SHAPE ( 'NONE', 'NONE',  #23 ) ;
#451 = ORIENTED_EDGE ( 'NONE', *, *, #454, .T. ) ;
#452 = CARTESIAN_POINT ( 'NONE',  ( 550.0000000000000000, 0.000000000000000000, 50.00000000000000000 ) ) ;
#453 = VERTEX_POINT ( 'NONE', #202 ) ;
#454 = EDGE_CURVE ( 'NONE', #31, #376, #84, .T. ) ;
#455 = LINE ( 'NONE', #213, #119 ) ;
#456 = FACE_OUTER_BOUND ( 'NONE', #41, .T. ) ;
#457 = APPROVAL_DATE_TIME ( #351, #286 ) ;
#458 = AXIS2_PLACEMENT_3D ( 'NONE', #393, #11, #240 ) ;
#459 = CARTESIAN_POINT ( 'NONE',  ( 590.0000000000001137, -29.99999999999992895, 50.00000000000000000 ) ) ;
#460 =( GEOMETRIC_REPRESENTATION_CONTEXT ( 3 ) GLOBAL_UNCERTAINTY_ASSIGNED_CONTEXT ( ( #139 ) ) GLOBAL_UNIT_ASSIGNED_CONTEXT ( ( #207, #320, #383 ) ) REPRESENTATION_CONTEXT ( 'NONE', 'WORKASPACE' ) );
#461 = DIRECTION ( 'NONE',  ( -0.000000000000000000, 0.000000000000000000, 1.000000000000000000 ) ) ;
#462 = EDGE_CURVE ( 'NONE', #411, #305, #46, .T. ) ;
#463 = CARTESIAN_POINT ( 'NONE',  ( 590.0000000000001137, -29.99999999999992895, 0.000000000000000000 ) ) ;
#464 = DATE_AND_TIME ( #357, #93 ) ;
#465 = CARTESIAN_POINT ( 'NONE',  ( 590.0000000000001137, -24.99999999999992895, 50.00000000000000000 ) ) ;
#466 = DATE_AND_TIME ( #62, #410 ) ;
#467 = CARTESIAN_POINT ( 'NONE',  ( 550.0000000000000000, 24.99999999999992539, 50.00000000000000000 ) ) ;
#468 = ORIENTED_EDGE ( 'NONE', *, *, #396, .T. ) ;
#469 = EDGE_CURVE ( 'NONE', #382, #449, #307, .T. ) ;
#470 = VECTOR ( 'NONE', #130, 1000.000000000000000 ) ;
#471 = DIRECTION ( 'NONE',  ( 1.000000000000000000, 0.000000000000000000, 0.000000000000000000 ) ) ;
#472 = DIRECTION ( 'NONE',  ( 0.000000000000000000, 0.000000000000000000, 1.000000000000000000 ) ) ;
#473 = PERSON_AND_ORGANIZATION ( #217, #440 ) ;
#474 = CARTESIAN_POINT ( 'NONE',  ( 590.0000000000001137, 0.000000000000000000, 50.00000000000000000 ) ) ;
#475 = ORIENTED_EDGE ( 'NONE', *, *, #196, .T. ) ;
#476 = DIRECTION ( 'NONE',  ( -0.000000000000000000, 0.000000000000000000, 1.000000000000000000 ) ) ;
#477 = ORIENTED_EDGE ( 'NONE', *, *, #69, .T. ) ;
#478 = ORIENTED_EDGE ( 'NONE', *, *, #293, .F. ) ;
#479 = EDGE_LOOP ( 'NONE', ( #433, #127, #232, #165, #121, #418, #105, #166, #157 ) ) ;
#480 = CIRCLE ( 'NONE', #34, 30.00000000000000000 ) ;
#481 = ADVANCED_FACE ( 'NONE', ( #281 ), #345, .F. ) ;
#482 = VECTOR ( 'NONE', #247, 1000.000000000000000 ) ;
#483 = ORIENTED_EDGE ( 'NONE', *, *, #462, .F. ) ;
#484 = LINE ( 'NONE', #117, #395 ) ;
#485 = ORIENTED_EDGE ( 'NONE', *, *, #149, .F. ) ;
#486 = EDGE_LOOP ( 'NONE', ( #375, #478, #266, #339 ) ) ;
ENDSEC;
END-ISO-10303-21;
