ISO-10303-21;
HEADER;
FILE_DESCRIPTION (( 'STEP AP203' ),
    '1' );
FILE_NAME ('Part1.STEP',
    '2025-11-11T15:30:18',
    ( '' ),
    ( '' ),
    'SwSTEP 2.0',
    'SolidWorks 2024',
    '' );
FILE_SCHEMA (( 'CONFIG_CONTROL_DESIGN' ));
ENDSEC;

DATA;
#1 = CARTESIAN_POINT ( 'NONE',  ( 60.00000000000000711, 0.000000000000000000, 650.0000000000000000 ) ) ;
#2 = EDGE_CURVE ( 'NONE', #9, #66, #46, .T. ) ;
#3 = FACE_OUTER_BOUND ( 'NONE', #247, .T. ) ;
#4 = CC_DESIGN_PERSON_AND_ORGANIZATION_ASSIGNMENT ( #130, #259, ( #191 ) ) ;
#5 = SHAPE_DEFINITION_REPRESENTATION ( #89, #209 ) ;
#6 = CC_DESIGN_APPROVAL ( #234, ( #31 ) ) ;
#7 = CALENDAR_DATE ( 2025, 11, 11 ) ;
#8 = ORIENTED_EDGE ( 'NONE', *, *, #230, .F. ) ;
#9 = VERTEX_POINT ( 'NONE', #135 ) ;
#10 = CARTESIAN_POINT ( 'NONE',  ( -150.0000000000000284, 0.000000000000000000, 0.000000000000000000 ) ) ;
#11 = PERSON_AND_ORGANIZATION_ROLE ( 'design_supplier' ) ;
#12 = DIRECTION ( 'NONE',  ( -1.000000000000000000, 0.000000000000000000, 0.000000000000000000 ) ) ;
#13 = CARTESIAN_POINT ( 'NONE',  ( 0.000000000000000000, 0.000000000000000000, 50.00000000000000000 ) ) ;
#14 =( BOUNDED_CURVE ( )  B_SPLINE_CURVE ( 3, ( #73, #200, #123, #32 ),
 .UNSPECIFIED., .F., .T. ) 
 B_SPLINE_CURVE_WITH_KNOTS ( ( 4, 4 ),
 ( 0.000000000000000000, 1.570796326794896780 ),
 .UNSPECIFIED. ) 
 CURVE ( )  GEOMETRIC_REPRESENTATION_ITEM ( )  RATIONAL_B_SPLINE_CURVE ( ( 1.000000000000000000, 0.8047378541243649375, 0.8047378541243649375, 1.000000000000000000 ) ) 
 REPRESENTATION_ITEM ( '' )  );
#15 = DIRECTION ( 'NONE',  ( 1.000000000000000000, 0.000000000000000000, 0.000000000000000000 ) ) ;
#16 = CIRCLE ( 'NONE', #50, 150.0000000000000284 ) ;
#17 = PLANE ( 'NONE',  #188 ) ;
#18 = PERSON_AND_ORGANIZATION ( #97, #205 ) ;
#19 = DATE_AND_TIME ( #147, #78 ) ;
#20 = APPROVAL_STATUS ( 'not_yet_approved' ) ;
#21 = CARTESIAN_POINT ( 'NONE',  ( 50.00000000000000000, 29.28932188134525205, 600.0000000000000000 ) ) ;
#22 = EDGE_CURVE ( 'NONE', #243, #217, #228, .T. ) ;
#23 =( BOUNDED_CURVE ( )  B_SPLINE_CURVE ( 3, ( #214, #21, #125, #107 ),
 .UNSPECIFIED., .F., .F. ) 
 B_SPLINE_CURVE_WITH_KNOTS ( ( 4, 4 ),
 ( 0.000000000000000000, 1.570796326794896780 ),
 .UNSPECIFIED. ) 
 CURVE ( )  GEOMETRIC_REPRESENTATION_ITEM ( )  RATIONAL_B_SPLINE_CURVE ( ( 1.000000000000000000, 0.8047378541243649375, 0.8047378541243649375, 1.000000000000000000 ) ) 
 REPRESENTATION_ITEM ( '' )  );
#24 = SECURITY_CLASSIFICATION_LEVEL ( 'unclassified' ) ;
#25 = VERTEX_POINT ( 'NONE', #94 ) ;
#26 = ORIENTED_EDGE ( 'NONE', *, *, #274, .T. ) ;
#27 = DIRECTION ( 'NONE',  ( 1.000000000000000000, 0.000000000000000000, 0.000000000000000000 ) ) ;
#28 = APPROVAL ( #20, 'UNSPECIFIED' ) ;
#29 = VECTOR ( 'NONE', #121, 1000.000000000000000 ) ;
#30 = CARTESIAN_POINT ( 'NONE',  ( -29.28932188134523429, 50.00000000000001421, 620.7106781186547551 ) ) ;
#31 = SECURITY_CLASSIFICATION ( '', '', #24 ) ;
#32 = CARTESIAN_POINT ( 'NONE',  ( 1.387778780781445676E-14, -50.00000000000000711, 650.0000000000000000 ) ) ;
#33 = CYLINDRICAL_SURFACE ( 'NONE', #128, 150.0000000000000284 ) ;
#34 = AXIS2_PLACEMENT_3D ( 'NONE', #204, #158, #12 ) ;
#35 = CARTESIAN_POINT ( 'NONE',  ( 150.0000000000000284, 1.836970198721030062E-14, 50.00000000000000000 ) ) ;
#36 = CARTESIAN_POINT ( 'NONE',  ( -50.00000000000000000, 0.000000000000000000, 600.0000000000000000 ) ) ;
#37 = PRODUCT ( 'Part1', 'Part1', '', ( #168 ) ) ;
#38 = DIRECTION ( 'NONE',  ( 1.000000000000000000, 0.000000000000000000, 0.000000000000000000 ) ) ;
#39 = CALENDAR_DATE ( 2025, 11, 11 ) ;
#40 = PERSON_AND_ORGANIZATION_ROLE ( 'design_owner' ) ;
#41 = EDGE_CURVE ( 'NONE', #66, #92, #267, .T. ) ;
#42 = CARTESIAN_POINT ( 'NONE',  ( 0.000000000000000000, 0.000000000000000000, 0.000000000000000000 ) ) ;
#43 = CARTESIAN_POINT ( 'NONE',  ( 0.000000000000000000, 0.000000000000000000, 0.000000000000000000 ) ) ;
#44 = EDGE_CURVE ( 'NONE', #265, #246, #239, .T. ) ;
#45 = COORDINATED_UNIVERSAL_TIME_OFFSET ( 3, 30, .AHEAD. ) ;
#46 = CIRCLE ( 'NONE', #201, 150.0000000000000284 ) ;
#47 = ORIENTED_EDGE ( 'NONE', *, *, #218, .T. ) ;
#48 = ORIENTED_EDGE ( 'NONE', *, *, #165, .T. ) ;
#49 = ORIENTED_EDGE ( 'NONE', *, *, #141, .T. ) ;
#50 = AXIS2_PLACEMENT_3D ( 'NONE', #43, #189, #79 ) ;
#51 = CARTESIAN_POINT ( 'NONE',  ( 0.000000000000000000, 0.000000000000000000, 50.00000000000000000 ) ) ;
#52 = CC_DESIGN_PERSON_AND_ORGANIZATION_ASSIGNMENT ( #211, #40, ( #37 ) ) ;
#53 = ORIENTED_EDGE ( 'NONE', *, *, #44, .T. ) ;
#54 = DATE_AND_TIME ( #7, #261 ) ;
#55 = FACE_OUTER_BOUND ( 'NONE', #113, .T. ) ;
#56 = APPROVAL_DATE_TIME ( #112, #234 ) ;
#57 = CARTESIAN_POINT ( 'NONE',  ( 50.00000000000000000, 6.123233995736766085E-15, 600.0000000000001137 ) ) ;
#58 = CARTESIAN_POINT ( 'NONE',  ( 0.000000000000000000, 0.000000000000000000, 50.00000000000000000 ) ) ;
#59 = DIRECTION ( 'NONE',  ( -0.000000000000000000, -0.000000000000000000, -1.000000000000000000 ) ) ;
#60 = APPROVAL_STATUS ( 'not_yet_approved' ) ;
#61 = VECTOR ( 'NONE', #59, 1000.000000000000000 ) ;
#62 = DATE_AND_TIME ( #39, #163 ) ;
#63 = CIRCLE ( 'NONE', #181, 50.00000000000000000 ) ;
#64 = APPROVAL_ROLE ( '' ) ;
#65 = PERSON_AND_ORGANIZATION ( #97, #205 ) ;
#66 = VERTEX_POINT ( 'NONE', #117 ) ;
#67 = ORIENTED_EDGE ( 'NONE', *, *, #87, .T. ) ;
#68 = CARTESIAN_POINT ( 'NONE',  ( 0.000000000000000000, 49.99999999999999289, 650.0000000000000000 ) ) ;
#69 = ORIENTED_EDGE ( 'NONE', *, *, #87, .F. ) ;
#70 = APPROVAL_PERSON_ORGANIZATION ( #18, #28, #64 ) ;
#71 = CC_DESIGN_DATE_AND_TIME_ASSIGNMENT ( #54, #151, ( #31 ) ) ;
#72 = CARTESIAN_POINT ( 'NONE',  ( -150.0000000000000284, 0.000000000000000000, 50.00000000000000000 ) ) ;
#73 = CARTESIAN_POINT ( 'NONE',  ( -50.00000000000000000, 0.000000000000000000, 600.0000000000000000 ) ) ;
#74 = CARTESIAN_POINT ( 'NONE',  ( 0.000000000000000000, 0.000000000000000000, 0.000000000000000000 ) ) ;
#75 = CARTESIAN_POINT ( 'NONE',  ( 0.000000000000000000, 0.000000000000000000, 650.0000000000000000 ) ) ;
#76 = DIRECTION ( 'NONE',  ( -1.000000000000000000, 0.000000000000000000, 0.000000000000000000 ) ) ;
#77 = CARTESIAN_POINT ( 'NONE',  ( 0.000000000000000000, 0.000000000000000000, 50.00000000000000000 ) ) ;
#78 = LOCAL_TIME ( 19, 0, 18.00000000000000000, #104 ) ;
#79 = DIRECTION ( 'NONE',  ( 1.000000000000000000, 0.000000000000000000, 0.000000000000000000 ) ) ;
#80 = DIRECTION ( 'NONE',  ( -0.000000000000000000, -0.000000000000000000, -1.000000000000000000 ) ) ;
#81 = LINE ( 'NONE', #185, #227 ) ;
#82 = LOCAL_TIME ( 19, 0, 18.00000000000000000, #105 ) ;
#83 = APPROVAL_DATE_TIME ( #19, #183 ) ;
#84 = PERSON_AND_ORGANIZATION_ROLE ( 'creator' ) ;
#85 = ORIENTED_EDGE ( 'NONE', *, *, #165, .F. ) ;
#86 = APPROVAL_PERSON_ORGANIZATION ( #136, #234, #139 ) ;
#87 = EDGE_CURVE ( 'NONE', #217, #265, #14, .T. ) ;
#88 = EDGE_LOOP ( 'NONE', ( #133, #134 ) ) ;
#89 = PRODUCT_DEFINITION_SHAPE ( 'NONE', 'NONE',  #191 ) ;
#90 = AXIS2_PLACEMENT_3D ( 'NONE', #13, #145, #180 ) ;
#91 = ORIENTED_EDGE ( 'NONE', *, *, #262, .F. ) ;
#92 = VERTEX_POINT ( 'NONE', #10 ) ;
#93 = ADVANCED_FACE ( 'NONE', ( #161 ), #33, .T. ) ;
#94 = CARTESIAN_POINT ( 'NONE',  ( -50.00000000000000000, 0.000000000000000000, 50.00000000000000000 ) ) ;
#95 = CC_DESIGN_APPROVAL ( #183, ( #191 ) ) ;
#96 = DIRECTION ( 'NONE',  ( -1.000000000000000000, 0.000000000000000000, 0.000000000000000000 ) ) ;
#97 = PERSON ( 'UNSPECIFIED', 'UNSPECIFIED', 'UNSPECIFIED', ('UNSPECIFIED'), ('UNSPECIFIED'), ('UNSPECIFIED') ) ;
#98 = CARTESIAN_POINT ( 'NONE',  ( 0.000000000000000000, 0.000000000000000000, 50.00000000000000000 ) ) ;
#99 = DIRECTION ( 'NONE',  ( -0.000000000000000000, -0.000000000000000000, -1.000000000000000000 ) ) ;
#100 = CIRCLE ( 'NONE', #272, 150.0000000000000284 ) ;
#101 = DIRECTION ( 'NONE',  ( 0.000000000000000000, 0.000000000000000000, 1.000000000000000000 ) ) ;
#102 = CALENDAR_DATE ( 2025, 11, 11 ) ;
#103 = APPROVAL_DATE_TIME ( #190, #28 ) ;
#104 = COORDINATED_UNIVERSAL_TIME_OFFSET ( 3, 30, .AHEAD. ) ;
#105 = COORDINATED_UNIVERSAL_TIME_OFFSET ( 3, 30, .AHEAD. ) ;
#106 = ADVANCED_FACE ( 'NONE', ( #225 ), #17, .F. ) ;
#107 = CARTESIAN_POINT ( 'NONE',  ( 0.000000000000000000, 49.99999999999999289, 650.0000000000000000 ) ) ;
#108 = CC_DESIGN_APPROVAL ( #28, ( #233 ) ) ;
#109 = CALENDAR_DATE ( 2025, 11, 11 ) ;
#110 = DIRECTION ( 'NONE',  ( 0.000000000000000000, 0.000000000000000000, 1.000000000000000000 ) ) ;
#111 = CC_DESIGN_SECURITY_CLASSIFICATION ( #31, ( #233 ) ) ;
#112 = DATE_AND_TIME ( #109, #138 ) ;
#113 = EDGE_LOOP ( 'NONE', ( #132, #219, #69, #48, #49 ) ) ;
#114 = ORIENTED_EDGE ( 'NONE', *, *, #22, .T. ) ;
#115 = ORIENTED_EDGE ( 'NONE', *, *, #41, .F. ) ;
#116 = CARTESIAN_POINT ( 'NONE',  ( -50.00000000000000000, 29.28932188134525205, 600.0000000000000000 ) ) ;
#117 = CARTESIAN_POINT ( 'NONE',  ( -150.0000000000000284, 0.000000000000000000, 50.00000000000000000 ) ) ;
#118 = VECTOR ( 'NONE', #249, 1000.000000000000000 ) ;
#119 = CARTESIAN_POINT ( 'NONE',  ( 0.000000000000000000, 0.000000000000000000, 50.00000000000000000 ) ) ;
#120 = ADVANCED_FACE ( 'NONE', ( #268 ), #252, .T. ) ;
#121 = DIRECTION ( 'NONE',  ( -0.000000000000000000, -0.000000000000000000, -1.000000000000000000 ) ) ;
#122 = DIRECTION ( 'NONE',  ( 1.000000000000000000, 0.000000000000000000, 0.000000000000000000 ) ) ;
#123 = CARTESIAN_POINT ( 'NONE',  ( -29.28932188134523784, -50.00000000000001421, 620.7106781186547551 ) ) ;
#124 = CC_DESIGN_PERSON_AND_ORGANIZATION_ASSIGNMENT ( #169, #11, ( #233 ) ) ;
#125 = CARTESIAN_POINT ( 'NONE',  ( 29.28932188134525205, 50.00000000000001421, 620.7106781186547551 ) ) ;
#126 =( NAMED_UNIT ( * ) PLANE_ANGLE_UNIT ( ) SI_UNIT ( $, .RADIAN. ) );
#127 = DIRECTION ( 'NONE',  ( 0.000000000000000000, 0.000000000000000000, 1.000000000000000000 ) ) ;
#128 = AXIS2_PLACEMENT_3D ( 'NONE', #119, #178, #96 ) ;
#129 = CYLINDRICAL_SURFACE ( 'NONE', #176, 50.00000000000004263 ) ;
#130 = PERSON_AND_ORGANIZATION ( #97, #205 ) ;
#131 = APPROVAL_STATUS ( 'not_yet_approved' ) ;
#132 = ORIENTED_EDGE ( 'NONE', *, *, #274, .F. ) ;
#133 = ORIENTED_EDGE ( 'NONE', *, *, #141, .F. ) ;
#134 = ORIENTED_EDGE ( 'NONE', *, *, #208, .F. ) ;
#135 = CARTESIAN_POINT ( 'NONE',  ( 150.0000000000000284, 1.836970198721030062E-14, 50.00000000000000000 ) ) ;
#136 = PERSON_AND_ORGANIZATION ( #97, #205 ) ;
#137 = FACE_OUTER_BOUND ( 'NONE', #220, .T. ) ;
#138 = LOCAL_TIME ( 19, 0, 18.00000000000000000, #224 ) ;
#139 = APPROVAL_ROLE ( '' ) ;
#140 = CYLINDRICAL_SURFACE ( 'NONE', #172, 50.00000000000000000 ) ;
#141 = EDGE_CURVE ( 'NONE', #25, #245, #63, .T. ) ;
#142 = DIRECTION ( 'NONE',  ( 1.000000000000000000, 0.000000000000000000, -0.000000000000000000 ) ) ;
#143 = PLANE ( 'NONE',  #197 ) ;
#144 = CC_DESIGN_PERSON_AND_ORGANIZATION_ASSIGNMENT ( #65, #84, ( #233 ) ) ;
#145 = DIRECTION ( 'NONE',  ( 0.000000000000000000, 0.000000000000000000, 1.000000000000000000 ) ) ;
#146 = AXIS2_PLACEMENT_3D ( 'NONE', #42, #127, #235 ) ;
#147 = CALENDAR_DATE ( 2025, 11, 11 ) ;
#148 = DIRECTION ( 'NONE',  ( 0.000000000000000000, 0.000000000000000000, 1.000000000000000000 ) ) ;
#149 = APPLICATION_PROTOCOL_DEFINITION ( 'international standard', 'config_control_design', 1994, #215 ) ;
#150 = DATE_TIME_ROLE ( 'creation_date' ) ;
#151 = DATE_TIME_ROLE ( 'classification_date' ) ;
#152 = ORIENTED_EDGE ( 'NONE', *, *, #256, .T. ) ;
#153 = MANIFOLD_SOLID_BREP ( 'Cut-Extrude1', #242 ) ;
#154 = EDGE_LOOP ( 'NONE', ( #91, #26, #170, #85, #157 ) ) ;
#155 = ORIENTED_EDGE ( 'NONE', *, *, #218, .F. ) ;
#156 = EDGE_LOOP ( 'NONE', ( #196, #8, #174, #47 ) ) ;
#157 = ORIENTED_EDGE ( 'NONE', *, *, #22, .F. ) ;
#158 = DIRECTION ( 'NONE',  ( -0.000000000000000000, -0.000000000000000000, -1.000000000000000000 ) ) ;
#159 = CARTESIAN_POINT ( 'NONE',  ( 29.28932188134524139, -50.00000000000001421, 620.7106781186547551 ) ) ;
#160 = DIRECTION ( 'NONE',  ( -0.000000000000000000, -0.000000000000000000, -1.000000000000000000 ) ) ;
#161 = FACE_OUTER_BOUND ( 'NONE', #156, .T. ) ;
#162 = DIRECTION ( 'NONE',  ( 0.000000000000000000, 0.000000000000000000, 1.000000000000000000 ) ) ;
#163 = LOCAL_TIME ( 19, 0, 18.00000000000000000, #213 ) ;
#164 = DESIGN_CONTEXT ( 'detailed design', #236, 'design' ) ;
#165 = EDGE_CURVE ( 'NONE', #217, #25, #251, .T. ) ;
#166 = AXIS2_PLACEMENT_3D ( 'NONE', #75, #160, #206 ) ;
#167 = ADVANCED_FACE ( 'NONE', ( #55 ), #140, .T. ) ;
#168 = MECHANICAL_CONTEXT ( 'NONE', #215, 'mechanical' ) ;
#169 = PERSON_AND_ORGANIZATION ( #97, #205 ) ;
#170 = ORIENTED_EDGE ( 'NONE', *, *, #208, .T. ) ;
#171 = ORIENTED_EDGE ( 'NONE', *, *, #262, .T. ) ;
#172 = AXIS2_PLACEMENT_3D ( 'NONE', #179, #99, #76 ) ;
#173 = ORIENTED_EDGE ( 'NONE', *, *, #256, .F. ) ;
#174 = ORIENTED_EDGE ( 'NONE', *, *, #41, .T. ) ;
#175 = CARTESIAN_POINT ( 'NONE',  ( -50.00000000000000000, 0.000000000000000000, 600.0000000000000000 ) ) ;
#176 = AXIS2_PLACEMENT_3D ( 'NONE', #1, #241, #148 ) ;
#177 = PRODUCT_RELATED_PRODUCT_CATEGORY ( 'detail', '', ( #37 ) ) ;
#178 = DIRECTION ( 'NONE',  ( -0.000000000000000000, -0.000000000000000000, -1.000000000000000000 ) ) ;
#179 = CARTESIAN_POINT ( 'NONE',  ( 0.000000000000000000, 0.000000000000000000, 650.0000000000000000 ) ) ;
#180 = DIRECTION ( 'NONE',  ( 1.000000000000000000, 0.000000000000000000, 0.000000000000000000 ) ) ;
#181 = AXIS2_PLACEMENT_3D ( 'NONE', #98, #257, #15 ) ;
#182 = CARTESIAN_POINT ( 'NONE',  ( -50.00000000000000000, 0.000000000000000000, 650.0000000000000000 ) ) ;
#183 = APPROVAL ( #60, 'UNSPECIFIED' ) ;
#184 = DIRECTION ( 'NONE',  ( 1.000000000000000000, 0.000000000000000000, -0.000000000000000000 ) ) ;
#185 = CARTESIAN_POINT ( 'NONE',  ( 50.00000000000000000, 6.123233995736766085E-15, 650.0000000000000000 ) ) ;
#186 = ADVANCED_FACE ( 'NONE', ( #270, #137 ), #143, .T. ) ;
#187 = APPLICATION_PROTOCOL_DEFINITION ( 'international standard', 'config_control_design', 1994, #236 ) ;
#188 = AXIS2_PLACEMENT_3D ( 'NONE', #255, #101, #184 ) ;
#189 = DIRECTION ( 'NONE',  ( 0.000000000000000000, 0.000000000000000000, 1.000000000000000000 ) ) ;
#190 = DATE_AND_TIME ( #102, #82 ) ;
#191 = PRODUCT_DEFINITION ( 'UNKNOWN', '', #233, #164 ) ;
#192 = APPROVAL_PERSON_ORGANIZATION ( #193, #183, #210 ) ;
#193 = PERSON_AND_ORGANIZATION ( #97, #205 ) ;
#194 = PERSON_AND_ORGANIZATION_ROLE ( 'classification_officer' ) ;
#195 = EDGE_LOOP ( 'NONE', ( #155, #173 ) ) ;
#196 = ORIENTED_EDGE ( 'NONE', *, *, #222, .F. ) ;
#197 = AXIS2_PLACEMENT_3D ( 'NONE', #77, #162, #142 ) ;
#198 = ORIENTED_EDGE ( 'NONE', *, *, #2, .T. ) ;
#199 = ORIENTED_EDGE ( 'NONE', *, *, #222, .T. ) ;
#200 = CARTESIAN_POINT ( 'NONE',  ( -50.00000000000000000, -29.28932188134525205, 600.0000000000000000 ) ) ;
#201 = AXIS2_PLACEMENT_3D ( 'NONE', #51, #110, #27 ) ;
#202 = CARTESIAN_POINT ( 'NONE',  ( 50.00000000000000000, -29.28932188134525205, 600.0000000000000000 ) ) ;
#203 = FACE_OUTER_BOUND ( 'NONE', #154, .T. ) ;
#204 = CARTESIAN_POINT ( 'NONE',  ( 0.000000000000000000, 0.000000000000000000, 50.00000000000000000 ) ) ;
#205 = ORGANIZATION ( 'UNSPECIFIED', 'UNSPECIFIED', '' ) ;
#206 = DIRECTION ( 'NONE',  ( -1.000000000000000000, 0.000000000000000000, 0.000000000000000000 ) ) ;
#207 =( LENGTH_UNIT ( ) NAMED_UNIT ( * ) SI_UNIT ( .MILLI., .METRE. ) );
#208 = EDGE_CURVE ( 'NONE', #245, #25, #238, .T. ) ;
#209 = ADVANCED_BREP_SHAPE_REPRESENTATION ( 'Part1', ( #153, #146 ), #212 ) ;
#210 = APPROVAL_ROLE ( '' ) ;
#211 = PERSON_AND_ORGANIZATION ( #97, #205 ) ;
#212 =( GEOMETRIC_REPRESENTATION_CONTEXT ( 3 ) GLOBAL_UNCERTAINTY_ASSIGNED_CONTEXT ( ( #248 ) ) GLOBAL_UNIT_ASSIGNED_CONTEXT ( ( #207, #126, #258 ) ) REPRESENTATION_CONTEXT ( 'NONE', 'WORKASPACE' ) );
#213 = COORDINATED_UNIVERSAL_TIME_OFFSET ( 3, 30, .AHEAD. ) ;
#214 = CARTESIAN_POINT ( 'NONE',  ( 50.00000000000000000, 6.123233995736766085E-15, 600.0000000000001137 ) ) ;
#215 = APPLICATION_CONTEXT ( 'configuration controlled 3d designs of mechanical parts and assemblies' ) ;
#216 = EDGE_LOOP ( 'NONE', ( #223, #199, #152, #115 ) ) ;
#217 = VERTEX_POINT ( 'NONE', #36 ) ;
#218 = EDGE_CURVE ( 'NONE', #92, #264, #100, .T. ) ;
#219 = ORIENTED_EDGE ( 'NONE', *, *, #44, .F. ) ;
#220 = EDGE_LOOP ( 'NONE', ( #263, #198 ) ) ;
#221 = AXIS2_PLACEMENT_3D ( 'NONE', #58, #232, #38 ) ;
#222 = EDGE_CURVE ( 'NONE', #9, #264, #273, .T. ) ;
#223 = ORIENTED_EDGE ( 'NONE', *, *, #2, .F. ) ;
#224 = COORDINATED_UNIVERSAL_TIME_OFFSET ( 3, 30, .AHEAD. ) ;
#225 = FACE_OUTER_BOUND ( 'NONE', #195, .T. ) ;
#226 = CARTESIAN_POINT ( 'NONE',  ( 1.387778780781445676E-14, -50.00000000000000711, 650.0000000000000000 ) ) ;
#227 = VECTOR ( 'NONE', #80, 1000.000000000000000 ) ;
#228 =( BOUNDED_CURVE ( )  B_SPLINE_CURVE ( 3, ( #68, #30, #116, #175 ),
 .UNSPECIFIED., .F., .F. ) 
 B_SPLINE_CURVE_WITH_KNOTS ( ( 4, 4 ),
 ( 4.712388980384689674, 6.283185307179586232 ),
 .UNSPECIFIED. ) 
 CURVE ( )  GEOMETRIC_REPRESENTATION_ITEM ( )  RATIONAL_B_SPLINE_CURVE ( ( 1.000000000000000000, 0.8047378541243649375, 0.8047378541243649375, 1.000000000000000000 ) ) 
 REPRESENTATION_ITEM ( '' )  );
#229 = DIRECTION ( 'NONE',  ( 0.000000000000000000, 0.000000000000000000, 1.000000000000000000 ) ) ;
#230 = EDGE_CURVE ( 'NONE', #66, #9, #253, .T. ) ;
#231 = CARTESIAN_POINT ( 'NONE',  ( 50.00000000000000000, 6.123233995736766085E-15, 600.0000000000001137 ) ) ;
#232 = DIRECTION ( 'NONE',  ( 0.000000000000000000, 0.000000000000000000, 1.000000000000000000 ) ) ;
#233 = PRODUCT_DEFINITION_FORMATION_WITH_SPECIFIED_SOURCE ( 'ANY', '', #37, .NOT_KNOWN. ) ;
#234 = APPROVAL ( #131, 'UNSPECIFIED' ) ;
#235 = DIRECTION ( 'NONE',  ( 1.000000000000000000, 0.000000000000000000, 0.000000000000000000 ) ) ;
#236 = APPLICATION_CONTEXT ( 'configuration controlled 3d designs of mechanical parts and assemblies' ) ;
#237 = CARTESIAN_POINT ( 'NONE',  ( 1.387778780781445676E-14, -50.00000000000000711, 650.0000000000000000 ) ) ;
#238 = CIRCLE ( 'NONE', #90, 50.00000000000000000 ) ;
#239 =( BOUNDED_CURVE ( )  B_SPLINE_CURVE ( 3, ( #226, #159, #202, #57 ),
 .UNSPECIFIED., .F., .F. ) 
 B_SPLINE_CURVE_WITH_KNOTS ( ( 4, 4 ),
 ( 4.712388980384689674, 6.283185307179586232 ),
 .UNSPECIFIED. ) 
 CURVE ( )  GEOMETRIC_REPRESENTATION_ITEM ( )  RATIONAL_B_SPLINE_CURVE ( ( 1.000000000000000000, 0.8047378541243649375, 0.8047378541243649375, 1.000000000000000000 ) ) 
 REPRESENTATION_ITEM ( '' )  );
#240 = ADVANCED_FACE ( 'NONE', ( #203 ), #271, .T. ) ;
#241 = DIRECTION ( 'NONE',  ( -1.000000000000000000, 0.000000000000000000, 0.000000000000000000 ) ) ;
#242 = CLOSED_SHELL ( 'NONE', ( #120, #240, #167, #93, #186, #106, #266 ) ) ;
#243 = VERTEX_POINT ( 'NONE', #254 ) ;
#244 = CC_DESIGN_DATE_AND_TIME_ASSIGNMENT ( #62, #150, ( #191 ) ) ;
#245 = VERTEX_POINT ( 'NONE', #275 ) ;
#246 = VERTEX_POINT ( 'NONE', #231 ) ;
#247 = EDGE_LOOP ( 'NONE', ( #53, #171, #114, #67 ) ) ;
#248 = UNCERTAINTY_MEASURE_WITH_UNIT (LENGTH_MEASURE( 1.000000000000000082E-05 ), #207, 'distance_accuracy_value', 'NONE');
#249 = DIRECTION ( 'NONE',  ( -0.000000000000000000, -0.000000000000000000, -1.000000000000000000 ) ) ;
#250 = PERSON_AND_ORGANIZATION ( #97, #205 ) ;
#251 = LINE ( 'NONE', #182, #61 ) ;
#252 = CYLINDRICAL_SURFACE ( 'NONE', #34, 150.0000000000000284 ) ;
#253 = CIRCLE ( 'NONE', #221, 150.0000000000000284 ) ;
#254 = CARTESIAN_POINT ( 'NONE',  ( 0.000000000000000000, 49.99999999999999289, 650.0000000000000000 ) ) ;
#255 = CARTESIAN_POINT ( 'NONE',  ( 0.000000000000000000, 0.000000000000000000, 0.000000000000000000 ) ) ;
#256 = EDGE_CURVE ( 'NONE', #264, #92, #16, .T. ) ;
#257 = DIRECTION ( 'NONE',  ( 0.000000000000000000, 0.000000000000000000, 1.000000000000000000 ) ) ;
#258 =( NAMED_UNIT ( * ) SI_UNIT ( $, .STERADIAN. ) SOLID_ANGLE_UNIT ( ) );
#259 = PERSON_AND_ORGANIZATION_ROLE ( 'creator' ) ;
#260 = CARTESIAN_POINT ( 'NONE',  ( 150.0000000000000284, 1.836970198721030062E-14, 0.000000000000000000 ) ) ;
#261 = LOCAL_TIME ( 19, 0, 18.00000000000000000, #45 ) ;
#262 = EDGE_CURVE ( 'NONE', #246, #243, #23, .T. ) ;
#263 = ORIENTED_EDGE ( 'NONE', *, *, #230, .T. ) ;
#264 = VERTEX_POINT ( 'NONE', #260 ) ;
#265 = VERTEX_POINT ( 'NONE', #237 ) ;
#266 = ADVANCED_FACE ( 'NONE', ( #3 ), #129, .F. ) ;
#267 = LINE ( 'NONE', #72, #118 ) ;
#268 = FACE_OUTER_BOUND ( 'NONE', #216, .T. ) ;
#269 = CC_DESIGN_PERSON_AND_ORGANIZATION_ASSIGNMENT ( #250, #194, ( #31 ) ) ;
#270 = FACE_BOUND ( 'NONE', #88, .T. ) ;
#271 = CYLINDRICAL_SURFACE ( 'NONE', #166, 50.00000000000000000 ) ;
#272 = AXIS2_PLACEMENT_3D ( 'NONE', #74, #229, #122 ) ;
#273 = LINE ( 'NONE', #35, #29 ) ;
#274 = EDGE_CURVE ( 'NONE', #246, #245, #81, .T. ) ;
#275 = CARTESIAN_POINT ( 'NONE',  ( 50.00000000000000000, 6.123233995736766085E-15, 50.00000000000000000 ) ) ;
ENDSEC;
END-ISO-10303-21;
