ISO-10303-21;
HEADER;
FILE_DESCRIPTION (( 'STEP AP203' ),
    '1' );
FILE_NAME ('Part3.STEP',
    '2025-11-11T16:45:19',
    ( '' ),
    ( '' ),
    'SwSTEP 2.0',
    'SolidWorks 2024',
    '' );
FILE_SCHEMA (( 'CONFIG_CONTROL_DESIGN' ));
ENDSEC;

DATA;
#1 = DIRECTION ( 'NONE',  ( -1.000000000000000000, 0.000000000000000000, 0.000000000000000000 ) ) ;
#2 = ORIENTED_EDGE ( 'NONE', *, *, #286, .F. ) ;
#3 = EDGE_LOOP ( 'NONE', ( #67, #166, #228, #64, #163 ) ) ;
#4 = ADVANCED_FACE ( 'NONE', ( #80 ), #308, .F. ) ;
#5 = EDGE_LOOP ( 'NONE', ( #246, #303, #11, #33 ) ) ;
#6 = CIRCLE ( 'NONE', #83, 15.00000000000001421 ) ;
#7 = AXIS2_PLACEMENT_3D ( 'NONE', #248, #346, #20 ) ;
#8 = CARTESIAN_POINT ( 'NONE',  ( -25.00000000000000000, 0.000000000000000000, 50.00000000000000000 ) ) ;
#9 = DIRECTION ( 'NONE',  ( -0.000000000000000000, -0.000000000000000000, -1.000000000000000000 ) ) ;
#10 = DIRECTION ( 'NONE',  ( -0.000000000000000000, 0.000000000000000000, 1.000000000000000000 ) ) ;
#11 = ORIENTED_EDGE ( 'NONE', *, *, #370, .F. ) ;
#12 = CC_DESIGN_PERSON_AND_ORGANIZATION_ASSIGNMENT ( #173, #312, ( #19 ) ) ;
#13 = AXIS2_PLACEMENT_3D ( 'NONE', #144, #237, #102 ) ;
#14 = CARTESIAN_POINT ( 'NONE',  ( 0.000000000000000000, 0.000000000000000000, 0.000000000000000000 ) ) ;
#15 = ORIENTED_EDGE ( 'NONE', *, *, #52, .F. ) ;
#16 = APPLICATION_PROTOCOL_DEFINITION ( 'international standard', 'config_control_design', 1994, #128 ) ;
#17 = CYLINDRICAL_SURFACE ( 'NONE', #296, 50.00000000000000000 ) ;
#18 = APPROVAL_STATUS ( 'not_yet_approved' ) ;
#19 = PRODUCT ( 'Part3', 'Part3', '', ( #198 ) ) ;
#20 = DIRECTION ( 'NONE',  ( 1.000000000000000000, 0.000000000000000000, 0.000000000000000000 ) ) ;
#21 = DIRECTION ( 'NONE',  ( 1.000000000000000000, 0.000000000000000000, 0.000000000000000000 ) ) ;
#22 = AXIS2_PLACEMENT_3D ( 'NONE', #140, #202, #241 ) ;
#23 = DATE_AND_TIME ( #153, #355 ) ;
#24 = PERSON_AND_ORGANIZATION ( #347, #46 ) ;
#25 = DIRECTION ( 'NONE',  ( -0.000000000000000000, -0.000000000000000000, -1.000000000000000000 ) ) ;
#26 = EDGE_CURVE ( 'NONE', #59, #345, #322, .T. ) ;
#27 = LINE ( 'NONE', #151, #332 ) ;
#28 = AXIS2_PLACEMENT_3D ( 'NONE', #193, #231, #1 ) ;
#29 = DIRECTION ( 'NONE',  ( 1.000000000000000000, 0.000000000000000000, 0.000000000000000000 ) ) ;
#30 = CARTESIAN_POINT ( 'NONE',  ( 449.9999999999999432, 30.00000000000000000, 0.000000000000000000 ) ) ;
#31 = EDGE_CURVE ( 'NONE', #43, #122, #6, .T. ) ;
#32 = CARTESIAN_POINT ( 'NONE',  ( 450.0000000000000000, 0.000000000000000000, 50.00000000000000000 ) ) ;
#33 = ORIENTED_EDGE ( 'NONE', *, *, #276, .T. ) ;
#34 = CIRCLE ( 'NONE', #184, 50.00000000000000000 ) ;
#35 = VERTEX_POINT ( 'NONE', #206 ) ;
#36 = EDGE_LOOP ( 'NONE', ( #299, #190, #266, #15 ) ) ;
#37 = CC_DESIGN_PERSON_AND_ORGANIZATION_ASSIGNMENT ( #24, #327, ( #150 ) ) ;
#38 = ORIENTED_EDGE ( 'NONE', *, *, #211, .F. ) ;
#39 = VERTEX_POINT ( 'NONE', #169 ) ;
#40 = CIRCLE ( 'NONE', #263, 25.00000000000000000 ) ;
#41 = VECTOR ( 'NONE', #368, 1000.000000000000000 ) ;
#42 = LINE ( 'NONE', #235, #196 ) ;
#43 = VERTEX_POINT ( 'NONE', #49 ) ;
#44 = VERTEX_POINT ( 'NONE', #8 ) ;
#45 = CARTESIAN_POINT ( 'NONE',  ( 0.000000000000000000, 0.000000000000000000, 50.00000000000000000 ) ) ;
#46 = ORGANIZATION ( 'UNSPECIFIED', 'UNSPECIFIED', '' ) ;
#47 = DIRECTION ( 'NONE',  ( -1.000000000000000000, 0.000000000000000000, 0.000000000000000000 ) ) ;
#48 = ADVANCED_FACE ( 'NONE', ( #372 ), #313, .T. ) ;
#49 = CARTESIAN_POINT ( 'NONE',  ( 435.0000000000000000, 0.000000000000000000, 0.000000000000000000 ) ) ;
#50 = AXIS2_PLACEMENT_3D ( 'NONE', #270, #271, #233 ) ;
#51 = CIRCLE ( 'NONE', #310, 29.99999999999997158 ) ;
#52 = EDGE_CURVE ( 'NONE', #39, #383, #381, .T. ) ;
#53 = COORDINATED_UNIVERSAL_TIME_OFFSET ( 3, 30, .AHEAD. ) ;
#54 = CARTESIAN_POINT ( 'NONE',  ( 0.000000000000000000, -50.00000000000000000, 50.00000000000000000 ) ) ;
#55 = CALENDAR_DATE ( 2025, 11, 11 ) ;
#56 = AXIS2_PLACEMENT_3D ( 'NONE', #45, #379, #47 ) ;
#57 = AXIS2_PLACEMENT_3D ( 'NONE', #14, #139, #349 ) ;
#58 = ORIENTED_EDGE ( 'NONE', *, *, #126, .F. ) ;
#59 = VERTEX_POINT ( 'NONE', #105 ) ;
#60 = CIRCLE ( 'NONE', #207, 25.00000000000000000 ) ;
#61 = ORIENTED_EDGE ( 'NONE', *, *, #31, .F. ) ;
#62 = DESIGN_CONTEXT ( 'detailed design', #128, 'design' ) ;
#63 = APPROVAL ( #110, 'UNSPECIFIED' ) ;
#64 = ORIENTED_EDGE ( 'NONE', *, *, #203, .T. ) ;
#65 = FACE_OUTER_BOUND ( 'NONE', #334, .T. ) ;
#66 = CARTESIAN_POINT ( 'NONE',  ( 0.000000000000000000, 0.000000000000000000, 0.000000000000000000 ) ) ;
#67 = ORIENTED_EDGE ( 'NONE', *, *, #337, .T. ) ;
#68 = DIRECTION ( 'NONE',  ( -0.000000000000000000, 0.000000000000000000, 1.000000000000000000 ) ) ;
#69 = FACE_BOUND ( 'NONE', #200, .T. ) ;
#70 = AXIS2_PLACEMENT_3D ( 'NONE', #402, #384, #167 ) ;
#71 = ADVANCED_FACE ( 'NONE', ( #240 ), #17, .T. ) ;
#72 = LINE ( 'NONE', #199, #264 ) ;
#73 = FACE_OUTER_BOUND ( 'NONE', #133, .T. ) ;
#74 = DATE_AND_TIME ( #175, #281 ) ;
#75 = DIRECTION ( 'NONE',  ( 0.04440061362072040413, 0.9990138064662087425, -0.000000000000000000 ) ) ;
#76 = CARTESIAN_POINT ( 'NONE',  ( 0.000000000000000000, 0.000000000000000000, 50.00000000000000000 ) ) ;
#77 = ADVANCED_FACE ( 'NONE', ( #98, #275, #69 ), #278, .T. ) ;
#78 = DIRECTION ( 'NONE',  ( -0.000000000000000000, 0.000000000000000000, 1.000000000000000000 ) ) ;
#79 = COORDINATED_UNIVERSAL_TIME_OFFSET ( 3, 30, .AHEAD. ) ;
#80 = FACE_OUTER_BOUND ( 'NONE', #176, .T. ) ;
#81 = DIRECTION ( 'NONE',  ( -0.000000000000000000, -0.000000000000000000, -1.000000000000000000 ) ) ;
#82 = ADVANCED_FACE ( 'NONE', ( #73 ), #406, .T. ) ;
#83 = AXIS2_PLACEMENT_3D ( 'NONE', #403, #78, #174 ) ;
#84 = VECTOR ( 'NONE', #180, 1000.000000000000000 ) ;
#85 = SHAPE_DEFINITION_REPRESENTATION ( #395, #168 ) ;
#86 = PERSON_AND_ORGANIZATION ( #347, #46 ) ;
#87 = CYLINDRICAL_SURFACE ( 'NONE', #247, 25.00000000000000000 ) ;
#88 = PLANE ( 'NONE',  #297 ) ;
#89 = CARTESIAN_POINT ( 'NONE',  ( 435.0000000000000000, 0.000000000000000000, 50.00000000000000000 ) ) ;
#90 = ORIENTED_EDGE ( 'NONE', *, *, #93, .F. ) ;
#91 = ORIENTED_EDGE ( 'NONE', *, *, #245, .T. ) ;
#92 = ORIENTED_EDGE ( 'NONE', *, *, #333, .F. ) ;
#93 = EDGE_CURVE ( 'NONE', #44, #383, #318, .T. ) ;
#94 = ORIENTED_EDGE ( 'NONE', *, *, #52, .T. ) ;
#95 = LINE ( 'NONE', #229, #41 ) ;
#96 = ORIENTED_EDGE ( 'NONE', *, *, #99, .F. ) ;
#97 = EDGE_CURVE ( 'NONE', #338, #374, #183, .T. ) ;
#98 = FACE_OUTER_BOUND ( 'NONE', #3, .T. ) ;
#99 = EDGE_CURVE ( 'NONE', #108, #44, #340, .T. ) ;
#100 = PERSON_AND_ORGANIZATION_ROLE ( 'creator' ) ;
#101 = DIRECTION ( 'NONE',  ( 1.000000000000000000, 0.000000000000000000, 0.000000000000000000 ) ) ;
#102 = DIRECTION ( 'NONE',  ( -1.000000000000000000, 0.000000000000000000, 0.000000000000000000 ) ) ;
#103 = CC_DESIGN_APPROVAL ( #192, ( #113 ) ) ;
#104 = CYLINDRICAL_SURFACE ( 'NONE', #70, 29.99999999999997158 ) ;
#105 = CARTESIAN_POINT ( 'NONE',  ( -50.00000000000000000, 0.000000000000000000, 0.000000000000000000 ) ) ;
#106 = CARTESIAN_POINT ( 'NONE',  ( 0.000000000000000000, 0.000000000000000000, 0.000000000000000000 ) ) ;
#107 = CC_DESIGN_PERSON_AND_ORGANIZATION_ASSIGNMENT ( #249, #257, ( #113 ) ) ;
#108 = VERTEX_POINT ( 'NONE', #280 ) ;
#109 = APPLICATION_CONTEXT ( 'configuration controlled 3d designs of mechanical parts and assemblies' ) ;
#110 = APPROVAL_STATUS ( 'not_yet_approved' ) ;
#111 = ORIENTED_EDGE ( 'NONE', *, *, #170, .F. ) ;
#112 = AXIS2_PLACEMENT_3D ( 'NONE', #376, #75, #289 ) ;
#113 = PRODUCT_DEFINITION_FORMATION_WITH_SPECIFIED_SOURCE ( 'ANY', '', #19, .NOT_KNOWN. ) ;
#114 = FACE_OUTER_BOUND ( 'NONE', #5, .T. ) ;
#115 = DIRECTION ( 'NONE',  ( -0.000000000000000000, 0.000000000000000000, 1.000000000000000000 ) ) ;
#116 = CARTESIAN_POINT ( 'NONE',  ( 0.000000000000000000, -50.00000000000000000, 50.00000000000000000 ) ) ;
#117 = LINE ( 'NONE', #182, #323 ) ;
#118 = CIRCLE ( 'NONE', #226, 50.00000000000000000 ) ;
#119 = CC_DESIGN_DATE_AND_TIME_ASSIGNMENT ( #213, #415, ( #150 ) ) ;
#120 = CARTESIAN_POINT ( 'NONE',  ( 2.217841301133564258, 49.90142927550517982, 50.00000000000000000 ) ) ;
#121 = LINE ( 'NONE', #261, #236 ) ;
#122 = VERTEX_POINT ( 'NONE', #152 ) ;
#123 = AXIS2_PLACEMENT_3D ( 'NONE', #210, #242, #136 ) ;
#124 = VERTEX_POINT ( 'NONE', #148 ) ;
#125 = VERTEX_POINT ( 'NONE', #258 ) ;
#126 = EDGE_CURVE ( 'NONE', #225, #363, #331, .T. ) ;
#127 = ORIENTED_EDGE ( 'NONE', *, *, #227, .T. ) ;
#128 = APPLICATION_CONTEXT ( 'configuration controlled 3d designs of mechanical parts and assemblies' ) ;
#129 = DIRECTION ( 'NONE',  ( 1.000000000000000000, 0.000000000000000000, 0.000000000000000000 ) ) ;
#130 =( GEOMETRIC_REPRESENTATION_CONTEXT ( 3 ) GLOBAL_UNCERTAINTY_ASSIGNED_CONTEXT ( ( #158 ) ) GLOBAL_UNIT_ASSIGNED_CONTEXT ( ( #147, #405, #209 ) ) REPRESENTATION_CONTEXT ( 'NONE', 'WORKASPACE' ) );
#131 = ORIENTED_EDGE ( 'NONE', *, *, #324, .T. ) ;
#132 = CC_DESIGN_PERSON_AND_ORGANIZATION_ASSIGNMENT ( #86, #291, ( #113 ) ) ;
#133 = EDGE_LOOP ( 'NONE', ( #189, #92, #393, #274 ) ) ;
#134 = DIRECTION ( 'NONE',  ( -0.000000000000000000, 0.000000000000000000, 1.000000000000000000 ) ) ;
#135 = ORIENTED_EDGE ( 'NONE', *, *, #26, .F. ) ;
#136 = DIRECTION ( 'NONE',  ( 1.000000000000000000, 0.000000000000000000, 0.000000000000000000 ) ) ;
#137 = VECTOR ( 'NONE', #390, 1000.000000000000000 ) ;
#138 = CC_DESIGN_APPROVAL ( #365, ( #150 ) ) ;
#139 = DIRECTION ( 'NONE',  ( -0.000000000000000000, 0.000000000000000000, 1.000000000000000000 ) ) ;
#140 = CARTESIAN_POINT ( 'NONE',  ( 450.0000000000000000, 0.000000000000000000, 0.000000000000000000 ) ) ;
#141 = ORIENTED_EDGE ( 'NONE', *, *, #243, .F. ) ;
#142 = EDGE_CURVE ( 'NONE', #330, #345, #420, .T. ) ;
#143 = APPROVAL_ROLE ( '' ) ;
#144 = CARTESIAN_POINT ( 'NONE',  ( 0.000000000000000000, 0.000000000000000000, 50.00000000000000000 ) ) ;
#145 = DIRECTION ( 'NONE',  ( -0.000000000000000000, -0.000000000000000000, -1.000000000000000000 ) ) ;
#146 = AXIS2_PLACEMENT_3D ( 'NONE', #284, #256, #29 ) ;
#147 =( LENGTH_UNIT ( ) NAMED_UNIT ( * ) SI_UNIT ( .MILLI., .METRE. ) );
#148 = CARTESIAN_POINT ( 'NONE',  ( -50.00000000000000000, 0.000000000000000000, 50.00000000000000000 ) ) ;
#149 = ADVANCED_FACE ( 'NONE', ( #219 ), #177, .F. ) ;
#150 = SECURITY_CLASSIFICATION ( '', '', #357 ) ;
#151 = CARTESIAN_POINT ( 'NONE',  ( 2.217841301133564258, -49.90142927550517982, 50.00000000000000000 ) ) ;
#152 = CARTESIAN_POINT ( 'NONE',  ( 465.0000000000000000, 1.836970198721034716E-15, 0.000000000000000000 ) ) ;
#153 = CALENDAR_DATE ( 2025, 11, 11 ) ;
#154 = CARTESIAN_POINT ( 'NONE',  ( 2.217841301133564258, 49.90142927550517982, 0.000000000000000000 ) ) ;
#155 = DIRECTION ( 'NONE',  ( -0.000000000000000000, 0.000000000000000000, 1.000000000000000000 ) ) ;
#156 = ORIENTED_EDGE ( 'NONE', *, *, #159, .F. ) ;
#157 = CC_DESIGN_SECURITY_CLASSIFICATION ( #150, ( #113 ) ) ;
#158 = UNCERTAINTY_MEASURE_WITH_UNIT (LENGTH_MEASURE( 1.000000000000000082E-05 ), #147, 'distance_accuracy_value', 'NONE');
#159 = EDGE_CURVE ( 'NONE', #383, #39, #40, .T. ) ;
#160 = ORIENTED_EDGE ( 'NONE', *, *, #422, .T. ) ;
#161 = EDGE_LOOP ( 'NONE', ( #141, #188, #348, #311 ) ) ;
#162 = ORIENTED_EDGE ( 'NONE', *, *, #245, .F. ) ;
#163 = ORIENTED_EDGE ( 'NONE', *, *, #409, .T. ) ;
#164 = DIRECTION ( 'NONE',  ( -1.000000000000000000, 0.000000000000000000, 0.000000000000000000 ) ) ;
#165 = DIRECTION ( 'NONE',  ( 0.000000000000000000, 0.000000000000000000, 1.000000000000000000 ) ) ;
#166 = ORIENTED_EDGE ( 'NONE', *, *, #370, .T. ) ;
#167 = DIRECTION ( 'NONE',  ( -1.000000000000000000, 0.000000000000000000, 0.000000000000000000 ) ) ;
#168 = ADVANCED_BREP_SHAPE_REPRESENTATION ( 'Part3', ( #208, #302 ), #130 ) ;
#169 = CARTESIAN_POINT ( 'NONE',  ( 25.00000000000000000, 3.061616997868383043E-15, 0.000000000000000000 ) ) ;
#170 = EDGE_CURVE ( 'NONE', #345, #335, #42, .T. ) ;
#171 = CC_DESIGN_APPROVAL ( #63, ( #358 ) ) ;
#172 = VECTOR ( 'NONE', #81, 1000.000000000000000 ) ;
#173 = PERSON_AND_ORGANIZATION ( #347, #46 ) ;
#174 = DIRECTION ( 'NONE',  ( 1.000000000000000000, 0.000000000000000000, 0.000000000000000000 ) ) ;
#175 = CALENDAR_DATE ( 2025, 11, 11 ) ;
#176 = EDGE_LOOP ( 'NONE', ( #328, #127, #156, #90 ) ) ;
#177 = CYLINDRICAL_SURFACE ( 'NONE', #221, 15.00000000000001421 ) ;
#178 = CARTESIAN_POINT ( 'NONE',  ( 449.9999999999999432, 30.00000000000000000, 50.00000000000000000 ) ) ;
#179 = COORDINATED_UNIVERSAL_TIME_OFFSET ( 3, 30, .AHEAD. ) ;
#180 = DIRECTION ( 'NONE',  ( -0.000000000000000000, -0.000000000000000000, -1.000000000000000000 ) ) ;
#181 = CC_DESIGN_DATE_AND_TIME_ASSIGNMENT ( #74, #201, ( #358 ) ) ;
#182 = CARTESIAN_POINT ( 'NONE',  ( 0.000000000000000000, 50.00000000000000000, 50.00000000000000000 ) ) ;
#183 = LINE ( 'NONE', #120, #354 ) ;
#184 = AXIS2_PLACEMENT_3D ( 'NONE', #76, #10, #407 ) ;
#185 = DIRECTION ( 'NONE',  ( -0.000000000000000000, -0.000000000000000000, -1.000000000000000000 ) ) ;
#186 = DIRECTION ( 'NONE',  ( -1.000000000000000000, 0.000000000000000000, 0.000000000000000000 ) ) ;
#187 = DIRECTION ( 'NONE',  ( -0.000000000000000000, -0.000000000000000000, -1.000000000000000000 ) ) ;
#188 = ORIENTED_EDGE ( 'NONE', *, *, #126, .T. ) ;
#189 = ORIENTED_EDGE ( 'NONE', *, *, #324, .F. ) ;
#190 = ORIENTED_EDGE ( 'NONE', *, *, #99, .T. ) ;
#191 = ORIENTED_EDGE ( 'NONE', *, *, #409, .F. ) ;
#192 = APPROVAL ( #18, 'UNSPECIFIED' ) ;
#193 = CARTESIAN_POINT ( 'NONE',  ( 450.0000000000000000, 0.000000000000000000, 50.00000000000000000 ) ) ;
#194 = ORIENTED_EDGE ( 'NONE', *, *, #333, .T. ) ;
#195 = DIRECTION ( 'NONE',  ( 0.9990138064662086315, 0.04440061362072039719, 0.000000000000000000 ) ) ;
#196 = VECTOR ( 'NONE', #195, 1000.000000000000114 ) ;
#197 = CARTESIAN_POINT ( 'NONE',  ( 0.000000000000000000, 0.000000000000000000, 50.00000000000000000 ) ) ;
#198 = MECHANICAL_CONTEXT ( 'NONE', #109, 'mechanical' ) ;
#199 = CARTESIAN_POINT ( 'NONE',  ( -50.00000000000000000, 0.000000000000000000, 50.00000000000000000 ) ) ;
#200 = EDGE_LOOP ( 'NONE', ( #398, #58 ) ) ;
#201 = DATE_TIME_ROLE ( 'creation_date' ) ;
#202 = DIRECTION ( 'NONE',  ( -0.000000000000000000, 0.000000000000000000, 1.000000000000000000 ) ) ;
#203 = EDGE_CURVE ( 'NONE', #338, #124, #118, .T. ) ;
#204 = ORIENTED_EDGE ( 'NONE', *, *, #31, .T. ) ;
#205 = DIRECTION ( 'NONE',  ( -0.000000000000000000, -0.000000000000000000, -1.000000000000000000 ) ) ;
#206 = CARTESIAN_POINT ( 'NONE',  ( 449.9999999999999432, -30.00000000000000000, 50.00000000000000000 ) ) ;
#207 = AXIS2_PLACEMENT_3D ( 'NONE', #385, #353, #21 ) ;
#208 = MANIFOLD_SOLID_BREP ( 'Boss-Extrude1', #215 ) ;
#209 =( NAMED_UNIT ( * ) SI_UNIT ( $, .STERADIAN. ) SOLID_ANGLE_UNIT ( ) );
#210 = CARTESIAN_POINT ( 'NONE',  ( 0.000000000000000000, 0.000000000000000000, 0.000000000000000000 ) ) ;
#211 = EDGE_CURVE ( 'NONE', #124, #59, #72, .T. ) ;
#212 = CARTESIAN_POINT ( 'NONE',  ( -25.00000000000000000, 0.000000000000000000, 0.000000000000000000 ) ) ;
#213 = DATE_AND_TIME ( #55, #382 ) ;
#214 = DIRECTION ( 'NONE',  ( 1.000000000000000000, 0.000000000000000000, 0.000000000000000000 ) ) ;
#215 = CLOSED_SHELL ( 'NONE', ( #339, #48, #4, #217, #378, #82, #317, #71, #149, #77, #413 ) ) ;
#216 = CIRCLE ( 'NONE', #7, 15.00000000000001421 ) ;
#217 = ADVANCED_FACE ( 'NONE', ( #326 ), #88, .F. ) ;
#218 = APPROVAL_ROLE ( '' ) ;
#219 = FACE_OUTER_BOUND ( 'NONE', #161, .T. ) ;
#220 = CARTESIAN_POINT ( 'NONE',  ( 2.217841301133564258, -49.90142927550517982, 50.00000000000000000 ) ) ;
#221 = AXIS2_PLACEMENT_3D ( 'NONE', #282, #400, #186 ) ;
#222 = DIRECTION ( 'NONE',  ( 1.000000000000000000, 0.000000000000000000, 0.000000000000000000 ) ) ;
#223 = EDGE_LOOP ( 'NONE', ( #111, #135, #162, #131, #394 ) ) ;
#224 = ORIENTED_EDGE ( 'NONE', *, *, #211, .T. ) ;
#225 = VERTEX_POINT ( 'NONE', #362 ) ;
#226 = AXIS2_PLACEMENT_3D ( 'NONE', #342, #134, #222 ) ;
#227 = EDGE_CURVE ( 'NONE', #108, #39, #121, .T. ) ;
#228 = ORIENTED_EDGE ( 'NONE', *, *, #97, .F. ) ;
#229 = CARTESIAN_POINT ( 'NONE',  ( 465.0000000000000000, 1.836970198721033139E-15, 50.00000000000000000 ) ) ;
#230 = ORIENTED_EDGE ( 'NONE', *, *, #142, .T. ) ;
#231 = DIRECTION ( 'NONE',  ( -0.000000000000000000, -0.000000000000000000, -1.000000000000000000 ) ) ;
#232 = CARTESIAN_POINT ( 'NONE',  ( 0.000000000000000000, 0.000000000000000000, 0.000000000000000000 ) ) ;
#233 = DIRECTION ( 'NONE',  ( 1.000000000000000000, 0.000000000000000000, 0.000000000000000000 ) ) ;
#234 = FACE_BOUND ( 'NONE', #367, .T. ) ;
#235 = CARTESIAN_POINT ( 'NONE',  ( 2.217841301133564258, -49.90142927550517982, 0.000000000000000000 ) ) ;
#236 = VECTOR ( 'NONE', #187, 1000.000000000000000 ) ;
#237 = DIRECTION ( 'NONE',  ( -0.000000000000000000, -0.000000000000000000, -1.000000000000000000 ) ) ;
#238 = EDGE_CURVE ( 'NONE', #363, #225, #373, .T. ) ;
#239 = DATE_AND_TIME ( #380, #412 ) ;
#240 = FACE_OUTER_BOUND ( 'NONE', #364, .T. ) ;
#241 = DIRECTION ( 'NONE',  ( 1.000000000000000000, 0.000000000000000000, 0.000000000000000000 ) ) ;
#242 = DIRECTION ( 'NONE',  ( -0.000000000000000000, 0.000000000000000000, 1.000000000000000000 ) ) ;
#243 = EDGE_CURVE ( 'NONE', #225, #122, #95, .T. ) ;
#244 = COORDINATED_UNIVERSAL_TIME_OFFSET ( 3, 30, .AHEAD. ) ;
#245 = EDGE_CURVE ( 'NONE', #125, #59, #423, .T. ) ;
#246 = ORIENTED_EDGE ( 'NONE', *, *, #255, .T. ) ;
#247 = AXIS2_PLACEMENT_3D ( 'NONE', #251, #25, #387 ) ;
#248 = CARTESIAN_POINT ( 'NONE',  ( 450.0000000000000000, 0.000000000000000000, 0.000000000000000000 ) ) ;
#249 = PERSON_AND_ORGANIZATION ( #347, #46 ) ;
#250 = CARTESIAN_POINT ( 'NONE',  ( -25.00000000000000000, 0.000000000000000000, 50.00000000000000000 ) ) ;
#251 = CARTESIAN_POINT ( 'NONE',  ( 0.000000000000000000, 0.000000000000000000, 50.00000000000000000 ) ) ;
#252 = AXIS2_PLACEMENT_3D ( 'NONE', #285, #414, #293 ) ;
#253 = CIRCLE ( 'NONE', #22, 29.99999999999997158 ) ;
#254 = APPROVAL_STATUS ( 'not_yet_approved' ) ;
#255 = EDGE_CURVE ( 'NONE', #335, #295, #253, .T. ) ;
#256 = DIRECTION ( 'NONE',  ( -0.000000000000000000, 0.000000000000000000, 1.000000000000000000 ) ) ;
#257 = PERSON_AND_ORGANIZATION_ROLE ( 'design_supplier' ) ;
#258 = CARTESIAN_POINT ( 'NONE',  ( 0.000000000000000000, 50.00000000000000000, 0.000000000000000000 ) ) ;
#259 = APPROVAL_ROLE ( '' ) ;
#260 = CC_DESIGN_PERSON_AND_ORGANIZATION_ASSIGNMENT ( #375, #100, ( #358 ) ) ;
#261 = CARTESIAN_POINT ( 'NONE',  ( 25.00000000000000000, 3.061616997868383043E-15, 50.00000000000000000 ) ) ;
#262 = ORIENTED_EDGE ( 'NONE', *, *, #238, .T. ) ;
#263 = AXIS2_PLACEMENT_3D ( 'NONE', #232, #68, #101 ) ;
#264 = VECTOR ( 'NONE', #294, 1000.000000000000000 ) ;
#265 = ORIENTED_EDGE ( 'NONE', *, *, #300, .F. ) ;
#266 = ORIENTED_EDGE ( 'NONE', *, *, #93, .T. ) ;
#267 = CARTESIAN_POINT ( 'NONE',  ( 0.000000000000000000, -50.00000000000000000, 0.000000000000000000 ) ) ;
#268 = ORIENTED_EDGE ( 'NONE', *, *, #276, .F. ) ;
#269 = ORIENTED_EDGE ( 'NONE', *, *, #170, .T. ) ;
#270 = CARTESIAN_POINT ( 'NONE',  ( 0.000000000000000000, 0.000000000000000000, 0.000000000000000000 ) ) ;
#271 = DIRECTION ( 'NONE',  ( -0.000000000000000000, 0.000000000000000000, 1.000000000000000000 ) ) ;
#272 = CARTESIAN_POINT ( 'NONE',  ( 449.9999999999999432, 30.00000000000000000, 50.00000000000000000 ) ) ;
#273 = AXIS2_PLACEMENT_3D ( 'NONE', #197, #306, #401 ) ;
#274 = ORIENTED_EDGE ( 'NONE', *, *, #404, .T. ) ;
#275 = FACE_BOUND ( 'NONE', #301, .T. ) ;
#276 = EDGE_CURVE ( 'NONE', #35, #335, #343, .T. ) ;
#277 = CARTESIAN_POINT ( 'NONE',  ( 449.9999999999999432, -30.00000000000000000, 50.00000000000000000 ) ) ;
#278 = PLANE ( 'NONE',  #273 ) ;
#279 = APPLICATION_PROTOCOL_DEFINITION ( 'international standard', 'config_control_design', 1994, #109 ) ;
#280 = CARTESIAN_POINT ( 'NONE',  ( 25.00000000000000000, 3.061616997868383043E-15, 50.00000000000000000 ) ) ;
#281 = LOCAL_TIME ( 20, 15, 19.00000000000000000, #79 ) ;
#282 = CARTESIAN_POINT ( 'NONE',  ( 450.0000000000000000, 0.000000000000000000, 50.00000000000000000 ) ) ;
#283 = APPROVAL_DATE_TIME ( #239, #63 ) ;
#284 = CARTESIAN_POINT ( 'NONE',  ( 0.000000000000000000, 0.000000000000000000, 50.00000000000000000 ) ) ;
#285 = CARTESIAN_POINT ( 'NONE',  ( 450.0000000000000000, 0.000000000000000000, 50.00000000000000000 ) ) ;
#286 = EDGE_CURVE ( 'NONE', #44, #108, #60, .T. ) ;
#287 = CALENDAR_DATE ( 2025, 11, 11 ) ;
#288 = FACE_OUTER_BOUND ( 'NONE', #36, .T. ) ;
#289 = DIRECTION ( 'NONE',  ( -0.9990138064662087425, 0.04440061362072040413, 0.000000000000000000 ) ) ;
#290 = LOCAL_TIME ( 20, 15, 19.00000000000000000, #386 ) ;
#291 = PERSON_AND_ORGANIZATION_ROLE ( 'creator' ) ;
#292 = DIRECTION ( 'NONE',  ( 0.9990138064662086315, 0.04440061362072039719, 0.000000000000000000 ) ) ;
#293 = DIRECTION ( 'NONE',  ( 1.000000000000000000, 0.000000000000000000, 0.000000000000000000 ) ) ;
#294 = DIRECTION ( 'NONE',  ( -0.000000000000000000, -0.000000000000000000, -1.000000000000000000 ) ) ;
#295 = VERTEX_POINT ( 'NONE', #30 ) ;
#296 = AXIS2_PLACEMENT_3D ( 'NONE', #399, #9, #164 ) ;
#297 = AXIS2_PLACEMENT_3D ( 'NONE', #220, #359, #421 ) ;
#298 = EDGE_LOOP ( 'NONE', ( #204, #160 ) ) ;
#299 = ORIENTED_EDGE ( 'NONE', *, *, #227, .F. ) ;
#300 = EDGE_CURVE ( 'NONE', #363, #43, #389, .T. ) ;
#301 = EDGE_LOOP ( 'NONE', ( #2, #96 ) ) ;
#302 = AXIS2_PLACEMENT_3D ( 'NONE', #106, #165, #377 ) ;
#303 = ORIENTED_EDGE ( 'NONE', *, *, #404, .F. ) ;
#304 = DIRECTION ( 'NONE',  ( 1.000000000000000000, 0.000000000000000000, 0.000000000000000000 ) ) ;
#305 = PRODUCT_RELATED_PRODUCT_CATEGORY ( 'detail', '', ( #19 ) ) ;
#306 = DIRECTION ( 'NONE',  ( -0.000000000000000000, 0.000000000000000000, 1.000000000000000000 ) ) ;
#307 = PLANE ( 'NONE',  #57 ) ;
#308 = CYLINDRICAL_SURFACE ( 'NONE', #56, 25.00000000000000000 ) ;
#309 = FACE_OUTER_BOUND ( 'NONE', #223, .T. ) ;
#310 = AXIS2_PLACEMENT_3D ( 'NONE', #336, #341, #304 ) ;
#311 = ORIENTED_EDGE ( 'NONE', *, *, #422, .F. ) ;
#312 = PERSON_AND_ORGANIZATION_ROLE ( 'design_owner' ) ;
#313 = CYLINDRICAL_SURFACE ( 'NONE', #13, 50.00000000000000000 ) ;
#314 = PERSON_AND_ORGANIZATION ( #347, #46 ) ;
#315 = PERSON_AND_ORGANIZATION ( #347, #46 ) ;
#316 = AXIS2_PLACEMENT_3D ( 'NONE', #66, #115, #214 ) ;
#317 = ADVANCED_FACE ( 'NONE', ( #288 ), #87, .F. ) ;
#318 = LINE ( 'NONE', #250, #411 ) ;
#319 = APPROVAL_DATE_TIME ( #388, #192 ) ;
#320 = CARTESIAN_POINT ( 'NONE',  ( 449.9999999999999432, -30.00000000000000000, 0.000000000000000000 ) ) ;
#321 = DIRECTION ( 'NONE',  ( 0.9990138064662086315, -0.04440061362072039719, 0.000000000000000000 ) ) ;
#322 = CIRCLE ( 'NONE', #123, 50.00000000000000000 ) ;
#323 = VECTOR ( 'NONE', #185, 1000.000000000000000 ) ;
#324 = EDGE_CURVE ( 'NONE', #125, #295, #356, .T. ) ;
#325 = PERSON_AND_ORGANIZATION ( #347, #46 ) ;
#326 = FACE_OUTER_BOUND ( 'NONE', #369, .T. ) ;
#327 = PERSON_AND_ORGANIZATION_ROLE ( 'classification_officer' ) ;
#328 = ORIENTED_EDGE ( 'NONE', *, *, #286, .T. ) ;
#329 = CYLINDRICAL_SURFACE ( 'NONE', #28, 15.00000000000001421 ) ;
#330 = VERTEX_POINT ( 'NONE', #54 ) ;
#331 = CIRCLE ( 'NONE', #252, 15.00000000000001421 ) ;
#332 = VECTOR ( 'NONE', #292, 1000.000000000000114 ) ;
#333 = EDGE_CURVE ( 'NONE', #338, #125, #117, .T. ) ;
#334 = EDGE_LOOP ( 'NONE', ( #262, #424, #61, #265 ) ) ;
#335 = VERTEX_POINT ( 'NONE', #320 ) ;
#336 = CARTESIAN_POINT ( 'NONE',  ( 450.0000000000000000, 0.000000000000000000, 50.00000000000000000 ) ) ;
#337 = EDGE_CURVE ( 'NONE', #330, #35, #27, .T. ) ;
#338 = VERTEX_POINT ( 'NONE', #419 ) ;
#339 = ADVANCED_FACE ( 'NONE', ( #65 ), #329, .F. ) ;
#340 = CIRCLE ( 'NONE', #146, 25.00000000000000000 ) ;
#341 = DIRECTION ( 'NONE',  ( -0.000000000000000000, 0.000000000000000000, 1.000000000000000000 ) ) ;
#342 = CARTESIAN_POINT ( 'NONE',  ( 0.000000000000000000, 0.000000000000000000, 50.00000000000000000 ) ) ;
#343 = LINE ( 'NONE', #277, #391 ) ;
#344 = LINE ( 'NONE', #178, #172 ) ;
#345 = VERTEX_POINT ( 'NONE', #267 ) ;
#346 = DIRECTION ( 'NONE',  ( -0.000000000000000000, 0.000000000000000000, 1.000000000000000000 ) ) ;
#347 = PERSON ( 'UNSPECIFIED', 'UNSPECIFIED', 'UNSPECIFIED', ('UNSPECIFIED'), ('UNSPECIFIED'), ('UNSPECIFIED') ) ;
#348 = ORIENTED_EDGE ( 'NONE', *, *, #300, .T. ) ;
#349 = DIRECTION ( 'NONE',  ( 1.000000000000000000, 0.000000000000000000, 0.000000000000000000 ) ) ;
#350 = VECTOR ( 'NONE', #416, 1000.000000000000114 ) ;
#351 = ORIENTED_EDGE ( 'NONE', *, *, #203, .F. ) ;
#352 = ORIENTED_EDGE ( 'NONE', *, *, #159, .T. ) ;
#353 = DIRECTION ( 'NONE',  ( -0.000000000000000000, 0.000000000000000000, 1.000000000000000000 ) ) ;
#354 = VECTOR ( 'NONE', #321, 1000.000000000000114 ) ;
#355 = LOCAL_TIME ( 20, 15, 19.00000000000000000, #179 ) ;
#356 = LINE ( 'NONE', #154, #350 ) ;
#357 = SECURITY_CLASSIFICATION_LEVEL ( 'unclassified' ) ;
#358 = PRODUCT_DEFINITION ( 'UNKNOWN', '', #113, #62 ) ;
#359 = DIRECTION ( 'NONE',  ( -0.04440061362072040413, 0.9990138064662087425, 0.000000000000000000 ) ) ;
#360 = AXIS2_PLACEMENT_3D ( 'NONE', #32, #155, #129 ) ;
#361 = APPROVAL_DATE_TIME ( #23, #365 ) ;
#362 = CARTESIAN_POINT ( 'NONE',  ( 465.0000000000000000, 1.836970198721034716E-15, 50.00000000000000000 ) ) ;
#363 = VERTEX_POINT ( 'NONE', #371 ) ;
#364 = EDGE_LOOP ( 'NONE', ( #38, #351, #194, #91 ) ) ;
#365 = APPROVAL ( #254, 'UNSPECIFIED' ) ;
#366 = EDGE_LOOP ( 'NONE', ( #191, #224, #408, #392 ) ) ;
#367 = EDGE_LOOP ( 'NONE', ( #352, #94 ) ) ;
#368 = DIRECTION ( 'NONE',  ( -0.000000000000000000, -0.000000000000000000, -1.000000000000000000 ) ) ;
#369 = EDGE_LOOP ( 'NONE', ( #269, #268, #396, #230 ) ) ;
#370 = EDGE_CURVE ( 'NONE', #35, #374, #51, .T. ) ;
#371 = CARTESIAN_POINT ( 'NONE',  ( 435.0000000000000000, 0.000000000000000000, 50.00000000000000000 ) ) ;
#372 = FACE_OUTER_BOUND ( 'NONE', #366, .T. ) ;
#373 = CIRCLE ( 'NONE', #360, 15.00000000000001421 ) ;
#374 = VERTEX_POINT ( 'NONE', #272 ) ;
#375 = PERSON_AND_ORGANIZATION ( #347, #46 ) ;
#376 = CARTESIAN_POINT ( 'NONE',  ( 2.217841301133564258, 49.90142927550517982, 50.00000000000000000 ) ) ;
#377 = DIRECTION ( 'NONE',  ( 1.000000000000000000, 0.000000000000000000, 0.000000000000000000 ) ) ;
#378 = ADVANCED_FACE ( 'NONE', ( #114 ), #104, .T. ) ;
#379 = DIRECTION ( 'NONE',  ( -0.000000000000000000, -0.000000000000000000, -1.000000000000000000 ) ) ;
#380 = CALENDAR_DATE ( 2025, 11, 11 ) ;
#381 = CIRCLE ( 'NONE', #50, 25.00000000000000000 ) ;
#382 = LOCAL_TIME ( 20, 15, 19.00000000000000000, #53 ) ;
#383 = VERTEX_POINT ( 'NONE', #212 ) ;
#384 = DIRECTION ( 'NONE',  ( -0.000000000000000000, -0.000000000000000000, -1.000000000000000000 ) ) ;
#385 = CARTESIAN_POINT ( 'NONE',  ( 0.000000000000000000, 0.000000000000000000, 50.00000000000000000 ) ) ;
#386 = COORDINATED_UNIVERSAL_TIME_OFFSET ( 3, 30, .AHEAD. ) ;
#387 = DIRECTION ( 'NONE',  ( -1.000000000000000000, 0.000000000000000000, 0.000000000000000000 ) ) ;
#388 = DATE_AND_TIME ( #287, #290 ) ;
#389 = LINE ( 'NONE', #89, #84 ) ;
#390 = DIRECTION ( 'NONE',  ( -0.000000000000000000, -0.000000000000000000, -1.000000000000000000 ) ) ;
#391 = VECTOR ( 'NONE', #205, 1000.000000000000000 ) ;
#392 = ORIENTED_EDGE ( 'NONE', *, *, #142, .F. ) ;
#393 = ORIENTED_EDGE ( 'NONE', *, *, #97, .T. ) ;
#394 = ORIENTED_EDGE ( 'NONE', *, *, #255, .F. ) ;
#395 = PRODUCT_DEFINITION_SHAPE ( 'NONE', 'NONE',  #358 ) ;
#396 = ORIENTED_EDGE ( 'NONE', *, *, #337, .F. ) ;
#397 = APPROVAL_PERSON_ORGANIZATION ( #325, #365, #218 ) ;
#398 = ORIENTED_EDGE ( 'NONE', *, *, #238, .F. ) ;
#399 = CARTESIAN_POINT ( 'NONE',  ( 0.000000000000000000, 0.000000000000000000, 50.00000000000000000 ) ) ;
#400 = DIRECTION ( 'NONE',  ( -0.000000000000000000, -0.000000000000000000, -1.000000000000000000 ) ) ;
#401 = DIRECTION ( 'NONE',  ( 1.000000000000000000, 0.000000000000000000, 0.000000000000000000 ) ) ;
#402 = CARTESIAN_POINT ( 'NONE',  ( 450.0000000000000000, 0.000000000000000000, 50.00000000000000000 ) ) ;
#403 = CARTESIAN_POINT ( 'NONE',  ( 450.0000000000000000, 0.000000000000000000, 0.000000000000000000 ) ) ;
#404 = EDGE_CURVE ( 'NONE', #374, #295, #344, .T. ) ;
#405 =( NAMED_UNIT ( * ) PLANE_ANGLE_UNIT ( ) SI_UNIT ( $, .RADIAN. ) );
#406 = PLANE ( 'NONE',  #112 ) ;
#407 = DIRECTION ( 'NONE',  ( 1.000000000000000000, 0.000000000000000000, 0.000000000000000000 ) ) ;
#408 = ORIENTED_EDGE ( 'NONE', *, *, #26, .T. ) ;
#409 = EDGE_CURVE ( 'NONE', #124, #330, #34, .T. ) ;
#410 = FACE_BOUND ( 'NONE', #298, .T. ) ;
#411 = VECTOR ( 'NONE', #145, 1000.000000000000000 ) ;
#412 = LOCAL_TIME ( 20, 15, 19.00000000000000000, #244 ) ;
#413 = ADVANCED_FACE ( 'NONE', ( #309, #234, #410 ), #307, .F. ) ;
#414 = DIRECTION ( 'NONE',  ( -0.000000000000000000, 0.000000000000000000, 1.000000000000000000 ) ) ;
#415 = DATE_TIME_ROLE ( 'classification_date' ) ;
#416 = DIRECTION ( 'NONE',  ( 0.9990138064662086315, -0.04440061362072039719, 0.000000000000000000 ) ) ;
#417 = APPROVAL_PERSON_ORGANIZATION ( #314, #192, #259 ) ;
#418 = APPROVAL_PERSON_ORGANIZATION ( #315, #63, #143 ) ;
#419 = CARTESIAN_POINT ( 'NONE',  ( 0.000000000000000000, 50.00000000000000000, 50.00000000000000000 ) ) ;
#420 = LINE ( 'NONE', #116, #137 ) ;
#421 = DIRECTION ( 'NONE',  ( -0.9990138064662087425, -0.04440061362072040413, 0.000000000000000000 ) ) ;
#422 = EDGE_CURVE ( 'NONE', #122, #43, #216, .T. ) ;
#423 = CIRCLE ( 'NONE', #316, 50.00000000000000000 ) ;
#424 = ORIENTED_EDGE ( 'NONE', *, *, #243, .T. ) ;
ENDSEC;
END-ISO-10303-21;
