ISO-10303-21;
HEADER;
FILE_DESCRIPTION (( 'STEP AP203' ),
    '1' );
FILE_NAME ('Part2.STEP',
    '2025-11-11T16:33:31',
    ( '' ),
    ( '' ),
    'SwSTEP 2.0',
    'SolidWorks 2024',
    '' );
FILE_SCHEMA (( 'CONFIG_CONTROL_DESIGN' ));
ENDSEC;

DATA;
#1 = DIRECTION ( 'NONE',  ( 0.000000000000000000, 0.000000000000000000, 1.000000000000000000 ) ) ;
#2 = CIRCLE ( 'NONE', #246, 25.00000000000000000 ) ;
#3 = PRODUCT_DEFINITION ( 'UNKNOWN', '', #213, #183 ) ;
#4 = CALENDAR_DATE ( 2025, 11, 11 ) ;
#5 = ADVANCED_FACE ( 'NONE', ( #24 ), #195, .T. ) ;
#6 = DIRECTION ( 'NONE',  ( -1.000000000000000000, 0.000000000000000000, 0.000000000000000000 ) ) ;
#7 = PERSON_AND_ORGANIZATION ( #187, #242 ) ;
#8 = CARTESIAN_POINT ( 'NONE',  ( 0.000000000000000000, 0.000000000000000000, 200.0000000000000000 ) ) ;
#9 = ORIENTED_EDGE ( 'NONE', *, *, #86, .T. ) ;
#10 = AXIS2_PLACEMENT_3D ( 'NONE', #142, #41, #163 ) ;
#11 = APPROVAL_DATE_TIME ( #14, #209 ) ;
#12 = APPLICATION_CONTEXT ( 'configuration controlled 3d designs of mechanical parts and assemblies' ) ;
#13 = VERTEX_POINT ( 'NONE', #45 ) ;
#14 = DATE_AND_TIME ( #79, #119 ) ;
#15 = MANIFOLD_SOLID_BREP ( 'Boss-Extrude2', #151 ) ;
#16 = CIRCLE ( 'NONE', #227, 25.00000000000000000 ) ;
#17 = ORIENTED_EDGE ( 'NONE', *, *, #51, .F. ) ;
#18 = COORDINATED_UNIVERSAL_TIME_OFFSET ( 3, 30, .AHEAD. ) ;
#19 = LINE ( 'NONE', #200, #196 ) ;
#20 = CARTESIAN_POINT ( 'NONE',  ( 0.000000000000000000, 0.000000000000000000, 150.0000000000000000 ) ) ;
#21 = EDGE_CURVE ( 'NONE', #13, #65, #250, .T. ) ;
#22 = DIRECTION ( 'NONE',  ( -0.000000000000000000, -0.000000000000000000, -1.000000000000000000 ) ) ;
#23 = CARTESIAN_POINT ( 'NONE',  ( -50.00000000000000000, 0.000000000000000000, 150.0000000000000000 ) ) ;
#24 = FACE_OUTER_BOUND ( 'NONE', #190, .T. ) ;
#25 = PERSON_AND_ORGANIZATION ( #187, #242 ) ;
#26 = AXIS2_PLACEMENT_3D ( 'NONE', #127, #201, #236 ) ;
#27 = DIRECTION ( 'NONE',  ( 0.000000000000000000, 0.000000000000000000, 1.000000000000000000 ) ) ;
#28 = APPLICATION_CONTEXT ( 'configuration controlled 3d designs of mechanical parts and assemblies' ) ;
#29 = PERSON_AND_ORGANIZATION_ROLE ( 'creator' ) ;
#30 = CIRCLE ( 'NONE', #205, 50.00000000000000000 ) ;
#31 = COORDINATED_UNIVERSAL_TIME_OFFSET ( 3, 30, .AHEAD. ) ;
#32 = DATE_AND_TIME ( #4, #39 ) ;
#33 = APPROVAL_STATUS ( 'not_yet_approved' ) ;
#34 = DIRECTION ( 'NONE',  ( 0.000000000000000000, 0.000000000000000000, 1.000000000000000000 ) ) ;
#35 = CC_DESIGN_APPROVAL ( #55, ( #3 ) ) ;
#36 = ORIENTED_EDGE ( 'NONE', *, *, #124, .T. ) ;
#37 = LOCAL_TIME ( 20, 3, 31.00000000000000000, #18 ) ;
#38 = CC_DESIGN_PERSON_AND_ORGANIZATION_ASSIGNMENT ( #7, #93, ( #213 ) ) ;
#39 = LOCAL_TIME ( 20, 3, 31.00000000000000000, #132 ) ;
#40 = APPROVAL_ROLE ( '' ) ;
#41 = DIRECTION ( 'NONE',  ( 0.000000000000000000, 0.000000000000000000, 1.000000000000000000 ) ) ;
#42 = ORIENTED_EDGE ( 'NONE', *, *, #232, .T. ) ;
#43 = AXIS2_PLACEMENT_3D ( 'NONE', #20, #252, #159 ) ;
#44 = FACE_OUTER_BOUND ( 'NONE', #193, .T. ) ;
#45 = CARTESIAN_POINT ( 'NONE',  ( -25.00000000000000000, 0.000000000000000000, 200.0000000000000000 ) ) ;
#46 = CYLINDRICAL_SURFACE ( 'NONE', #26, 25.00000000000000000 ) ;
#47 = CARTESIAN_POINT ( 'NONE',  ( 0.000000000000000000, 0.000000000000000000, 200.0000000000000000 ) ) ;
#48 = PERSON_AND_ORGANIZATION ( #187, #242 ) ;
#49 = CC_DESIGN_PERSON_AND_ORGANIZATION_ASSIGNMENT ( #167, #73, ( #213 ) ) ;
#50 = PRODUCT_DEFINITION_SHAPE ( 'NONE', 'NONE',  #3 ) ;
#51 = EDGE_CURVE ( 'NONE', #135, #121, #19, .T. ) ;
#52 = APPROVAL_STATUS ( 'not_yet_approved' ) ;
#53 = CARTESIAN_POINT ( 'NONE',  ( 0.000000000000000000, 0.000000000000000000, 200.0000000000000000 ) ) ;
#54 = VERTEX_POINT ( 'NONE', #106 ) ;
#55 = APPROVAL ( #52, 'UNSPECIFIED' ) ;
#56 = ORIENTED_EDGE ( 'NONE', *, *, #21, .F. ) ;
#57 = ADVANCED_BREP_SHAPE_REPRESENTATION ( 'Part2', ( #15, #72 ), #128 ) ;
#58 = APPROVAL_PERSON_ORGANIZATION ( #25, #55, #66 ) ;
#59 = CARTESIAN_POINT ( 'NONE',  ( 0.000000000000000000, 0.000000000000000000, 150.0000000000000000 ) ) ;
#60 = CIRCLE ( 'NONE', #145, 50.00000000000000000 ) ;
#61 = CARTESIAN_POINT ( 'NONE',  ( 25.00000000000000000, 3.061616997868383043E-15, 200.0000000000000000 ) ) ;
#62 = AXIS2_PLACEMENT_3D ( 'NONE', #123, #180, #198 ) ;
#63 = CARTESIAN_POINT ( 'NONE',  ( 50.00000000000000000, 6.123233995736766085E-15, 0.000000000000000000 ) ) ;
#64 = FACE_OUTER_BOUND ( 'NONE', #76, .T. ) ;
#65 = VERTEX_POINT ( 'NONE', #122 ) ;
#66 = APPROVAL_ROLE ( '' ) ;
#67 = ADVANCED_FACE ( 'NONE', ( #197 ), #178, .T. ) ;
#68 = DIRECTION ( 'NONE',  ( 1.000000000000000000, 0.000000000000000000, 0.000000000000000000 ) ) ;
#69 = AXIS2_PLACEMENT_3D ( 'NONE', #8, #34, #94 ) ;
#70 = DATE_AND_TIME ( #240, #105 ) ;
#71 = CYLINDRICAL_SURFACE ( 'NONE', #117, 25.00000000000000000 ) ;
#72 = AXIS2_PLACEMENT_3D ( 'NONE', #74, #220, #68 ) ;
#73 = PERSON_AND_ORGANIZATION_ROLE ( 'design_supplier' ) ;
#74 = CARTESIAN_POINT ( 'NONE',  ( 0.000000000000000000, 0.000000000000000000, 0.000000000000000000 ) ) ;
#75 = EDGE_CURVE ( 'NONE', #54, #245, #83, .T. ) ;
#76 = EDGE_LOOP ( 'NONE', ( #152, #192, #155, #9 ) ) ;
#77 = EDGE_CURVE ( 'NONE', #247, #135, #185, .T. ) ;
#78 = EDGE_LOOP ( 'NONE', ( #173, #133, #42, #17 ) ) ;
#79 = CALENDAR_DATE ( 2025, 11, 11 ) ;
#80 = SECURITY_CLASSIFICATION_LEVEL ( 'unclassified' ) ;
#81 = ORIENTED_EDGE ( 'NONE', *, *, #147, .F. ) ;
#82 = SHAPE_DEFINITION_REPRESENTATION ( #50, #57 ) ;
#83 = LINE ( 'NONE', #61, #108 ) ;
#84 = EDGE_LOOP ( 'NONE', ( #208, #81 ) ) ;
#85 = CARTESIAN_POINT ( 'NONE',  ( 0.000000000000000000, 0.000000000000000000, 150.0000000000000000 ) ) ;
#86 = EDGE_CURVE ( 'NONE', #65, #245, #2, .T. ) ;
#87 = DIRECTION ( 'NONE',  ( 0.000000000000000000, 0.000000000000000000, 1.000000000000000000 ) ) ;
#88 = CC_DESIGN_SECURITY_CLASSIFICATION ( #144, ( #213 ) ) ;
#89 = CARTESIAN_POINT ( 'NONE',  ( -50.00000000000000000, 0.000000000000000000, 0.000000000000000000 ) ) ;
#90 = CALENDAR_DATE ( 2025, 11, 11 ) ;
#91 = AXIS2_PLACEMENT_3D ( 'NONE', #218, #182, #138 ) ;
#92 = CARTESIAN_POINT ( 'NONE',  ( 50.00000000000000000, 6.123233995736766085E-15, 150.0000000000000000 ) ) ;
#93 = PERSON_AND_ORGANIZATION_ROLE ( 'creator' ) ;
#94 = DIRECTION ( 'NONE',  ( 1.000000000000000000, 0.000000000000000000, 0.000000000000000000 ) ) ;
#95 = ADVANCED_FACE ( 'NONE', ( #141, #44 ), #100, .T. ) ;
#96 = ORIENTED_EDGE ( 'NONE', *, *, #51, .T. ) ;
#97 = AXIS2_PLACEMENT_3D ( 'NONE', #254, #87, #235 ) ;
#98 = APPROVAL_STATUS ( 'not_yet_approved' ) ;
#99 = ORIENTED_EDGE ( 'NONE', *, *, #75, .T. ) ;
#100 = PLANE ( 'NONE',  #62 ) ;
#101 = DIRECTION ( 'NONE',  ( -0.000000000000000000, -0.000000000000000000, -1.000000000000000000 ) ) ;
#102 = CC_DESIGN_PERSON_AND_ORGANIZATION_ASSIGNMENT ( #248, #116, ( #144 ) ) ;
#103 = DIRECTION ( 'NONE',  ( -0.000000000000000000, -0.000000000000000000, -1.000000000000000000 ) ) ;
#104 = EDGE_CURVE ( 'NONE', #247, #134, #253, .T. ) ;
#105 = LOCAL_TIME ( 20, 3, 31.00000000000000000, #31 ) ;
#106 = CARTESIAN_POINT ( 'NONE',  ( 25.00000000000000000, 3.061616997868383043E-15, 200.0000000000000000 ) ) ;
#107 = COORDINATED_UNIVERSAL_TIME_OFFSET ( 3, 30, .AHEAD. ) ;
#108 = VECTOR ( 'NONE', #103, 1000.000000000000000 ) ;
#109 = DIRECTION ( 'NONE',  ( -0.000000000000000000, -0.000000000000000000, -1.000000000000000000 ) ) ;
#110 = APPROVAL ( #33, 'UNSPECIFIED' ) ;
#111 = FACE_OUTER_BOUND ( 'NONE', #171, .T. ) ;
#112 = CARTESIAN_POINT ( 'NONE',  ( 0.000000000000000000, 0.000000000000000000, 200.0000000000000000 ) ) ;
#113 = ORIENTED_EDGE ( 'NONE', *, *, #239, .F. ) ;
#114 = LOCAL_TIME ( 20, 3, 31.00000000000000000, #107 ) ;
#115 = EDGE_LOOP ( 'NONE', ( #113, #99, #175, #56 ) ) ;
#116 = PERSON_AND_ORGANIZATION_ROLE ( 'classification_officer' ) ;
#117 = AXIS2_PLACEMENT_3D ( 'NONE', #112, #109, #6 ) ;
#118 = ORIENTED_EDGE ( 'NONE', *, *, #77, .T. ) ;
#119 = LOCAL_TIME ( 20, 3, 31.00000000000000000, #194 ) ;
#120 = ORIENTED_EDGE ( 'NONE', *, *, #124, .F. ) ;
#121 = VERTEX_POINT ( 'NONE', #89 ) ;
#122 = CARTESIAN_POINT ( 'NONE',  ( -25.00000000000000000, 0.000000000000000000, 150.0000000000000000 ) ) ;
#123 = CARTESIAN_POINT ( 'NONE',  ( 0.000000000000000000, 0.000000000000000000, 150.0000000000000000 ) ) ;
#124 = EDGE_CURVE ( 'NONE', #135, #247, #30, .T. ) ;
#125 = UNCERTAINTY_MEASURE_WITH_UNIT (LENGTH_MEASURE( 1.000000000000000082E-05 ), #129, 'distance_accuracy_value', 'NONE');
#126 = DIRECTION ( 'NONE',  ( 0.000000000000000000, 0.000000000000000000, 1.000000000000000000 ) ) ;
#127 = CARTESIAN_POINT ( 'NONE',  ( 0.000000000000000000, 0.000000000000000000, 200.0000000000000000 ) ) ;
#128 =( GEOMETRIC_REPRESENTATION_CONTEXT ( 3 ) GLOBAL_UNCERTAINTY_ASSIGNED_CONTEXT ( ( #125 ) ) GLOBAL_UNIT_ASSIGNED_CONTEXT ( ( #129, #241, #237 ) ) REPRESENTATION_CONTEXT ( 'NONE', 'WORKASPACE' ) );
#129 =( LENGTH_UNIT ( ) NAMED_UNIT ( * ) SI_UNIT ( .MILLI., .METRE. ) );
#130 = CC_DESIGN_DATE_AND_TIME_ASSIGNMENT ( #32, #206, ( #3 ) ) ;
#131 = VECTOR ( 'NONE', #255, 1000.000000000000000 ) ;
#132 = COORDINATED_UNIVERSAL_TIME_OFFSET ( 3, 30, .AHEAD. ) ;
#133 = ORIENTED_EDGE ( 'NONE', *, *, #104, .T. ) ;
#134 = VERTEX_POINT ( 'NONE', #63 ) ;
#135 = VERTEX_POINT ( 'NONE', #23 ) ;
#136 = CC_DESIGN_APPROVAL ( #110, ( #213 ) ) ;
#137 = DIRECTION ( 'NONE',  ( 1.000000000000000000, 0.000000000000000000, 0.000000000000000000 ) ) ;
#138 = DIRECTION ( 'NONE',  ( -1.000000000000000000, 0.000000000000000000, 0.000000000000000000 ) ) ;
#139 = AXIS2_PLACEMENT_3D ( 'NONE', #59, #22, #157 ) ;
#140 = CARTESIAN_POINT ( 'NONE',  ( 0.000000000000000000, 0.000000000000000000, 150.0000000000000000 ) ) ;
#141 = FACE_BOUND ( 'NONE', #84, .T. ) ;
#142 = CARTESIAN_POINT ( 'NONE',  ( 0.000000000000000000, 0.000000000000000000, 0.000000000000000000 ) ) ;
#143 = DATE_AND_TIME ( #90, #114 ) ;
#144 = SECURITY_CLASSIFICATION ( '', '', #80 ) ;
#145 = AXIS2_PLACEMENT_3D ( 'NONE', #225, #223, #224 ) ;
#146 = APPROVAL_ROLE ( '' ) ;
#147 = EDGE_CURVE ( 'NONE', #245, #65, #16, .T. ) ;
#148 = APPLICATION_PROTOCOL_DEFINITION ( 'international standard', 'config_control_design', 1994, #28 ) ;
#149 = APPROVAL_DATE_TIME ( #70, #110 ) ;
#150 = EDGE_LOOP ( 'NONE', ( #176, #191 ) ) ;
#151 = CLOSED_SHELL ( 'NONE', ( #217, #67, #5, #95, #158, #165, #203 ) ) ;
#152 = ORIENTED_EDGE ( 'NONE', *, *, #75, .F. ) ;
#153 = CC_DESIGN_PERSON_AND_ORGANIZATION_ASSIGNMENT ( #186, #204, ( #238 ) ) ;
#154 = CALENDAR_DATE ( 2025, 11, 11 ) ;
#155 = ORIENTED_EDGE ( 'NONE', *, *, #21, .T. ) ;
#156 = APPROVAL_PERSON_ORGANIZATION ( #170, #110, #146 ) ;
#157 = DIRECTION ( 'NONE',  ( -1.000000000000000000, 0.000000000000000000, 0.000000000000000000 ) ) ;
#158 = ADVANCED_FACE ( 'NONE', ( #161 ), #181, .F. ) ;
#159 = DIRECTION ( 'NONE',  ( 1.000000000000000000, 0.000000000000000000, 0.000000000000000000 ) ) ;
#160 = DIRECTION ( 'NONE',  ( 0.000000000000000000, 0.000000000000000000, 1.000000000000000000 ) ) ;
#161 = FACE_OUTER_BOUND ( 'NONE', #150, .T. ) ;
#162 = DIRECTION ( 'NONE',  ( 1.000000000000000000, 0.000000000000000000, 0.000000000000000000 ) ) ;
#163 = DIRECTION ( 'NONE',  ( 1.000000000000000000, 0.000000000000000000, 0.000000000000000000 ) ) ;
#164 = PRODUCT_RELATED_PRODUCT_CATEGORY ( 'detail', '', ( #238 ) ) ;
#165 = ADVANCED_FACE ( 'NONE', ( #64 ), #46, .T. ) ;
#166 = PLANE ( 'NONE',  #222 ) ;
#167 = PERSON_AND_ORGANIZATION ( #187, #242 ) ;
#168 = MECHANICAL_CONTEXT ( 'NONE', #12, 'mechanical' ) ;
#169 = CIRCLE ( 'NONE', #211, 25.00000000000000000 ) ;
#170 = PERSON_AND_ORGANIZATION ( #187, #242 ) ;
#171 = EDGE_LOOP ( 'NONE', ( #214, #226 ) ) ;
#172 = EDGE_CURVE ( 'NONE', #121, #134, #202, .T. ) ;
#173 = ORIENTED_EDGE ( 'NONE', *, *, #77, .F. ) ;
#174 = PERSON_AND_ORGANIZATION ( #187, #242 ) ;
#175 = ORIENTED_EDGE ( 'NONE', *, *, #147, .T. ) ;
#176 = ORIENTED_EDGE ( 'NONE', *, *, #172, .F. ) ;
#177 = CARTESIAN_POINT ( 'NONE',  ( 50.00000000000000000, 6.123233995736766085E-15, 150.0000000000000000 ) ) ;
#178 = CYLINDRICAL_SURFACE ( 'NONE', #91, 50.00000000000000000 ) ;
#179 = CIRCLE ( 'NONE', #69, 25.00000000000000000 ) ;
#180 = DIRECTION ( 'NONE',  ( 0.000000000000000000, 0.000000000000000000, 1.000000000000000000 ) ) ;
#181 = PLANE ( 'NONE',  #97 ) ;
#182 = DIRECTION ( 'NONE',  ( -0.000000000000000000, -0.000000000000000000, -1.000000000000000000 ) ) ;
#183 = DESIGN_CONTEXT ( 'detailed design', #28, 'design' ) ;
#184 = APPLICATION_PROTOCOL_DEFINITION ( 'international standard', 'config_control_design', 1994, #12 ) ;
#185 = CIRCLE ( 'NONE', #43, 50.00000000000000000 ) ;
#186 = PERSON_AND_ORGANIZATION ( #187, #242 ) ;
#187 = PERSON ( 'UNSPECIFIED', 'UNSPECIFIED', 'UNSPECIFIED', ('UNSPECIFIED'), ('UNSPECIFIED'), ('UNSPECIFIED') ) ;
#188 = FACE_OUTER_BOUND ( 'NONE', #115, .T. ) ;
#189 = CARTESIAN_POINT ( 'NONE',  ( 25.00000000000000000, 3.061616997868383043E-15, 150.0000000000000000 ) ) ;
#190 = EDGE_LOOP ( 'NONE', ( #249, #120, #96, #228 ) ) ;
#191 = ORIENTED_EDGE ( 'NONE', *, *, #232, .F. ) ;
#192 = ORIENTED_EDGE ( 'NONE', *, *, #210, .F. ) ;
#193 = EDGE_LOOP ( 'NONE', ( #36, #118 ) ) ;
#194 = COORDINATED_UNIVERSAL_TIME_OFFSET ( 3, 30, .AHEAD. ) ;
#195 = CYLINDRICAL_SURFACE ( 'NONE', #139, 50.00000000000000000 ) ;
#196 = VECTOR ( 'NONE', #101, 1000.000000000000000 ) ;
#197 = FACE_OUTER_BOUND ( 'NONE', #78, .T. ) ;
#198 = DIRECTION ( 'NONE',  ( 1.000000000000000000, 0.000000000000000000, -0.000000000000000000 ) ) ;
#199 = CC_DESIGN_DATE_AND_TIME_ASSIGNMENT ( #212, #229, ( #144 ) ) ;
#200 = CARTESIAN_POINT ( 'NONE',  ( -50.00000000000000000, 0.000000000000000000, 150.0000000000000000 ) ) ;
#201 = DIRECTION ( 'NONE',  ( -0.000000000000000000, -0.000000000000000000, -1.000000000000000000 ) ) ;
#202 = CIRCLE ( 'NONE', #10, 50.00000000000000000 ) ;
#203 = ADVANCED_FACE ( 'NONE', ( #111 ), #166, .T. ) ;
#204 = PERSON_AND_ORGANIZATION_ROLE ( 'design_owner' ) ;
#205 = AXIS2_PLACEMENT_3D ( 'NONE', #85, #160, #234 ) ;
#206 = DATE_TIME_ROLE ( 'creation_date' ) ;
#207 = DIRECTION ( 'NONE',  ( 1.000000000000000000, 0.000000000000000000, 0.000000000000000000 ) ) ;
#208 = ORIENTED_EDGE ( 'NONE', *, *, #86, .F. ) ;
#209 = APPROVAL ( #98, 'UNSPECIFIED' ) ;
#210 = EDGE_CURVE ( 'NONE', #13, #54, #169, .T. ) ;
#211 = AXIS2_PLACEMENT_3D ( 'NONE', #53, #27, #207 ) ;
#212 = DATE_AND_TIME ( #154, #37 ) ;
#213 = PRODUCT_DEFINITION_FORMATION_WITH_SPECIFIED_SOURCE ( 'ANY', '', #238, .NOT_KNOWN. ) ;
#214 = ORIENTED_EDGE ( 'NONE', *, *, #210, .T. ) ;
#215 = VECTOR ( 'NONE', #230, 1000.000000000000000 ) ;
#216 = DIRECTION ( 'NONE',  ( 0.000000000000000000, 0.000000000000000000, 1.000000000000000000 ) ) ;
#217 = ADVANCED_FACE ( 'NONE', ( #188 ), #71, .T. ) ;
#218 = CARTESIAN_POINT ( 'NONE',  ( 0.000000000000000000, 0.000000000000000000, 150.0000000000000000 ) ) ;
#219 = CARTESIAN_POINT ( 'NONE',  ( -25.00000000000000000, 0.000000000000000000, 200.0000000000000000 ) ) ;
#220 = DIRECTION ( 'NONE',  ( 0.000000000000000000, 0.000000000000000000, 1.000000000000000000 ) ) ;
#221 = APPROVAL_DATE_TIME ( #143, #55 ) ;
#222 = AXIS2_PLACEMENT_3D ( 'NONE', #47, #1, #243 ) ;
#223 = DIRECTION ( 'NONE',  ( 0.000000000000000000, 0.000000000000000000, 1.000000000000000000 ) ) ;
#224 = DIRECTION ( 'NONE',  ( 1.000000000000000000, 0.000000000000000000, 0.000000000000000000 ) ) ;
#225 = CARTESIAN_POINT ( 'NONE',  ( 0.000000000000000000, 0.000000000000000000, 0.000000000000000000 ) ) ;
#226 = ORIENTED_EDGE ( 'NONE', *, *, #239, .T. ) ;
#227 = AXIS2_PLACEMENT_3D ( 'NONE', #140, #126, #162 ) ;
#228 = ORIENTED_EDGE ( 'NONE', *, *, #172, .T. ) ;
#229 = DATE_TIME_ROLE ( 'classification_date' ) ;
#230 = DIRECTION ( 'NONE',  ( -0.000000000000000000, -0.000000000000000000, -1.000000000000000000 ) ) ;
#231 = CARTESIAN_POINT ( 'NONE',  ( 0.000000000000000000, 0.000000000000000000, 150.0000000000000000 ) ) ;
#232 = EDGE_CURVE ( 'NONE', #134, #121, #60, .T. ) ;
#233 = APPROVAL_PERSON_ORGANIZATION ( #174, #209, #40 ) ;
#234 = DIRECTION ( 'NONE',  ( 1.000000000000000000, 0.000000000000000000, 0.000000000000000000 ) ) ;
#235 = DIRECTION ( 'NONE',  ( 1.000000000000000000, 0.000000000000000000, -0.000000000000000000 ) ) ;
#236 = DIRECTION ( 'NONE',  ( -1.000000000000000000, 0.000000000000000000, 0.000000000000000000 ) ) ;
#237 =( NAMED_UNIT ( * ) SI_UNIT ( $, .STERADIAN. ) SOLID_ANGLE_UNIT ( ) );
#238 = PRODUCT ( 'Part2', 'Part2', '', ( #168 ) ) ;
#239 = EDGE_CURVE ( 'NONE', #54, #13, #179, .T. ) ;
#240 = CALENDAR_DATE ( 2025, 11, 11 ) ;
#241 =( NAMED_UNIT ( * ) PLANE_ANGLE_UNIT ( ) SI_UNIT ( $, .RADIAN. ) );
#242 = ORGANIZATION ( 'UNSPECIFIED', 'UNSPECIFIED', '' ) ;
#243 = DIRECTION ( 'NONE',  ( 1.000000000000000000, 0.000000000000000000, -0.000000000000000000 ) ) ;
#244 = CC_DESIGN_APPROVAL ( #209, ( #144 ) ) ;
#245 = VERTEX_POINT ( 'NONE', #189 ) ;
#246 = AXIS2_PLACEMENT_3D ( 'NONE', #231, #216, #137 ) ;
#247 = VERTEX_POINT ( 'NONE', #92 ) ;
#248 = PERSON_AND_ORGANIZATION ( #187, #242 ) ;
#249 = ORIENTED_EDGE ( 'NONE', *, *, #104, .F. ) ;
#250 = LINE ( 'NONE', #219, #215 ) ;
#251 = CC_DESIGN_PERSON_AND_ORGANIZATION_ASSIGNMENT ( #48, #29, ( #3 ) ) ;
#252 = DIRECTION ( 'NONE',  ( 0.000000000000000000, 0.000000000000000000, 1.000000000000000000 ) ) ;
#253 = LINE ( 'NONE', #177, #131 ) ;
#254 = CARTESIAN_POINT ( 'NONE',  ( 0.000000000000000000, 0.000000000000000000, 0.000000000000000000 ) ) ;
#255 = DIRECTION ( 'NONE',  ( -0.000000000000000000, -0.000000000000000000, -1.000000000000000000 ) ) ;
ENDSEC;
END-ISO-10303-21;
