ISO-10303-21;
HEADER;
FILE_DESCRIPTION (( 'STEP AP203' ),
    '1' );
FILE_NAME ('Part4.STEP',
    '2025-11-08T10:53:13',
    ( '' ),
    ( '' ),
    'SwSTEP 2.0',
    'SolidWorks 2022',
    '' );
FILE_SCHEMA (( 'CONFIG_CONTROL_DESIGN' ));
ENDSEC;

DATA;
#1 = APPROVAL_PERSON_ORGANIZATION ( #166, #4, #165 ) ;
#2 = PERSON_AND_ORGANIZATION_ROLE ( 'creator' ) ;
#3 = CALENDAR_DATE ( 2025, 8, 11 ) ;
#4 = APPROVAL ( #109, 'UNSPECIFIED' ) ;
#5 = AXIS2_PLACEMENT_3D ( 'NONE', #142, #132, #9 ) ;
#6 = PRODUCT ( 'Part4', 'Part4', '', ( #93 ) ) ;
#7 = ORIENTED_EDGE ( 'NONE', *, *, #59, .T. ) ;
#8 = ORIENTED_EDGE ( 'NONE', *, *, #160, .F. ) ;
#9 = DIRECTION ( 'NONE',  ( 0.000000000000000000, -0.000000000000000000, 1.000000000000000000 ) ) ;
#10 = CARTESIAN_POINT ( 'NONE',  ( 0.000000000000000000, 60.00000000000000711, 0.000000000000000000 ) ) ;
#11 = DIRECTION ( 'NONE',  ( 0.000000000000000000, 1.000000000000000000, 0.000000000000000000 ) ) ;
#12 = FACE_OUTER_BOUND ( 'NONE', #151, .T. ) ;
#13 = DATE_AND_TIME ( #3, #145 ) ;
#14 = LOCAL_TIME ( 14, 23, 13.00000000000000000, #163 ) ;
#15 = DATE_AND_TIME ( #96, #69 ) ;
#16 = EDGE_CURVE ( 'NONE', #51, #19, #20, .T. ) ;
#17 = DESIGN_CONTEXT ( 'detailed design', #46, 'design' ) ;
#18 = AXIS2_PLACEMENT_3D ( 'NONE', #83, #11, #38 ) ;
#19 = VERTEX_POINT ( 'NONE', #100 ) ;
#20 = CIRCLE ( 'NONE', #156, 2.000000000000000000 ) ;
#21 = CYLINDRICAL_SURFACE ( 'NONE', #140, 2.000000000000000000 ) ;
#22 = CC_DESIGN_DATE_AND_TIME_ASSIGNMENT ( #42, #45, ( #104 ) ) ;
#23 = CARTESIAN_POINT ( 'NONE',  ( 0.000000000000000000, 60.00000000000000711, 0.000000000000000000 ) ) ;
#24 = DIRECTION ( 'NONE',  ( 0.000000000000000000, 0.000000000000000000, 1.000000000000000000 ) ) ;
#25 = DIRECTION ( 'NONE',  ( 0.000000000000000000, 0.000000000000000000, 1.000000000000000000 ) ) ;
#26 = APPROVAL_STATUS ( 'not_yet_approved' ) ;
#27 = COORDINATED_UNIVERSAL_TIME_OFFSET ( 3, 30, .AHEAD. ) ;
#28 = EDGE_CURVE ( 'NONE', #49, #53, #77, .T. ) ;
#29 = APPROVAL_PERSON_ORGANIZATION ( #44, #150, #162 ) ;
#30 = AXIS2_PLACEMENT_3D ( 'NONE', #37, #130, #25 ) ;
#31 = PERSON_AND_ORGANIZATION ( #79, #91 ) ;
#32 = APPROVAL_STATUS ( 'not_yet_approved' ) ;
#33 = ADVANCED_FACE ( 'NONE', ( #82 ), #118, .T. ) ;
#34 = DATE_AND_TIME ( #146, #14 ) ;
#35 = CC_DESIGN_PERSON_AND_ORGANIZATION_ASSIGNMENT ( #61, #64, ( #43 ) ) ;
#36 = CIRCLE ( 'NONE', #30, 2.000000000000000000 ) ;
#37 = CARTESIAN_POINT ( 'NONE',  ( 0.000000000000000000, 0.000000000000000000, 0.000000000000000000 ) ) ;
#38 = DIRECTION ( 'NONE',  ( 0.000000000000000000, 0.000000000000000000, 1.000000000000000000 ) ) ;
#39 = APPLICATION_PROTOCOL_DEFINITION ( 'international standard', 'config_control_design', 1994, #57 ) ;
#40 = LINE ( 'NONE', #103, #105 ) ;
#41 = PERSON_AND_ORGANIZATION_ROLE ( 'creator' ) ;
#42 = DATE_AND_TIME ( #119, #50 ) ;
#43 = PRODUCT_DEFINITION_FORMATION_WITH_SPECIFIED_SOURCE ( 'ANY', '', #6, .NOT_KNOWN. ) ;
#44 = PERSON_AND_ORGANIZATION ( #79, #91 ) ;
#45 = DATE_TIME_ROLE ( 'classification_date' ) ;
#46 = APPLICATION_CONTEXT ( 'configuration controlled 3d designs of mechanical parts and assemblies' ) ;
#47 = AXIS2_PLACEMENT_3D ( 'NONE', #114, #171, #128 ) ;
#48 = EDGE_LOOP ( 'NONE', ( #7, #169 ) ) ;
#49 = VERTEX_POINT ( 'NONE', #139 ) ;
#50 = LOCAL_TIME ( 14, 23, 13.00000000000000000, #147 ) ;
#51 = VERTEX_POINT ( 'NONE', #68 ) ;
#52 = PRODUCT_RELATED_PRODUCT_CATEGORY ( 'detail', '', ( #6 ) ) ;
#53 = VERTEX_POINT ( 'NONE', #159 ) ;
#54 = DIRECTION ( 'NONE',  ( -0.000000000000000000, -1.000000000000000000, -0.000000000000000000 ) ) ;
#55 = AXIS2_PLACEMENT_3D ( 'NONE', #161, #24, #106 ) ;
#56 = DIRECTION ( 'NONE',  ( 0.000000000000000000, 1.000000000000000000, 0.000000000000000000 ) ) ;
#57 = APPLICATION_CONTEXT ( 'configuration controlled 3d designs of mechanical parts and assemblies' ) ;
#58 = AXIS2_PLACEMENT_3D ( 'NONE', #23, #157, #117 ) ;
#59 = EDGE_CURVE ( 'NONE', #53, #49, #88, .T. ) ;
#60 = DATE_TIME_ROLE ( 'creation_date' ) ;
#61 = PERSON_AND_ORGANIZATION ( #79, #91 ) ;
#62 = CC_DESIGN_DATE_AND_TIME_ASSIGNMENT ( #34, #60, ( #84 ) ) ;
#63 = APPROVAL_ROLE ( '' ) ;
#64 = PERSON_AND_ORGANIZATION_ROLE ( 'design_supplier' ) ;
#65 = EDGE_LOOP ( 'NONE', ( #167, #66 ) ) ;
#66 = ORIENTED_EDGE ( 'NONE', *, *, #16, .F. ) ;
#67 = EDGE_LOOP ( 'NONE', ( #8, #168, #123, #101 ) ) ;
#68 = CARTESIAN_POINT ( 'NONE',  ( 2.449293598294705921E-16, 0.000000000000000000, 2.000000000000000000 ) ) ;
#69 = LOCAL_TIME ( 14, 23, 13.00000000000000000, #134 ) ;
#70 = CYLINDRICAL_SURFACE ( 'NONE', #58, 2.000000000000000000 ) ;
#71 =( NAMED_UNIT ( * ) PLANE_ANGLE_UNIT ( ) SI_UNIT ( $, .RADIAN. ) );
#72 = PERSON_AND_ORGANIZATION ( #79, #91 ) ;
#73 = VECTOR ( 'NONE', #92, 1000.000000000000000 ) ;
#74 = APPROVAL_DATE_TIME ( #97, #150 ) ;
#75 = CC_DESIGN_PERSON_AND_ORGANIZATION_ASSIGNMENT ( #31, #98, ( #6 ) ) ;
#76 = PERSON_AND_ORGANIZATION ( #79, #91 ) ;
#77 = CIRCLE ( 'NONE', #18, 2.000000000000000000 ) ;
#78 = PRODUCT_DEFINITION_SHAPE ( 'NONE', 'NONE',  #84 ) ;
#79 = PERSON ( 'UNSPECIFIED', 'UNSPECIFIED', 'UNSPECIFIED', ('UNSPECIFIED'), ('UNSPECIFIED'), ('UNSPECIFIED') ) ;
#80 = FACE_OUTER_BOUND ( 'NONE', #67, .T. ) ;
#81 =( LENGTH_UNIT ( ) NAMED_UNIT ( * ) SI_UNIT ( .MILLI., .METRE. ) );
#82 = FACE_OUTER_BOUND ( 'NONE', #48, .T. ) ;
#83 = CARTESIAN_POINT ( 'NONE',  ( 0.000000000000000000, 60.00000000000000711, 0.000000000000000000 ) ) ;
#84 = PRODUCT_DEFINITION ( 'UNKNOWN', '', #43, #17 ) ;
#85 = LINE ( 'NONE', #133, #73 ) ;
#86 = CALENDAR_DATE ( 2025, 8, 11 ) ;
#87 = SECURITY_CLASSIFICATION_LEVEL ( 'unclassified' ) ;
#88 = CIRCLE ( 'NONE', #47, 2.000000000000000000 ) ;
#89 = ORIENTED_EDGE ( 'NONE', *, *, #160, .T. ) ;
#90 = MANIFOLD_SOLID_BREP ( 'Boss-Extrude1', #149 ) ;
#91 = ORGANIZATION ( 'UNSPECIFIED', 'UNSPECIFIED', '' ) ;
#92 = DIRECTION ( 'NONE',  ( -0.000000000000000000, -1.000000000000000000, -0.000000000000000000 ) ) ;
#93 = MECHANICAL_CONTEXT ( 'NONE', #57, 'mechanical' ) ;
#94 = CC_DESIGN_PERSON_AND_ORGANIZATION_ASSIGNMENT ( #76, #164, ( #104 ) ) ;
#95 = DIRECTION ( 'NONE',  ( -0.000000000000000000, -1.000000000000000000, -0.000000000000000000 ) ) ;
#96 = CALENDAR_DATE ( 2025, 8, 11 ) ;
#97 = DATE_AND_TIME ( #86, #120 ) ;
#98 = PERSON_AND_ORGANIZATION_ROLE ( 'design_owner' ) ;
#99 = COORDINATED_UNIVERSAL_TIME_OFFSET ( 3, 30, .AHEAD. ) ;
#100 = CARTESIAN_POINT ( 'NONE',  ( 0.000000000000000000, 0.000000000000000000, -2.000000000000000000 ) ) ;
#101 = ORIENTED_EDGE ( 'NONE', *, *, #138, .T. ) ;
#102 = CC_DESIGN_SECURITY_CLASSIFICATION ( #104, ( #43 ) ) ;
#103 = CARTESIAN_POINT ( 'NONE',  ( 0.000000000000000000, 60.00000000000000711, -2.000000000000000000 ) ) ;
#104 = SECURITY_CLASSIFICATION ( '', '', #87 ) ;
#105 = VECTOR ( 'NONE', #95, 1000.000000000000000 ) ;
#106 = DIRECTION ( 'NONE',  ( 1.000000000000000000, 0.000000000000000000, 0.000000000000000000 ) ) ;
#107 = DIRECTION ( 'NONE',  ( 0.000000000000000000, 0.000000000000000000, -1.000000000000000000 ) ) ;
#108 = APPROVAL_DATE_TIME ( #15, #143 ) ;
#109 = APPROVAL_STATUS ( 'not_yet_approved' ) ;
#110 = ADVANCED_FACE ( 'NONE', ( #80 ), #21, .T. ) ;
#111 = PERSON_AND_ORGANIZATION ( #79, #91 ) ;
#112 = CARTESIAN_POINT ( 'NONE',  ( 0.000000000000000000, 0.000000000000000000, 0.000000000000000000 ) ) ;
#113 = EDGE_CURVE ( 'NONE', #53, #19, #40, .T. ) ;
#114 = CARTESIAN_POINT ( 'NONE',  ( 0.000000000000000000, 60.00000000000000711, 0.000000000000000000 ) ) ;
#115 = UNCERTAINTY_MEASURE_WITH_UNIT (LENGTH_MEASURE( 1.000000000000000082E-05 ), #81, 'distance_accuracy_value', 'NONE');
#116 = AXIS2_PLACEMENT_3D ( 'NONE', #127, #56, #158 ) ;
#117 = DIRECTION ( 'NONE',  ( 0.000000000000000000, 0.000000000000000000, -1.000000000000000000 ) ) ;
#118 = PLANE ( 'NONE',  #116 ) ;
#119 = CALENDAR_DATE ( 2025, 8, 11 ) ;
#120 = LOCAL_TIME ( 14, 23, 13.00000000000000000, #99 ) ;
#121 = CC_DESIGN_PERSON_AND_ORGANIZATION_ASSIGNMENT ( #144, #2, ( #84 ) ) ;
#122 = SHAPE_DEFINITION_REPRESENTATION ( #78, #153 ) ;
#123 = ORIENTED_EDGE ( 'NONE', *, *, #113, .T. ) ;
#124 = ORIENTED_EDGE ( 'NONE', *, *, #16, .T. ) ;
#125 = CC_DESIGN_PERSON_AND_ORGANIZATION_ASSIGNMENT ( #72, #41, ( #43 ) ) ;
#126 =( GEOMETRIC_REPRESENTATION_CONTEXT ( 3 ) GLOBAL_UNCERTAINTY_ASSIGNED_CONTEXT ( ( #115 ) ) GLOBAL_UNIT_ASSIGNED_CONTEXT ( ( #81, #71, #172 ) ) REPRESENTATION_CONTEXT ( 'NONE', 'WORKASPACE' ) );
#127 = CARTESIAN_POINT ( 'NONE',  ( 0.000000000000000000, 60.00000000000000711, 0.000000000000000000 ) ) ;
#128 = DIRECTION ( 'NONE',  ( 0.000000000000000000, 0.000000000000000000, 1.000000000000000000 ) ) ;
#129 = ADVANCED_FACE ( 'NONE', ( #141 ), #155, .F. ) ;
#130 = DIRECTION ( 'NONE',  ( 0.000000000000000000, 1.000000000000000000, 0.000000000000000000 ) ) ;
#131 = CC_DESIGN_APPROVAL ( #150, ( #104 ) ) ;
#132 = DIRECTION ( 'NONE',  ( 0.000000000000000000, 1.000000000000000000, 0.000000000000000000 ) ) ;
#133 = CARTESIAN_POINT ( 'NONE',  ( 2.449293598294705921E-16, 60.00000000000000711, 2.000000000000000000 ) ) ;
#134 = COORDINATED_UNIVERSAL_TIME_OFFSET ( 3, 30, .AHEAD. ) ;
#135 = APPROVAL_DATE_TIME ( #13, #4 ) ;
#136 = APPROVAL_PERSON_ORGANIZATION ( #111, #143, #63 ) ;
#137 = ORIENTED_EDGE ( 'NONE', *, *, #113, .F. ) ;
#138 = EDGE_CURVE ( 'NONE', #19, #51, #36, .T. ) ;
#139 = CARTESIAN_POINT ( 'NONE',  ( 2.449293598294705921E-16, 60.00000000000000711, 2.000000000000000000 ) ) ;
#140 = AXIS2_PLACEMENT_3D ( 'NONE', #10, #54, #107 ) ;
#141 = FACE_OUTER_BOUND ( 'NONE', #65, .T. ) ;
#142 = CARTESIAN_POINT ( 'NONE',  ( 0.000000000000000000, 0.000000000000000000, 0.000000000000000000 ) ) ;
#143 = APPROVAL ( #32, 'UNSPECIFIED' ) ;
#144 = PERSON_AND_ORGANIZATION ( #79, #91 ) ;
#145 = LOCAL_TIME ( 14, 23, 13.00000000000000000, #27 ) ;
#146 = CALENDAR_DATE ( 2025, 8, 11 ) ;
#147 = COORDINATED_UNIVERSAL_TIME_OFFSET ( 3, 30, .AHEAD. ) ;
#148 = APPLICATION_PROTOCOL_DEFINITION ( 'international standard', 'config_control_design', 1994, #46 ) ;
#149 = CLOSED_SHELL ( 'NONE', ( #175, #110, #33, #129 ) ) ;
#150 = APPROVAL ( #26, 'UNSPECIFIED' ) ;
#151 = EDGE_LOOP ( 'NONE', ( #152, #89, #124, #137 ) ) ;
#152 = ORIENTED_EDGE ( 'NONE', *, *, #28, .F. ) ;
#153 = ADVANCED_BREP_SHAPE_REPRESENTATION ( 'Part4', ( #90, #55 ), #126 ) ;
#154 = DIRECTION ( 'NONE',  ( 0.000000000000000000, 0.000000000000000000, 1.000000000000000000 ) ) ;
#155 = PLANE ( 'NONE',  #5 ) ;
#156 = AXIS2_PLACEMENT_3D ( 'NONE', #112, #170, #154 ) ;
#157 = DIRECTION ( 'NONE',  ( -0.000000000000000000, -1.000000000000000000, -0.000000000000000000 ) ) ;
#158 = DIRECTION ( 'NONE',  ( 0.000000000000000000, -0.000000000000000000, 1.000000000000000000 ) ) ;
#159 = CARTESIAN_POINT ( 'NONE',  ( 0.000000000000000000, 60.00000000000000711, -2.000000000000000000 ) ) ;
#160 = EDGE_CURVE ( 'NONE', #49, #51, #85, .T. ) ;
#161 = CARTESIAN_POINT ( 'NONE',  ( 0.000000000000000000, 0.000000000000000000, 0.000000000000000000 ) ) ;
#162 = APPROVAL_ROLE ( '' ) ;
#163 = COORDINATED_UNIVERSAL_TIME_OFFSET ( 3, 30, .AHEAD. ) ;
#164 = PERSON_AND_ORGANIZATION_ROLE ( 'classification_officer' ) ;
#165 = APPROVAL_ROLE ( '' ) ;
#166 = PERSON_AND_ORGANIZATION ( #79, #91 ) ;
#167 = ORIENTED_EDGE ( 'NONE', *, *, #138, .F. ) ;
#168 = ORIENTED_EDGE ( 'NONE', *, *, #59, .F. ) ;
#169 = ORIENTED_EDGE ( 'NONE', *, *, #28, .T. ) ;
#170 = DIRECTION ( 'NONE',  ( 0.000000000000000000, 1.000000000000000000, 0.000000000000000000 ) ) ;
#171 = DIRECTION ( 'NONE',  ( 0.000000000000000000, 1.000000000000000000, 0.000000000000000000 ) ) ;
#172 =( NAMED_UNIT ( * ) SI_UNIT ( $, .STERADIAN. ) SOLID_ANGLE_UNIT ( ) );
#173 = CC_DESIGN_APPROVAL ( #143, ( #43 ) ) ;
#174 = CC_DESIGN_APPROVAL ( #4, ( #84 ) ) ;
#175 = ADVANCED_FACE ( 'NONE', ( #12 ), #70, .T. ) ;
ENDSEC;
END-ISO-10303-21;
