ISO-10303-21;
HEADER;
FILE_DESCRIPTION (( 'STEP AP203' ),
    '1' );
FILE_NAME ('Part3.STEP',
    '2025-11-08T10:54:32',
    ( '' ),
    ( '' ),
    'SwSTEP 2.0',
    'SolidWorks 2022',
    '' );
FILE_SCHEMA (( 'CONFIG_CONTROL_DESIGN' ));
ENDSEC;

DATA;
#1 = EDGE_LOOP ( 'NONE', ( #186, #301 ) ) ;
#2 = AXIS2_PLACEMENT_3D ( 'NONE', #288, #198, #322 ) ;
#3 = ADVANCED_FACE ( 'NONE', ( #260 ), #48, .F. ) ;
#4 = EDGE_LOOP ( 'NONE', ( #203, #299, #308, #180 ) ) ;
#5 = COORDINATED_UNIVERSAL_TIME_OFFSET ( 3, 30, .AHEAD. ) ;
#6 = ORIENTED_EDGE ( 'NONE', *, *, #135, .F. ) ;
#7 = ORIENTED_EDGE ( 'NONE', *, *, #276, .F. ) ;
#8 = ADVANCED_FACE ( 'NONE', ( #286, #188, #254 ), #374, .F. ) ;
#9 = VECTOR ( 'NONE', #228, 1000.000000000000000 ) ;
#10 = DIRECTION ( 'NONE',  ( 0.000000000000000000, 1.000000000000000000, -0.000000000000000000 ) ) ;
#11 = DIRECTION ( 'NONE',  ( 0.000000000000000000, 0.000000000000000000, -1.000000000000000000 ) ) ;
#12 = CARTESIAN_POINT ( 'NONE',  ( 0.000000000000000000, 10.00000000000000000, 3.000000000000000444 ) ) ;
#13 = AXIS2_PLACEMENT_3D ( 'NONE', #144, #146, #293 ) ;
#14 = CARTESIAN_POINT ( 'NONE',  ( 0.000000000000000000, 0.000000000000000000, 0.000000000000000000 ) ) ;
#15 = APPROVAL_DATE_TIME ( #340, #235 ) ;
#16 = DIRECTION ( 'NONE',  ( -0.000000000000000000, -1.000000000000000000, -0.000000000000000000 ) ) ;
#17 = CARTESIAN_POINT ( 'NONE',  ( 40.00000000000000000, 0.000000000000000000, 0.000000000000000000 ) ) ;
#18 = CIRCLE ( 'NONE', #27, 0.9999999999999991118 ) ;
#19 = DIRECTION ( 'NONE',  ( -0.000000000000000000, -1.000000000000000000, -0.000000000000000000 ) ) ;
#20 = AXIS2_PLACEMENT_3D ( 'NONE', #259, #312, #110 ) ;
#21 = ADVANCED_BREP_SHAPE_REPRESENTATION ( 'Part3', ( #219, #343 ), #291 ) ;
#22 = CC_DESIGN_PERSON_AND_ORGANIZATION_ASSIGNMENT ( #150, #272, ( #314 ) ) ;
#23 = DIRECTION ( 'NONE',  ( -0.000000000000000000, -1.000000000000000000, -0.000000000000000000 ) ) ;
#24 = DESIGN_CONTEXT ( 'detailed design', #49, 'design' ) ;
#25 = CARTESIAN_POINT ( 'NONE',  ( 40.00000000000000000, 10.00000000000000000, -3.000000000000000888 ) ) ;
#26 = CARTESIAN_POINT ( 'NONE',  ( 0.000000000000000000, 10.00000000000000000, -3.000000000000000444 ) ) ;
#27 = AXIS2_PLACEMENT_3D ( 'NONE', #190, #350, #378 ) ;
#28 = VECTOR ( 'NONE', #19, 1000.000000000000000 ) ;
#29 = VERTEX_POINT ( 'NONE', #197 ) ;
#30 = CARTESIAN_POINT ( 'NONE',  ( 0.000000000000000000, 0.000000000000000000, 0.000000000000000000 ) ) ;
#31 = ORIENTED_EDGE ( 'NONE', *, *, #253, .T. ) ;
#32 = APPROVAL_ROLE ( '' ) ;
#33 = EDGE_LOOP ( 'NONE', ( #69, #213, #156, #251 ) ) ;
#34 = DIRECTION ( 'NONE',  ( 0.000000000000000000, 0.000000000000000000, -1.000000000000000000 ) ) ;
#35 = ORIENTED_EDGE ( 'NONE', *, *, #191, .T. ) ;
#36 = DATE_AND_TIME ( #216, #242 ) ;
#37 = VERTEX_POINT ( 'NONE', #376 ) ;
#38 = ADVANCED_FACE ( 'NONE', ( #225 ), #341, .T. ) ;
#39 = AXIS2_PLACEMENT_3D ( 'NONE', #199, #87, #55 ) ;
#40 = CIRCLE ( 'NONE', #2, 2.000000000000003109 ) ;
#41 = APPROVAL_STATUS ( 'not_yet_approved' ) ;
#42 = DIRECTION ( 'NONE',  ( 0.000000000000000000, 0.000000000000000000, 1.000000000000000000 ) ) ;
#43 = ADVANCED_FACE ( 'NONE', ( #141 ), #317, .F. ) ;
#44 = APPROVAL_DATE_TIME ( #108, #321 ) ;
#45 = DIRECTION ( 'NONE',  ( 0.000000000000000000, 0.000000000000000000, 1.000000000000000000 ) ) ;
#46 = CC_DESIGN_DATE_AND_TIME_ASSIGNMENT ( #36, #158, ( #71 ) ) ;
#47 = PERSON_AND_ORGANIZATION ( #223, #126 ) ;
#48 = PLANE ( 'NONE',  #351 ) ;
#49 = APPLICATION_CONTEXT ( 'configuration controlled 3d designs of mechanical parts and assemblies' ) ;
#50 = SECURITY_CLASSIFICATION_LEVEL ( 'unclassified' ) ;
#51 = AXIS2_PLACEMENT_3D ( 'NONE', #218, #157, #284 ) ;
#52 = ORIENTED_EDGE ( 'NONE', *, *, #112, .T. ) ;
#53 = DIRECTION ( 'NONE',  ( 0.000000000000000000, 0.000000000000000000, 1.000000000000000000 ) ) ;
#54 = CARTESIAN_POINT ( 'NONE',  ( 40.00000000000000000, 10.00000000000000000, 0.000000000000000000 ) ) ;
#55 = DIRECTION ( 'NONE',  ( -1.000000000000000000, 0.000000000000000000, -0.000000000000000000 ) ) ;
#56 = VECTOR ( 'NONE', #384, 1000.000000000000000 ) ;
#57 = DIRECTION ( 'NONE',  ( 0.000000000000000000, 1.000000000000000000, -0.000000000000000000 ) ) ;
#58 = EDGE_CURVE ( 'NONE', #246, #273, #18, .T. ) ;
#59 = LINE ( 'NONE', #84, #352 ) ;
#60 = PRODUCT_DEFINITION_SHAPE ( 'NONE', 'NONE',  #314 ) ;
#61 = DIRECTION ( 'NONE',  ( 0.000000000000000000, 0.000000000000000000, 1.000000000000000000 ) ) ;
#62 = AXIS2_PLACEMENT_3D ( 'NONE', #17, #201, #85 ) ;
#63 = FACE_OUTER_BOUND ( 'NONE', #33, .T. ) ;
#64 = EDGE_LOOP ( 'NONE', ( #277, #154 ) ) ;
#65 = CALENDAR_DATE ( 2025, 8, 11 ) ;
#66 = ORIENTED_EDGE ( 'NONE', *, *, #215, .F. ) ;
#67 = EDGE_CURVE ( 'NONE', #366, #95, #165, .T. ) ;
#68 = FACE_OUTER_BOUND ( 'NONE', #217, .T. ) ;
#69 = ORIENTED_EDGE ( 'NONE', *, *, #204, .F. ) ;
#70 = CIRCLE ( 'NONE', #302, 2.000000000000003109 ) ;
#71 = SECURITY_CLASSIFICATION ( '', '', #50 ) ;
#72 = DIRECTION ( 'NONE',  ( -0.000000000000000000, -1.000000000000000000, -0.000000000000000000 ) ) ;
#73 = ORIENTED_EDGE ( 'NONE', *, *, #181, .T. ) ;
#74 = EDGE_LOOP ( 'NONE', ( #275, #31, #388, #151 ) ) ;
#75 = PERSON_AND_ORGANIZATION ( #223, #126 ) ;
#76 = ORIENTED_EDGE ( 'NONE', *, *, #247, .T. ) ;
#77 = VECTOR ( 'NONE', #294, 1000.000000000000000 ) ;
#78 = DIRECTION ( 'NONE',  ( 0.000000000000000000, 1.000000000000000000, -0.000000000000000000 ) ) ;
#79 = EDGE_CURVE ( 'NONE', #333, #239, #132, .T. ) ;
#80 = FACE_OUTER_BOUND ( 'NONE', #305, .T. ) ;
#81 = EDGE_LOOP ( 'NONE', ( #76, #386, #103, #97 ) ) ;
#82 = VECTOR ( 'NONE', #315, 1000.000000000000000 ) ;
#83 = DIRECTION ( 'NONE',  ( 0.000000000000000000, 0.000000000000000000, 1.000000000000000000 ) ) ;
#84 = CARTESIAN_POINT ( 'NONE',  ( 0.000000000000000000, 0.000000000000000000, -3.000000000000000444 ) ) ;
#85 = DIRECTION ( 'NONE',  ( 0.000000000000000000, 0.000000000000000000, 1.000000000000000000 ) ) ;
#86 = EDGE_CURVE ( 'NONE', #310, #371, #279, .T. ) ;
#87 = DIRECTION ( 'NONE',  ( 0.000000000000000000, 0.000000000000000000, -1.000000000000000000 ) ) ;
#88 = LINE ( 'NONE', #25, #296 ) ;
#89 = LINE ( 'NONE', #172, #9 ) ;
#90 = APPROVAL_ROLE ( '' ) ;
#91 = EDGE_CURVE ( 'NONE', #273, #246, #100, .T. ) ;
#92 = ORIENTED_EDGE ( 'NONE', *, *, #91, .T. ) ;
#93 = AXIS2_PLACEMENT_3D ( 'NONE', #98, #72, #372 ) ;
#94 = APPLICATION_PROTOCOL_DEFINITION ( 'international standard', 'config_control_design', 1994, #49 ) ;
#95 = VERTEX_POINT ( 'NONE', #136 ) ;
#96 = DATE_TIME_ROLE ( 'creation_date' ) ;
#97 = ORIENTED_EDGE ( 'NONE', *, *, #303, .T. ) ;
#98 = CARTESIAN_POINT ( 'NONE',  ( 40.00000000000000000, 10.00000000000000000, 0.000000000000000000 ) ) ;
#99 = EDGE_LOOP ( 'NONE', ( #270, #92 ) ) ;
#100 = CIRCLE ( 'NONE', #240, 0.9999999999999991118 ) ;
#101 = CC_DESIGN_PERSON_AND_ORGANIZATION_ASSIGNMENT ( #342, #282, ( #121 ) ) ;
#102 = CARTESIAN_POINT ( 'NONE',  ( 0.000000000000000000, 0.000000000000000000, 3.000000000000000444 ) ) ;
#103 = ORIENTED_EDGE ( 'NONE', *, *, #297, .F. ) ;
#104 = DIRECTION ( 'NONE',  ( 0.000000000000000000, 1.000000000000000000, -0.000000000000000000 ) ) ;
#105 = LINE ( 'NONE', #313, #233 ) ;
#106 = UNCERTAINTY_MEASURE_WITH_UNIT (LENGTH_MEASURE( 1.000000000000000082E-05 ), #129, 'distance_accuracy_value', 'NONE');
#107 = CIRCLE ( 'NONE', #62, 3.000000000000001332 ) ;
#108 = DATE_AND_TIME ( #348, #280 ) ;
#109 = DIRECTION ( 'NONE',  ( 0.000000000000000000, 0.000000000000000000, 1.000000000000000000 ) ) ;
#110 = DIRECTION ( 'NONE',  ( 0.000000000000000000, 0.000000000000000000, 1.000000000000000000 ) ) ;
#111 = DIRECTION ( 'NONE',  ( 0.000000000000000000, 1.000000000000000000, -0.000000000000000000 ) ) ;
#112 = EDGE_CURVE ( 'NONE', #373, #29, #105, .T. ) ;
#113 = CIRCLE ( 'NONE', #271, 3.000000000000000444 ) ;
#114 = CYLINDRICAL_SURFACE ( 'NONE', #196, 2.000000000000003109 ) ;
#115 = CC_DESIGN_APPROVAL ( #321, ( #71 ) ) ;
#116 = LINE ( 'NONE', #168, #28 ) ;
#117 = EDGE_CURVE ( 'NONE', #239, #333, #207, .T. ) ;
#118 = CARTESIAN_POINT ( 'NONE',  ( 40.00000000000000000, 10.00000000000000000, 0.000000000000000000 ) ) ;
#119 = CC_DESIGN_PERSON_AND_ORGANIZATION_ASSIGNMENT ( #187, #194, ( #71 ) ) ;
#120 = CARTESIAN_POINT ( 'NONE',  ( 1.224646799147352221E-16, 0.000000000000000000, 0.9999999999999991118 ) ) ;
#121 = PRODUCT_DEFINITION_FORMATION_WITH_SPECIFIED_SOURCE ( 'ANY', '', #173, .NOT_KNOWN. ) ;
#122 = APPROVAL_PERSON_ORGANIZATION ( #47, #321, #164 ) ;
#123 = DIRECTION ( 'NONE',  ( -0.000000000000000000, -1.000000000000000000, -0.000000000000000000 ) ) ;
#124 = ORIENTED_EDGE ( 'NONE', *, *, #86, .T. ) ;
#125 = ORIENTED_EDGE ( 'NONE', *, *, #287, .T. ) ;
#126 = ORGANIZATION ( 'UNSPECIFIED', 'UNSPECIFIED', '' ) ;
#127 = COORDINATED_UNIVERSAL_TIME_OFFSET ( 3, 30, .AHEAD. ) ;
#128 = ORIENTED_EDGE ( 'NONE', *, *, #247, .F. ) ;
#129 =( LENGTH_UNIT ( ) NAMED_UNIT ( * ) SI_UNIT ( .MILLI., .METRE. ) );
#130 = VERTEX_POINT ( 'NONE', #256 ) ;
#131 = ORIENTED_EDGE ( 'NONE', *, *, #287, .F. ) ;
#132 = CIRCLE ( 'NONE', #20, 0.9999999999999991118 ) ;
#133 = VECTOR ( 'NONE', #355, 1000.000000000000000 ) ;
#134 = CARTESIAN_POINT ( 'NONE',  ( 0.000000000000000000, 10.00000000000000000, 0.000000000000000000 ) ) ;
#135 = EDGE_CURVE ( 'NONE', #373, #364, #113, .T. ) ;
#136 = CARTESIAN_POINT ( 'NONE',  ( 40.00000000000000000, 0.000000000000000000, 3.000000000000000888 ) ) ;
#137 = CC_DESIGN_DATE_AND_TIME_ASSIGNMENT ( #367, #96, ( #314 ) ) ;
#138 = CARTESIAN_POINT ( 'NONE',  ( 0.000000000000000000, 10.00000000000000000, 0.000000000000000000 ) ) ;
#139 = LOCAL_TIME ( 14, 24, 32.00000000000000000, #206 ) ;
#140 = DIRECTION ( 'NONE',  ( -1.000000000000000000, 0.000000000000000000, -0.000000000000000000 ) ) ;
#141 = FACE_OUTER_BOUND ( 'NONE', #182, .T. ) ;
#142 = APPLICATION_CONTEXT ( 'configuration controlled 3d designs of mechanical parts and assemblies' ) ;
#143 = CARTESIAN_POINT ( 'NONE',  ( 40.00000000000000000, 10.00000000000000000, 0.000000000000000000 ) ) ;
#144 = CARTESIAN_POINT ( 'NONE',  ( 40.00000000000000000, 10.00000000000000000, 0.000000000000000000 ) ) ;
#145 = DIRECTION ( 'NONE',  ( 0.000000000000000000, 0.000000000000000000, -1.000000000000000000 ) ) ;
#146 = DIRECTION ( 'NONE',  ( 0.000000000000000000, 1.000000000000000000, -0.000000000000000000 ) ) ;
#147 = LINE ( 'NONE', #290, #176 ) ;
#148 = AXIS2_PLACEMENT_3D ( 'NONE', #283, #257, #109 ) ;
#149 = ORIENTED_EDGE ( 'NONE', *, *, #67, .F. ) ;
#150 = PERSON_AND_ORGANIZATION ( #223, #126 ) ;
#151 = ORIENTED_EDGE ( 'NONE', *, *, #112, .F. ) ;
#152 = CIRCLE ( 'NONE', #226, 3.000000000000000444 ) ;
#153 = APPLICATION_PROTOCOL_DEFINITION ( 'international standard', 'config_control_design', 1994, #142 ) ;
#154 = ORIENTED_EDGE ( 'NONE', *, *, #193, .F. ) ;
#155 =( NAMED_UNIT ( * ) PLANE_ANGLE_UNIT ( ) SI_UNIT ( $, .RADIAN. ) );
#156 = ORIENTED_EDGE ( 'NONE', *, *, #276, .T. ) ;
#157 = DIRECTION ( 'NONE',  ( -0.000000000000000000, -1.000000000000000000, -0.000000000000000000 ) ) ;
#158 = DATE_TIME_ROLE ( 'classification_date' ) ;
#159 = DIRECTION ( 'NONE',  ( 0.000000000000000000, 0.000000000000000000, 1.000000000000000000 ) ) ;
#160 = ADVANCED_FACE ( 'NONE', ( #224, #222, #161 ), #347, .T. ) ;
#161 = FACE_BOUND ( 'NONE', #64, .T. ) ;
#162 = CARTESIAN_POINT ( 'NONE',  ( 40.00000000000000000, 0.000000000000000000, 0.000000000000000000 ) ) ;
#163 = VECTOR ( 'NONE', #123, 1000.000000000000000 ) ;
#164 = APPROVAL_ROLE ( '' ) ;
#165 = LINE ( 'NONE', #278, #82 ) ;
#166 = ADVANCED_FACE ( 'NONE', ( #80 ), #358, .T. ) ;
#167 = CARTESIAN_POINT ( 'NONE',  ( 40.00000000000000000, 0.000000000000000000, -2.000000000000003109 ) ) ;
#168 = CARTESIAN_POINT ( 'NONE',  ( 0.000000000000000000, 10.00000000000000000, 3.000000000000000444 ) ) ;
#169 = APPROVAL_PERSON_ORGANIZATION ( #238, #345, #90 ) ;
#170 = LOCAL_TIME ( 14, 24, 32.00000000000000000, #5 ) ;
#171 = DIRECTION ( 'NONE',  ( -0.000000000000000000, -1.000000000000000000, -0.000000000000000000 ) ) ;
#172 = CARTESIAN_POINT ( 'NONE',  ( 1.224646799147352221E-16, 10.00000000000000000, 0.9999999999999991118 ) ) ;
#173 = PRODUCT ( 'Part3', 'Part3', '', ( #241 ) ) ;
#174 = LINE ( 'NONE', #26, #77 ) ;
#175 = CARTESIAN_POINT ( 'NONE',  ( 40.00000000000000000, 10.00000000000000000, -2.000000000000003109 ) ) ;
#176 = VECTOR ( 'NONE', #266, 1000.000000000000000 ) ;
#177 = CARTESIAN_POINT ( 'NONE',  ( 0.000000000000000000, 10.00000000000000000, 3.000000000000000444 ) ) ;
#178 = ORIENTED_EDGE ( 'NONE', *, *, #231, .T. ) ;
#179 = APPROVAL_DATE_TIME ( #365, #345 ) ;
#180 = ORIENTED_EDGE ( 'NONE', *, *, #221, .T. ) ;
#181 = EDGE_CURVE ( 'NONE', #29, #37, #88, .T. ) ;
#182 = EDGE_LOOP ( 'NONE', ( #356, #368, #328, #335 ) ) ;
#183 = CC_DESIGN_APPROVAL ( #345, ( #314 ) ) ;
#184 = CARTESIAN_POINT ( 'NONE',  ( 40.00000000000000000, 0.000000000000000000, 2.000000000000003109 ) ) ;
#185 = ORIENTED_EDGE ( 'NONE', *, *, #117, .T. ) ;
#186 = ORIENTED_EDGE ( 'NONE', *, *, #79, .F. ) ;
#187 = PERSON_AND_ORGANIZATION ( #223, #126 ) ;
#188 = FACE_OUTER_BOUND ( 'NONE', #211, .T. ) ;
#189 = AXIS2_PLACEMENT_3D ( 'NONE', #14, #104, #83 ) ;
#190 = CARTESIAN_POINT ( 'NONE',  ( 0.000000000000000000, 0.000000000000000000, 0.000000000000000000 ) ) ;
#191 = EDGE_CURVE ( 'NONE', #333, #246, #202, .T. ) ;
#192 = VERTEX_POINT ( 'NONE', #382 ) ;
#193 = EDGE_CURVE ( 'NONE', #267, #349, #70, .T. ) ;
#194 = PERSON_AND_ORGANIZATION_ROLE ( 'classification_officer' ) ;
#195 = DIRECTION ( 'NONE',  ( 0.000000000000000000, 0.000000000000000000, -1.000000000000000000 ) ) ;
#196 = AXIS2_PLACEMENT_3D ( 'NONE', #143, #171, #145 ) ;
#197 = CARTESIAN_POINT ( 'NONE',  ( 40.00000000000000000, 10.00000000000000000, -3.000000000000000888 ) ) ;
#198 = DIRECTION ( 'NONE',  ( 0.000000000000000000, 1.000000000000000000, -0.000000000000000000 ) ) ;
#199 = CARTESIAN_POINT ( 'NONE',  ( 0.000000000000000000, 10.00000000000000000, -3.000000000000000444 ) ) ;
#200 = AXIS2_PLACEMENT_3D ( 'NONE', #54, #262, #229 ) ;
#201 = DIRECTION ( 'NONE',  ( 0.000000000000000000, 1.000000000000000000, -0.000000000000000000 ) ) ;
#202 = LINE ( 'NONE', #325, #133 ) ;
#203 = ORIENTED_EDGE ( 'NONE', *, *, #67, .T. ) ;
#204 = EDGE_CURVE ( 'NONE', #267, #371, #263, .T. ) ;
#205 = DIRECTION ( 'NONE',  ( -0.000000000000000000, -1.000000000000000000, -0.000000000000000000 ) ) ;
#206 = COORDINATED_UNIVERSAL_TIME_OFFSET ( 3, 30, .AHEAD. ) ;
#207 = CIRCLE ( 'NONE', #252, 0.9999999999999991118 ) ;
#208 = ORIENTED_EDGE ( 'NONE', *, *, #307, .T. ) ;
#209 = ORIENTED_EDGE ( 'NONE', *, *, #307, .F. ) ;
#210 = PERSON_AND_ORGANIZATION ( #223, #126 ) ;
#211 = EDGE_LOOP ( 'NONE', ( #209, #178, #128, #149 ) ) ;
#212 = CARTESIAN_POINT ( 'NONE',  ( 0.000000000000000000, 10.00000000000000000, -3.000000000000000444 ) ) ;
#213 = ORIENTED_EDGE ( 'NONE', *, *, #193, .T. ) ;
#214 = APPROVAL_PERSON_ORGANIZATION ( #334, #235, #32 ) ;
#215 = EDGE_CURVE ( 'NONE', #239, #273, #89, .T. ) ;
#216 = CALENDAR_DATE ( 2025, 8, 11 ) ;
#217 = EDGE_LOOP ( 'NONE', ( #208, #295, #6, #125 ) ) ;
#218 = CARTESIAN_POINT ( 'NONE',  ( 40.00000000000000000, 10.00000000000000000, 0.000000000000000000 ) ) ;
#219 = MANIFOLD_SOLID_BREP ( 'Boss-Extrude1', #232 ) ;
#220 = DIRECTION ( 'NONE',  ( 1.000000000000000000, -0.000000000000000000, 0.000000000000000000 ) ) ;
#221 = EDGE_CURVE ( 'NONE', #364, #366, #116, .T. ) ;
#222 = FACE_OUTER_BOUND ( 'NONE', #74, .T. ) ;
#223 = PERSON ( 'UNSPECIFIED', 'UNSPECIFIED', 'UNSPECIFIED', ('UNSPECIFIED'), ('UNSPECIFIED'), ('UNSPECIFIED') ) ;
#224 = FACE_BOUND ( 'NONE', #1, .T. ) ;
#225 = FACE_OUTER_BOUND ( 'NONE', #81, .T. ) ;
#226 = AXIS2_PLACEMENT_3D ( 'NONE', #385, #236, #53 ) ;
#227 = ADVANCED_FACE ( 'NONE', ( #360 ), #114, .F. ) ;
#228 = DIRECTION ( 'NONE',  ( -0.000000000000000000, -1.000000000000000000, -0.000000000000000000 ) ) ;
#229 = DIRECTION ( 'NONE',  ( 0.000000000000000000, 0.000000000000000000, 1.000000000000000000 ) ) ;
#230 = CARTESIAN_POINT ( 'NONE',  ( 0.000000000000000000, 10.00000000000000000, 3.000000000000000444 ) ) ;
#231 = EDGE_CURVE ( 'NONE', #130, #37, #59, .T. ) ;
#232 = CLOSED_SHELL ( 'NONE', ( #227, #43, #359, #3, #38, #166, #379, #362, #160, #8 ) ) ;
#233 = VECTOR ( 'NONE', #220, 1000.000000000000000 ) ;
#234 = LINE ( 'NONE', #292, #163 ) ;
#235 = APPROVAL ( #304, 'UNSPECIFIED' ) ;
#236 = DIRECTION ( 'NONE',  ( 0.000000000000000000, 1.000000000000000000, -0.000000000000000000 ) ) ;
#237 = ORIENTED_EDGE ( 'NONE', *, *, #91, .F. ) ;
#238 = PERSON_AND_ORGANIZATION ( #223, #126 ) ;
#239 = VERTEX_POINT ( 'NONE', #261 ) ;
#240 = AXIS2_PLACEMENT_3D ( 'NONE', #320, #380, #159 ) ;
#241 = MECHANICAL_CONTEXT ( 'NONE', #142, 'mechanical' ) ;
#242 = LOCAL_TIME ( 14, 24, 32.00000000000000000, #316 ) ;
#243 = EDGE_CURVE ( 'NONE', #349, #267, #318, .T. ) ;
#244 = ORIENTED_EDGE ( 'NONE', *, *, #86, .F. ) ;
#245 = CALENDAR_DATE ( 2025, 8, 11 ) ;
#246 = VERTEX_POINT ( 'NONE', #381 ) ;
#247 = EDGE_CURVE ( 'NONE', #95, #37, #107, .T. ) ;
#248 = ORIENTED_EDGE ( 'NONE', *, *, #243, .T. ) ;
#249 = DIRECTION ( 'NONE',  ( -0.000000000000000000, -1.000000000000000000, -0.000000000000000000 ) ) ;
#250 = AXIS2_PLACEMENT_3D ( 'NONE', #138, #16, #11 ) ;
#251 = ORIENTED_EDGE ( 'NONE', *, *, #336, .F. ) ;
#252 = AXIS2_PLACEMENT_3D ( 'NONE', #134, #111, #377 ) ;
#253 = EDGE_CURVE ( 'NONE', #364, #192, #264, .T. ) ;
#254 = FACE_BOUND ( 'NONE', #268, .T. ) ;
#255 = CALENDAR_DATE ( 2025, 8, 11 ) ;
#256 = CARTESIAN_POINT ( 'NONE',  ( 0.000000000000000000, 0.000000000000000000, -3.000000000000000444 ) ) ;
#257 = DIRECTION ( 'NONE',  ( 0.000000000000000000, 1.000000000000000000, -0.000000000000000000 ) ) ;
#258 = CC_DESIGN_PERSON_AND_ORGANIZATION_ASSIGNMENT ( #210, #387, ( #173 ) ) ;
#259 = CARTESIAN_POINT ( 'NONE',  ( 0.000000000000000000, 10.00000000000000000, 0.000000000000000000 ) ) ;
#260 = FACE_OUTER_BOUND ( 'NONE', #4, .T. ) ;
#261 = CARTESIAN_POINT ( 'NONE',  ( 1.224646799147352221E-16, 10.00000000000000000, 0.9999999999999991118 ) ) ;
#262 = DIRECTION ( 'NONE',  ( 0.000000000000000000, 1.000000000000000000, -0.000000000000000000 ) ) ;
#263 = LINE ( 'NONE', #383, #329 ) ;
#264 = LINE ( 'NONE', #230, #56 ) ;
#265 = AXIS2_PLACEMENT_3D ( 'NONE', #327, #389, #34 ) ;
#266 = DIRECTION ( 'NONE',  ( -0.000000000000000000, -1.000000000000000000, -0.000000000000000000 ) ) ;
#267 = VERTEX_POINT ( 'NONE', #353 ) ;
#268 = EDGE_LOOP ( 'NONE', ( #124, #281 ) ) ;
#269 = FACE_OUTER_BOUND ( 'NONE', #338, .T. ) ;
#270 = ORIENTED_EDGE ( 'NONE', *, *, #58, .T. ) ;
#271 = AXIS2_PLACEMENT_3D ( 'NONE', #344, #78, #45 ) ;
#272 = PERSON_AND_ORGANIZATION_ROLE ( 'creator' ) ;
#273 = VERTEX_POINT ( 'NONE', #120 ) ;
#274 = CYLINDRICAL_SURFACE ( 'NONE', #93, 2.000000000000003109 ) ;
#275 = ORIENTED_EDGE ( 'NONE', *, *, #135, .T. ) ;
#276 = EDGE_CURVE ( 'NONE', #349, #310, #234, .T. ) ;
#277 = ORIENTED_EDGE ( 'NONE', *, *, #243, .F. ) ;
#278 = CARTESIAN_POINT ( 'NONE',  ( 0.000000000000000000, 0.000000000000000000, 3.000000000000000444 ) ) ;
#279 = CIRCLE ( 'NONE', #357, 2.000000000000003109 ) ;
#280 = LOCAL_TIME ( 14, 24, 32.00000000000000000, #309 ) ;
#281 = ORIENTED_EDGE ( 'NONE', *, *, #336, .T. ) ;
#282 = PERSON_AND_ORGANIZATION_ROLE ( 'creator' ) ;
#283 = CARTESIAN_POINT ( 'NONE',  ( 0.000000000000000000, 10.00000000000000000, 0.000000000000000000 ) ) ;
#284 = DIRECTION ( 'NONE',  ( 0.000000000000000000, 0.000000000000000000, -1.000000000000000000 ) ) ;
#285 = LOCAL_TIME ( 14, 24, 32.00000000000000000, #127 ) ;
#286 = FACE_BOUND ( 'NONE', #99, .T. ) ;
#287 = EDGE_CURVE ( 'NONE', #373, #130, #174, .T. ) ;
#288 = CARTESIAN_POINT ( 'NONE',  ( 40.00000000000000000, 0.000000000000000000, 0.000000000000000000 ) ) ;
#289 = CC_DESIGN_PERSON_AND_ORGANIZATION_ASSIGNMENT ( #75, #346, ( #121 ) ) ;
#290 = CARTESIAN_POINT ( 'NONE',  ( 40.00000000000000000, 10.00000000000000000, 3.000000000000000888 ) ) ;
#291 =( GEOMETRIC_REPRESENTATION_CONTEXT ( 3 ) GLOBAL_UNCERTAINTY_ASSIGNED_CONTEXT ( ( #106 ) ) GLOBAL_UNIT_ASSIGNED_CONTEXT ( ( #129, #155, #300 ) ) REPRESENTATION_CONTEXT ( 'NONE', 'WORKASPACE' ) );
#292 = CARTESIAN_POINT ( 'NONE',  ( 40.00000000000000000, 10.00000000000000000, -2.000000000000003109 ) ) ;
#293 = DIRECTION ( 'NONE',  ( 0.000000000000000000, 0.000000000000000000, 1.000000000000000000 ) ) ;
#294 = DIRECTION ( 'NONE',  ( -0.000000000000000000, -1.000000000000000000, -0.000000000000000000 ) ) ;
#295 = ORIENTED_EDGE ( 'NONE', *, *, #221, .F. ) ;
#296 = VECTOR ( 'NONE', #205, 1000.000000000000000 ) ;
#297 = EDGE_CURVE ( 'NONE', #192, #29, #324, .T. ) ;
#298 = DIRECTION ( 'NONE',  ( 0.000000000000000000, 0.000000000000000000, -1.000000000000000000 ) ) ;
#299 = ORIENTED_EDGE ( 'NONE', *, *, #303, .F. ) ;
#300 =( NAMED_UNIT ( * ) SI_UNIT ( $, .STERADIAN. ) SOLID_ANGLE_UNIT ( ) );
#301 = ORIENTED_EDGE ( 'NONE', *, *, #117, .F. ) ;
#302 = AXIS2_PLACEMENT_3D ( 'NONE', #118, #57, #323 ) ;
#303 = EDGE_CURVE ( 'NONE', #192, #95, #147, .T. ) ;
#304 = APPROVAL_STATUS ( 'not_yet_approved' ) ;
#305 = EDGE_LOOP ( 'NONE', ( #332, #131, #52, #73 ) ) ;
#306 = CYLINDRICAL_SURFACE ( 'NONE', #265, 0.9999999999999991118 ) ;
#307 = EDGE_CURVE ( 'NONE', #130, #366, #152, .T. ) ;
#308 = ORIENTED_EDGE ( 'NONE', *, *, #253, .F. ) ;
#309 = COORDINATED_UNIVERSAL_TIME_OFFSET ( 3, 30, .AHEAD. ) ;
#310 = VERTEX_POINT ( 'NONE', #167 ) ;
#311 = AXIS2_PLACEMENT_3D ( 'NONE', #337, #249, #298 ) ;
#312 = DIRECTION ( 'NONE',  ( 0.000000000000000000, 1.000000000000000000, -0.000000000000000000 ) ) ;
#313 = CARTESIAN_POINT ( 'NONE',  ( 0.000000000000000000, 10.00000000000000000, -3.000000000000000444 ) ) ;
#314 = PRODUCT_DEFINITION ( 'UNKNOWN', '', #121, #24 ) ;
#315 = DIRECTION ( 'NONE',  ( 1.000000000000000000, -0.000000000000000000, 0.000000000000000000 ) ) ;
#316 = COORDINATED_UNIVERSAL_TIME_OFFSET ( 3, 30, .AHEAD. ) ;
#317 = CYLINDRICAL_SURFACE ( 'NONE', #250, 0.9999999999999991118 ) ;
#318 = CIRCLE ( 'NONE', #13, 2.000000000000003109 ) ;
#319 = CC_DESIGN_APPROVAL ( #235, ( #121 ) ) ;
#320 = CARTESIAN_POINT ( 'NONE',  ( 0.000000000000000000, 0.000000000000000000, 0.000000000000000000 ) ) ;
#321 = APPROVAL ( #41, 'UNSPECIFIED' ) ;
#322 = DIRECTION ( 'NONE',  ( 0.000000000000000000, 0.000000000000000000, 1.000000000000000000 ) ) ;
#323 = DIRECTION ( 'NONE',  ( 0.000000000000000000, 0.000000000000000000, 1.000000000000000000 ) ) ;
#324 = CIRCLE ( 'NONE', #200, 3.000000000000001332 ) ;
#325 = CARTESIAN_POINT ( 'NONE',  ( 0.000000000000000000, 10.00000000000000000, -0.9999999999999991118 ) ) ;
#326 = DIRECTION ( 'NONE',  ( 1.000000000000000000, -0.000000000000000000, 0.000000000000000000 ) ) ;
#327 = CARTESIAN_POINT ( 'NONE',  ( 0.000000000000000000, 10.00000000000000000, 0.000000000000000000 ) ) ;
#328 = ORIENTED_EDGE ( 'NONE', *, *, #58, .F. ) ;
#329 = VECTOR ( 'NONE', #23, 1000.000000000000000 ) ;
#330 = DIRECTION ( 'NONE',  ( 1.000000000000000000, 0.000000000000000000, 0.000000000000000000 ) ) ;
#331 = CC_DESIGN_SECURITY_CLASSIFICATION ( #71, ( #121 ) ) ;
#332 = ORIENTED_EDGE ( 'NONE', *, *, #231, .F. ) ;
#333 = VERTEX_POINT ( 'NONE', #354 ) ;
#334 = PERSON_AND_ORGANIZATION ( #223, #126 ) ;
#335 = ORIENTED_EDGE ( 'NONE', *, *, #191, .F. ) ;
#336 = EDGE_CURVE ( 'NONE', #371, #310, #40, .T. ) ;
#337 = CARTESIAN_POINT ( 'NONE',  ( 0.000000000000000000, 10.00000000000000000, 0.000000000000000000 ) ) ;
#338 = EDGE_LOOP ( 'NONE', ( #66, #185, #35, #237 ) ) ;
#339 = ORIENTED_EDGE ( 'NONE', *, *, #204, .T. ) ;
#340 = DATE_AND_TIME ( #255, #170 ) ;
#341 = CYLINDRICAL_SURFACE ( 'NONE', #51, 3.000000000000001332 ) ;
#342 = PERSON_AND_ORGANIZATION ( #223, #126 ) ;
#343 = AXIS2_PLACEMENT_3D ( 'NONE', #30, #61, #330 ) ;
#344 = CARTESIAN_POINT ( 'NONE',  ( 0.000000000000000000, 10.00000000000000000, 0.000000000000000000 ) ) ;
#345 = APPROVAL ( #363, 'UNSPECIFIED' ) ;
#346 = PERSON_AND_ORGANIZATION_ROLE ( 'design_supplier' ) ;
#347 = PLANE ( 'NONE',  #148 ) ;
#348 = CALENDAR_DATE ( 2025, 8, 11 ) ;
#349 = VERTEX_POINT ( 'NONE', #175 ) ;
#350 = DIRECTION ( 'NONE',  ( 0.000000000000000000, 1.000000000000000000, -0.000000000000000000 ) ) ;
#351 = AXIS2_PLACEMENT_3D ( 'NONE', #12, #195, #140 ) ;
#352 = VECTOR ( 'NONE', #326, 1000.000000000000000 ) ;
#353 = CARTESIAN_POINT ( 'NONE',  ( 40.00000000000000000, 10.00000000000000000, 2.000000000000003109 ) ) ;
#354 = CARTESIAN_POINT ( 'NONE',  ( 0.000000000000000000, 10.00000000000000000, -0.9999999999999991118 ) ) ;
#355 = DIRECTION ( 'NONE',  ( -0.000000000000000000, -1.000000000000000000, -0.000000000000000000 ) ) ;
#356 = ORIENTED_EDGE ( 'NONE', *, *, #79, .T. ) ;
#357 = AXIS2_PLACEMENT_3D ( 'NONE', #162, #10, #42 ) ;
#358 = PLANE ( 'NONE',  #39 ) ;
#359 = ADVANCED_FACE ( 'NONE', ( #68 ), #370, .T. ) ;
#360 = FACE_OUTER_BOUND ( 'NONE', #361, .T. ) ;
#361 = EDGE_LOOP ( 'NONE', ( #248, #339, #244, #7 ) ) ;
#362 = ADVANCED_FACE ( 'NONE', ( #63 ), #274, .F. ) ;
#363 = APPROVAL_STATUS ( 'not_yet_approved' ) ;
#364 = VERTEX_POINT ( 'NONE', #177 ) ;
#365 = DATE_AND_TIME ( #65, #139 ) ;
#366 = VERTEX_POINT ( 'NONE', #102 ) ;
#367 = DATE_AND_TIME ( #245, #285 ) ;
#368 = ORIENTED_EDGE ( 'NONE', *, *, #215, .T. ) ;
#369 = PRODUCT_RELATED_PRODUCT_CATEGORY ( 'detail', '', ( #173 ) ) ;
#370 = CYLINDRICAL_SURFACE ( 'NONE', #311, 3.000000000000000444 ) ;
#371 = VERTEX_POINT ( 'NONE', #184 ) ;
#372 = DIRECTION ( 'NONE',  ( 0.000000000000000000, 0.000000000000000000, -1.000000000000000000 ) ) ;
#373 = VERTEX_POINT ( 'NONE', #212 ) ;
#374 = PLANE ( 'NONE',  #189 ) ;
#375 = SHAPE_DEFINITION_REPRESENTATION ( #60, #21 ) ;
#376 = CARTESIAN_POINT ( 'NONE',  ( 40.00000000000000000, 0.000000000000000000, -3.000000000000000888 ) ) ;
#377 = DIRECTION ( 'NONE',  ( 0.000000000000000000, 0.000000000000000000, 1.000000000000000000 ) ) ;
#378 = DIRECTION ( 'NONE',  ( 0.000000000000000000, 0.000000000000000000, 1.000000000000000000 ) ) ;
#379 = ADVANCED_FACE ( 'NONE', ( #269 ), #306, .F. ) ;
#380 = DIRECTION ( 'NONE',  ( 0.000000000000000000, 1.000000000000000000, -0.000000000000000000 ) ) ;
#381 = CARTESIAN_POINT ( 'NONE',  ( 0.000000000000000000, 0.000000000000000000, -0.9999999999999991118 ) ) ;
#382 = CARTESIAN_POINT ( 'NONE',  ( 40.00000000000000000, 10.00000000000000000, 3.000000000000000888 ) ) ;
#383 = CARTESIAN_POINT ( 'NONE',  ( 40.00000000000000000, 10.00000000000000000, 2.000000000000003109 ) ) ;
#384 = DIRECTION ( 'NONE',  ( 1.000000000000000000, -0.000000000000000000, 0.000000000000000000 ) ) ;
#385 = CARTESIAN_POINT ( 'NONE',  ( 0.000000000000000000, 0.000000000000000000, 0.000000000000000000 ) ) ;
#386 = ORIENTED_EDGE ( 'NONE', *, *, #181, .F. ) ;
#387 = PERSON_AND_ORGANIZATION_ROLE ( 'design_owner' ) ;
#388 = ORIENTED_EDGE ( 'NONE', *, *, #297, .T. ) ;
#389 = DIRECTION ( 'NONE',  ( -0.000000000000000000, -1.000000000000000000, -0.000000000000000000 ) ) ;
ENDSEC;
END-ISO-10303-21;
